<svg width="24" height="24" viewBox="0 0 24 24" fill="none" xmlns="http://www.w3.org/2000/svg">
<path fill-rule="evenodd" clip-rule="evenodd" d="M16.6569 12.9999H4.92893C4.37665 12.9999 3.92893 12.5522 3.92893 11.9999C3.92893 11.4476 4.37665 10.9999 4.92893 10.9999L16.6569 10.9999L11.2929 5.63597C10.9024 5.24544 10.9024 4.61228 11.2929 4.22176C11.6834 3.83123 12.3166 3.83123 12.7071 4.22176L19.7782 11.2928C19.8741 11.3887 19.9464 11.4992 19.9952 11.6171C20.0437 11.7342 20.0707 11.8624 20.0711 11.9969C20.0711 12 20.0711 12.003 20.071 12.006C20.0695 12.2599 19.9719 12.5133 19.7782 12.707L12.7071 19.7781C12.3166 20.1686 11.6834 20.1686 11.2929 19.7781C10.9024 19.3876 10.9024 18.7544 11.2929 18.3639L16.6569 12.9999Z" fill="#242C32"/>
</svg>
