<svg width="24" height="24" viewBox="0 0 24 24" fill="currentColor" xmlns="http://www.w3.org/2000/svg">
<path d="M2 7.42179C2 5.53226 3.53177 4.00049 5.4213 4.00049H18.578C20.4676 4.00049 21.9993 5.53226 21.9993 7.42179V18.5786C21.9993 20.4681 20.4676 21.9999 18.578 21.9999H5.4213C3.53177 21.9999 2 20.4681 2 18.5786V7.42179ZM5.4213 6.00049C4.63634 6.00049 4 6.63683 4 7.42179V18.5786C4 19.3636 4.63634 19.9999 5.4213 19.9999H18.578C19.363 19.9999 19.9993 19.3636 19.9993 18.5786V7.42179C19.9993 6.63683 19.363 6.00049 18.578 6.00049H5.4213Z"/>
<path d="M7.99414 2C8.54643 2 8.99414 2.44772 8.99414 3V7C8.99414 7.55228 8.54643 8 7.99414 8C7.44186 8 6.99414 7.55228 6.99414 7V3C6.99414 2.44772 7.44186 2 7.99414 2Z"/>
<path d="M16 2C16.5523 2 17 2.44772 17 3V7C17 7.55228 16.5523 8 16 8C15.4477 8 15 7.55228 15 7V3C15 2.44772 15.4477 2 16 2Z"/>
<path d="M21 12.5H3.5V10.5H21V12.5Z"/>
</svg>
