<svg width="202" height="46" viewBox="0 0 202 46" fill="none" xmlns="http://www.w3.org/2000/svg">
<g clip-path="url(#clip0_201_197)">
<path d="M38.7386 30.7332V11.6089H31.6201V30.7329L38.7386 30.7332Z" fill="currentColor"/>
<path d="M38.7386 30.7332V11.6089H31.6201V30.7329L38.7386 30.7332Z" stroke="currentColor" stroke-width="0.381528"/>
<path d="M120.649 11.6089L111.046 11.61L108.09 19.5259C107.847 20.1807 107.776 21.4317 107.776 21.4317C107.776 21.4317 107.673 20.1616 107.438 19.5259L104.506 11.61L94.9383 11.6089L94.9292 30.7358L101.069 30.7332V19.3554C101.069 19.3554 101.069 20.0307 101.331 20.6394L105.677 30.7358H109.875L114.221 20.4056C114.479 19.7929 114.479 19.118 114.479 19.118V30.7329H120.649V11.6089Z" fill="currentColor"/>
<path d="M120.649 11.6089L111.046 11.61L108.09 19.5259C107.847 20.1807 107.776 21.4317 107.776 21.4317C107.776 21.4317 107.673 20.1616 107.438 19.5259L104.506 11.61L94.9383 11.6089L94.9292 30.7358L101.069 30.7332V19.3554C101.069 19.3554 101.069 20.0307 101.331 20.6394L105.677 30.7358H109.875L114.221 20.4056C114.479 19.7929 114.479 19.118 114.479 19.118V30.7329H120.649V11.6089Z" stroke="currentColor" stroke-width="0.381528"/>
<path d="M173.765 11.6089H167.047V22.1095C167.047 22.1095 167.047 21.4342 166.605 20.9207L158.622 11.6089H151.544V30.7329H158.622V20.2344C158.622 20.2344 158.622 20.9082 159.046 21.4207L166.733 30.7376L173.765 30.7339V11.6089Z" fill="currentColor"/>
<path d="M173.765 11.6089H167.047V22.1095C167.047 22.1095 167.047 21.4342 166.605 20.9207L158.622 11.6089H151.544V30.7329H158.622V20.2344C158.622 20.2344 158.622 20.9082 159.046 21.4207L166.733 30.7376L173.765 30.734V11.6089Z" stroke="currentColor" stroke-width="0.381528"/>
<path d="M149.245 30.7357L139.574 11.6113H132.056L122.386 30.7357H129.904L131.692 27.1984L139.938 27.1998L141.727 30.7357H142.022V30.7371H148.593L148.591 30.7357H149.245ZM133.501 22.357L135.517 18.3559C135.815 17.7648 135.815 17.091 135.815 17.091C135.815 17.091 135.815 17.7648 136.114 18.3585L138.139 22.3761L133.501 22.357Z" fill="currentColor"/>
<path d="M149.245 30.7357L139.574 11.6113H132.056L122.386 30.7357H129.904L131.692 27.1984L139.938 27.1998L141.727 30.7357H142.022V30.7371H148.593L148.591 30.7357H149.245ZM133.501 22.357L135.517 18.3559C135.815 17.7648 135.815 17.091 135.815 17.091C135.815 17.091 135.815 17.7648 136.114 18.3585L138.139 22.3761L133.501 22.357Z" stroke="currentColor" stroke-width="0.381528"/>
<path d="M51.9179 25.6325L51.9194 22.979H62.5967V18.6754H51.919V16.3054H64.9159V11.61L45.1719 11.6089V30.7329H65.4346V25.6336L51.9179 25.6325Z" fill="currentColor"/>
<path d="M51.9179 25.6325L51.9194 22.979H62.5967V18.6754H51.919V16.3054H64.9159V11.61L45.1719 11.6089V30.7329H65.4346V25.6336L51.9179 25.6325Z" stroke="currentColor" stroke-width="0.381528"/>
<path d="M0 11.6074L10.2274 30.7588H18.4674L28.5597 11.6089H20.5678L14.8679 23.2548C14.5731 23.8562 14.5731 24.53 14.5731 24.53C14.5731 24.53 14.5731 23.8562 14.2705 23.2387L8.57213 11.6089L0 11.6074Z" fill="currentColor"/>
<path d="M0 11.6074L10.2274 30.7588H18.4674L28.5597 11.6089H20.5678L14.8679 23.2548C14.5731 23.8562 14.5731 24.53 14.5731 24.53C14.5731 24.53 14.5731 23.8562 14.2705 23.2387L8.57213 11.6089L0 11.6074Z" stroke="currentColor" stroke-width="0.381528"/>
<path d="M89.9882 1.63451L74.2951 1.6228C74.2951 1.6228 68.1401 1.77424 68.1401 7.85163C68.1401 14.1031 74.2951 13.9619 74.2951 13.9619L83.6207 13.9491C83.6207 13.9491 84.8517 13.9491 84.8517 15.2397C84.8517 16.3575 83.6171 16.3575 83.6171 16.3575H68.57V21.602L84.1614 21.6031C84.1614 21.6031 90.7981 21.8562 90.7981 15.0249C90.7981 9.14582 84.1614 8.97317 84.1614 8.97317H75.3237C75.3237 8.97317 73.9519 8.97317 73.9519 7.85272C73.9519 6.76996 75.3237 6.76996 75.3237 6.76996H89.9882V1.63451Z" fill="currentColor"/>
<path d="M89.9882 1.63451L74.2951 1.6228C74.2951 1.6228 68.1401 1.77424 68.1401 7.85163C68.1401 14.1031 74.2951 13.9619 74.2951 13.9619L83.6207 13.9491C83.6207 13.9491 84.8517 13.9491 84.8517 15.2397C84.8517 16.3575 83.6171 16.3575 83.6171 16.3575H68.57V21.602L84.1614 21.6031C84.1614 21.6031 90.7981 21.8562 90.7981 15.0249C90.7981 9.14582 84.1614 8.97317 84.1614 8.97317H75.3237C75.3237 8.97317 73.9519 8.97317 73.9519 7.85272C73.9519 6.76996 75.3237 6.76996 75.3237 6.76996H89.9882V1.63451Z" stroke="currentColor" stroke-width="0.381528"/>
<path d="M202 11.6113H195.281V22.112C195.281 22.112 195.281 21.4367 194.842 20.9231L186.858 11.6113H179.78V30.7371H186.858V20.2365C186.858 20.2365 186.858 20.9118 187.282 21.4239L194.969 30.7397L201.999 30.7371L202 11.6113Z" fill="currentColor"/>
<path d="M202 11.6113H195.281V22.112C195.281 22.112 195.281 21.4367 194.842 20.9231L186.858 11.6113H179.78V30.7371H186.858V20.2365C186.858 20.2365 186.858 20.9118 187.282 21.4239L194.969 30.7397L201.999 30.7371L202 11.6113Z" stroke="black" stroke-width="0.381528"/>
<path d="M89.9936 24.4892L74.3004 24.479C74.3004 24.479 68.144 24.629 68.144 30.7078C68.144 36.9582 74.3004 36.817 74.3004 36.817L83.6246 36.8053C83.6246 36.8053 84.8556 36.8053 84.8556 38.0959C84.8556 39.2137 83.6225 39.2137 83.6225 39.2137H68.5753V44.4582H84.1653C84.1653 44.4582 90.8035 44.7124 90.8035 37.8811C90.8035 32.0009 84.1653 31.829 84.1653 31.829L75.3291 31.8279C75.3291 31.8279 73.9573 31.8279 73.9573 30.7078C73.9573 29.6247 75.3291 29.6247 75.3291 29.6247L89.9936 29.6258V24.4892Z" fill="currentColor"/>
<path d="M89.9936 24.4892L74.3004 24.479C74.3004 24.479 68.144 24.629 68.144 30.7078C68.144 36.9582 74.3004 36.817 74.3004 36.817L83.6246 36.8053C83.6246 36.8053 84.8556 36.8053 84.8556 38.0959C84.8556 39.2137 83.6225 39.2137 83.6225 39.2137H68.5753V44.4582H84.1653C84.1653 44.4582 90.8035 44.7124 90.8035 37.8811C90.8035 32.0009 84.1653 31.829 84.1653 31.829L75.3291 31.8279C75.3291 31.8279 73.9573 31.8279 73.9573 30.7078C73.9573 29.6247 75.3291 29.6247 75.3291 29.6247L89.9936 29.6258V24.4892Z" stroke="currentColor" stroke-width="0.381528"/>
</g>
<defs>
<clipPath id="clip0_201_197">
<rect width="202" height="46" fill="white"/>
</clipPath>
</defs>
</svg>
