<svg width="917" height="388" viewBox="0 0 917 388" fill="none" xmlns="http://www.w3.org/2000/svg">
<g opacity="0.1">
<path fill-rule="evenodd" clip-rule="evenodd" d="M221.8 315.68V229.431C221.8 182.218 183.031 143.182 135.559 143.182C88.0869 143.182 49.3181 182.218 49.3181 229.431C49.3181 276.644 88.0869 315.68 135.559 315.68H221.8ZM797.529 204.638C786.716 168.503 752.958 143.182 714.98 143.182C677.003 143.182 643.245 168.766 632.432 204.638H797.529ZM271.118 365.003H135.295C60.6586 365.003 0 303.811 0 229.431C0 154.787 60.9224 93.8587 135.559 93.8587C210.195 93.8587 271.118 154.787 271.118 229.431V365.003ZM600.257 301.701C586.542 280.073 579.158 255.279 579.158 229.431C579.158 154.787 640.08 93.8587 714.717 93.8587C798.056 93.8587 862.144 169.294 848.429 251.587L847.902 254.224H632.168C642.981 290.359 676.739 315.68 714.717 315.68H867.682V7.08191H917V365.003H714.189C685.179 365.003 657.487 355.508 634.278 338.1C611.07 355.244 583.114 365.003 554.367 365.003H553.312C478.939 365.003 418.017 303.811 418.017 229.431V143.182C372.127 144.764 334.941 183.009 334.941 229.431V365.003H285.623V229.431C285.623 155.842 344.963 95.4413 418.017 93.8587V7.08191H467.335V93.8587H540.389V143.182H467.335V229.431C467.335 276.644 506.104 315.68 553.576 315.68C570.191 315.68 586.279 310.669 600.257 301.701Z" fill="currentColor"/>
</g>
</svg>
