<svg width="104" height="44" viewBox="0 0 104 44" fill="currentColor" xmlns="http://www.w3.org/2000/svg">
<path d="M25.155 35.7989V26.0181C25.155 20.664 20.7581 16.2372 15.3742 16.2372C9.99022 16.2372 5.59333 20.664 5.59333 26.0181C5.59333 31.3721 9.99022 35.7989 15.3742 35.7989H25.155ZM90.4504 23.2064C89.224 19.1087 85.3955 16.2372 81.0883 16.2372C76.7811 16.2372 72.9525 19.1386 71.7262 23.2064H90.4504ZM30.7483 41.3922H15.3443C6.87949 41.3922 0 34.4529 0 26.0181C0 17.5533 6.90941 10.6439 15.3742 10.6439C23.8389 10.6439 30.7483 17.5533 30.7483 26.0181V41.3922ZM68.0771 34.2136C66.5217 31.7609 65.6842 28.9493 65.6842 26.0181C65.6842 17.5533 72.5936 10.6439 81.0584 10.6439C90.5102 10.6439 97.7785 19.1984 96.2232 28.5306L96.1634 28.8297H71.6963C72.9226 32.9275 76.7512 35.7989 81.0584 35.7989H98.4067V0.803223H104V41.3922H80.9986C77.7084 41.3922 74.5677 40.3154 71.9356 38.3413C69.3034 40.2855 66.1329 41.3922 62.8726 41.3922H62.7529C54.3181 41.3922 47.4087 34.4529 47.4087 26.0181V16.2372C42.2042 16.4167 37.9868 20.7538 37.9868 26.0181V41.3922H32.3934V26.0181C32.3934 17.6729 39.1234 10.8234 47.4087 10.6439V0.803223H53.002V10.6439H61.2873V16.2372H53.002V26.0181C53.002 31.3721 57.3989 35.7989 62.7829 35.7989C64.6672 35.7989 66.4918 35.2306 68.0771 34.2136Z"/>
</svg>
