<svg width="38" height="12" viewBox="0 0 38 12" fill="currentColor" xmlns="http://www.w3.org/2000/svg">
<path d="M2.985 9.75198C2.54898 9.75198 2.18005 9.68586 1.81112 9.52057C1.44219 9.35528 1.14034 9.15694 0.872021 8.85942C0.603707 8.59495 0.402471 8.23132 0.234775 7.86768C0.0670785 7.50404 0 7.04123 0 6.57842V2.34702H1.47573V6.57842C1.47573 6.84289 1.50927 7.07429 1.60989 7.27264C1.7105 7.50404 1.84466 7.66933 1.97882 7.83462C2.14651 7.99991 2.31421 8.13214 2.51545 8.23132C2.71668 8.33049 2.95146 8.36355 3.18623 8.36355C3.42101 8.36355 3.65578 8.33049 3.89056 8.23132C4.12533 8.13214 4.29303 7.99991 4.46072 7.83462C4.62842 7.66933 4.76258 7.47099 4.86319 7.27264C4.96381 7.04123 4.99735 6.80983 4.99735 6.57842V2.34702H6.47308V9.68586H5.39982L5.06443 8.95859C4.93027 9.12388 4.76258 9.25611 4.56134 9.35528C4.39365 9.45446 4.15887 9.55363 3.89056 9.6528C3.62224 9.75198 3.35393 9.75198 2.985 9.75198Z"/>
<path d="M12.3425 2.28104C12.8456 2.28104 13.3151 2.38021 13.7176 2.5455C14.12 2.71079 14.5225 2.97526 14.8579 3.30583C15.1933 3.63641 15.4281 4.03311 15.6293 4.49592C15.797 4.95873 15.8976 5.4546 15.8976 6.01658C15.8976 6.57856 15.797 7.07443 15.6293 7.53724C15.4616 8.00005 15.1933 8.39674 14.8579 8.72732C14.5225 9.0579 14.1536 9.32236 13.7176 9.48765C13.2816 9.686 12.812 9.75212 12.3425 9.75212C11.9735 9.75212 11.6717 9.71906 11.4369 9.61988C11.1686 9.55377 10.9674 9.4546 10.7997 9.32236C10.5984 9.19013 10.4307 9.0579 10.2966 8.92567V11.967H8.82084V2.34716H9.8941L10.2295 3.07443C10.3636 2.90914 10.5313 2.77691 10.7326 2.64468C10.9003 2.5455 11.1351 2.44633 11.4034 2.38021C11.6381 2.3141 11.9735 2.28104 12.3425 2.28104ZM12.2418 8.36369C12.5102 8.36369 12.812 8.29757 13.0468 8.1984C13.3151 8.09922 13.5499 7.93393 13.7176 7.70253C13.8853 7.47112 14.0865 7.23972 14.1871 6.9422C14.2877 6.64468 14.3548 6.34716 14.3548 5.98352C14.3548 5.61988 14.2877 5.32236 14.1871 5.02484C14.0865 4.72732 13.9188 4.49592 13.7176 4.26451C13.5163 4.03311 13.2816 3.90088 13.0468 3.76864C12.812 3.63641 12.5102 3.60336 12.2418 3.60336C11.9735 3.60336 11.6717 3.66947 11.4369 3.76864C11.1686 3.86782 10.9338 4.03311 10.7661 4.26451C10.5649 4.46286 10.4307 4.72732 10.2966 5.02484C10.196 5.32236 10.1289 5.61988 10.1289 5.98352C10.1289 6.34716 10.196 6.64468 10.2966 6.9422C10.3972 7.23972 10.5649 7.47112 10.7661 7.70253C10.9674 7.90088 11.2021 8.06617 11.4369 8.1984C11.7052 8.33063 11.9735 8.36369 12.2418 8.36369Z"/>
<path d="M19.3857 9.68595H17.91V0H19.3857V9.68595Z"/>
<path d="M27.4687 9.68593L27.1333 8.95866C26.9991 9.12395 26.8314 9.25618 26.6302 9.35535C26.4625 9.45453 26.2277 9.5537 25.9594 9.65287C25.6911 9.71899 25.3557 9.7851 24.9867 9.7851C24.4837 9.7851 24.0141 9.68593 23.6116 9.52064C23.1756 9.32229 22.8067 9.09089 22.4713 8.76031C22.1359 8.42973 21.9011 8.03304 21.6999 7.57023C21.5322 7.10742 21.4316 6.61155 21.4316 6.04957C21.4316 5.48758 21.5322 4.99172 21.6999 4.52891C21.8676 4.0661 22.1359 3.6694 22.4713 3.33882C22.8067 3.00824 23.1756 2.74378 23.6116 2.57849C24.0476 2.4132 24.5172 2.31403 24.9867 2.31403C25.3557 2.31403 25.6911 2.34709 25.9594 2.44626C26.2277 2.54543 26.4625 2.61155 26.6302 2.71072C26.8314 2.84296 26.9991 2.97519 27.1333 3.14048L27.4687 2.4132H28.5419V9.75205H27.4687V9.68593ZM22.9073 6.01651C22.9073 6.38015 22.9744 6.67767 23.075 6.97519C23.1756 7.27271 23.3433 7.50411 23.5446 7.73552C23.7458 7.96692 23.9806 8.09915 24.2153 8.23138C24.4837 8.33056 24.752 8.39667 25.0203 8.39667C25.2886 8.39667 25.5905 8.33056 25.8252 8.23138C26.0935 8.13221 26.3283 7.96692 26.496 7.73552C26.6972 7.53717 26.8314 7.27271 26.9656 6.97519C27.0662 6.67767 27.1333 6.38015 27.1333 6.01651C27.1333 5.65287 27.0662 5.35535 26.9656 5.05783C26.8649 4.76031 26.6972 4.52891 26.496 4.2975C26.2948 4.09915 26.06 3.93386 25.8252 3.80163C25.5569 3.70246 25.2886 3.63634 25.0203 3.63634C24.752 3.63634 24.4501 3.70246 24.2153 3.80163C23.9806 3.90081 23.7123 4.0661 23.5446 4.2975C23.3769 4.52891 23.1756 4.76031 23.075 5.05783C22.9744 5.35535 22.9073 5.65287 22.9073 6.01651Z"/>
<path d="M34.4449 9.75207C34.0759 9.75207 33.7405 9.71901 33.4722 9.61984C33.2039 9.55372 32.9691 9.45455 32.8014 9.32232C32.6002 9.19008 32.4325 9.05785 32.2983 8.92562L31.963 9.65289H30.8897V0H32.3654V3.10744C32.4996 2.94215 32.6673 2.80992 32.8685 2.67769C33.0362 2.57851 33.271 2.47934 33.5058 2.41322C33.7741 2.31405 34.0759 2.28099 34.4113 2.28099C34.9144 2.28099 35.384 2.38017 35.7864 2.54545C36.2224 2.7438 36.5914 2.97521 36.9268 3.30579C37.2622 3.63636 37.4969 4.03306 37.6982 4.49587C37.8994 4.95868 37.9665 5.45455 37.9665 6.01653C37.9665 6.57851 37.8659 7.07438 37.6982 7.53719C37.5305 8 37.2622 8.3967 36.9268 8.72727C36.5914 9.05785 36.2224 9.32232 35.7864 9.4876C35.384 9.68595 34.9144 9.75207 34.4449 9.75207ZM34.3442 3.66942C34.0424 3.66942 33.7741 3.73554 33.5393 3.83471C33.3045 3.93388 33.0362 4.09917 32.8685 4.33058C32.6673 4.52893 32.4996 4.79339 32.399 5.09091C32.2983 5.38843 32.2313 5.68595 32.2313 6.04959C32.2313 6.41322 32.2983 6.71074 32.399 7.00827C32.4996 7.30579 32.6673 7.53719 32.8685 7.7686C33.0698 7.96694 33.3045 8.13223 33.5393 8.26446C33.8076 8.36364 34.0759 8.42975 34.3442 8.42975C34.6126 8.42975 34.9144 8.36364 35.1492 8.26446C35.4175 8.16529 35.6523 8 35.82 7.7686C36.0212 7.57025 36.1554 7.30579 36.2895 7.00827C36.3901 6.71074 36.4572 6.41322 36.4572 6.04959C36.4572 5.68595 36.3901 5.38843 36.2895 5.09091C36.1889 4.79339 36.0212 4.56198 35.82 4.33058C35.6187 4.13223 35.384 3.96694 35.1492 3.83471C34.9144 3.70248 34.6461 3.66942 34.3442 3.66942Z"/>
</svg>
