<svg width="1000" height="663" viewBox="0 0 1000 663" fill="none" xmlns="http://www.w3.org/2000/svg">
<path d="M90.8487 174.585C91.0254 175.174 91.2021 175.527 91.5555 175.998C92.0267 176.528 92.4391 177.117 92.9103 177.648L92.9692 177.706C94.3828 178.119 95.7965 178.531 97.1512 179.002C97.3868 179.061 97.6224 179.12 97.7991 179.179H97.858C97.917 179.179 97.9759 179.12 98.0348 179.12C98.0937 179.061 98.0937 179.002 98.0937 178.943L98.1526 178.826C98.506 178.06 98.8005 177.294 99.1539 176.47C99.3306 176.116 99.4484 175.763 99.6251 175.409C99.6251 175.409 99.684 175.292 99.7429 175.233C99.8018 175.174 99.8018 175.056 99.8018 174.938V174.879C99.6251 174.29 99.3895 173.76 99.2128 173.171C98.9183 172.287 98.6238 171.463 98.3293 170.579C98.2704 170.462 98.2704 170.226 98.2115 170.049C98.1526 169.931 98.1526 169.873 98.0937 169.814C98.0348 169.755 97.917 169.696 97.7991 169.637C96.2088 169.342 94.6773 168.989 93.087 168.694C92.9103 168.636 92.7925 168.636 92.6158 168.636C92.498 168.636 92.3801 168.694 92.2623 168.753C92.1445 168.812 92.0267 168.93 91.85 169.048C91.4966 169.283 91.1432 169.578 90.7898 169.814C90.7309 169.873 90.6131 169.931 90.5542 169.99C90.4953 170.049 90.4364 170.167 90.3775 170.285C90.2597 171.051 90.2008 171.757 90.083 172.523C90.083 172.759 90.2008 172.994 90.2597 173.112C90.5542 173.701 90.7309 174.113 90.8487 174.585ZM268.498 571.585C268.38 571.35 268.262 571.173 268.144 570.937C265.965 565.518 263.785 560.099 261.665 554.68C261.194 553.443 260.664 552.206 260.192 550.911C260.016 550.498 259.839 550.027 259.603 549.556C258.366 547.318 257.247 544.903 255.716 542.841C254.067 540.603 252.417 538.364 250.886 536.067C250.297 535.184 249.472 534.241 249.119 533.24L247.705 528.763C247.705 528.646 247.646 528.587 247.646 528.469C247.646 528.174 247.764 527.88 247.764 527.526C247.882 526.643 248.059 525.701 248.176 524.817C248.235 524.581 248.235 524.346 248.235 524.11C248.294 523.875 248.294 523.639 248.412 523.521C248.765 522.991 249.119 522.461 249.531 521.99C250.297 520.929 251.063 519.81 251.828 518.75C252.241 518.161 252.653 517.69 252.771 516.924C252.83 516.688 252.83 516.512 252.83 516.276C252.83 515.864 252.712 515.393 252.535 515.039C251.946 513.802 250.827 512.978 249.885 512.153C249.59 511.858 249.237 511.623 248.942 511.328C248.824 511.269 248.706 511.034 248.471 510.916C248.176 510.798 247.882 510.68 247.587 510.563C244.524 509.208 241.52 507.853 238.458 506.498C237.633 506.145 236.985 505.615 236.219 505.085C235.218 504.378 234.275 503.73 233.392 502.846C232.508 501.963 231.625 500.962 230.624 500.137C229.917 499.607 229.21 499.077 228.503 498.547C228.209 498.311 228.032 498.193 227.678 498.134C226.029 497.781 224.439 497.427 222.79 497.074C222.024 496.897 221.199 496.721 220.433 496.544C220.257 496.485 220.021 496.485 219.844 496.426C219.668 496.367 219.491 496.308 219.491 496.191C219.138 495.484 218.843 494.777 218.49 494.07C218.313 493.658 218.195 493.422 218.195 493.128C218.195 493.01 218.195 492.951 218.254 492.774C218.431 491.891 218.607 491.066 218.784 490.182C218.843 489.829 218.902 489.417 219.02 489.181C220.492 486.531 221.965 483.939 223.496 481.288C223.673 480.935 223.732 480.64 223.791 480.287C223.909 479.58 224.026 478.814 224.203 478.108V477.99C224.203 477.636 224.026 477.283 224.026 477.047C223.85 476.223 223.732 475.398 223.555 474.573C223.261 472.983 222.966 471.393 222.672 469.802C222.613 469.567 222.613 469.272 222.613 468.978C222.613 468.271 222.731 467.505 222.79 466.739C222.848 465.856 222.907 465.031 222.907 464.148C222.907 463.735 222.907 463.323 222.907 462.911V462.734C222.907 462.557 222.907 462.381 222.907 462.204C222.907 461.851 222.907 461.497 222.731 461.203C222.318 460.555 221.965 459.907 221.553 459.259C221.494 459.141 221.435 459.141 221.317 459.082C221.258 459.023 221.199 459.023 221.14 458.964C220.787 458.729 220.433 458.493 220.08 458.258C219.491 457.845 218.843 457.433 218.254 457.021C217.783 456.726 217.194 456.608 216.723 456.49C215.957 456.196 215.132 455.96 214.367 455.666C214.19 455.607 214.013 455.607 213.836 455.607C213.483 455.607 213.13 455.666 212.835 455.666C212.717 455.666 212.599 455.666 212.482 455.666C212.305 455.666 212.128 455.666 211.893 455.666C211.539 455.666 211.127 455.666 210.773 455.784C210.067 455.96 209.419 456.137 208.712 456.373C205.296 457.315 201.82 458.316 198.404 459.259C196.873 459.671 195.341 460.083 193.869 460.555C193.338 460.731 192.632 460.79 192.102 461.085C190.865 461.615 189.51 462.086 188.332 462.793C187.566 463.205 186.859 463.853 186.152 464.324L177.612 470.215C176.846 470.745 176.139 471.098 175.314 471.452C174.725 471.687 174.195 472.041 173.665 472.394C173.488 472.512 173.194 472.512 172.958 472.571C172.605 472.63 172.251 472.806 171.898 472.806C171.78 472.806 171.662 472.806 171.545 472.806C170.426 472.806 169.189 472.335 168.305 471.687C167.245 470.863 166.302 469.743 165.301 468.801C164.771 468.271 164.241 467.8 163.711 467.27C163.357 466.916 162.945 466.798 162.533 466.622C162.12 466.445 161.767 466.268 161.355 466.091C161.237 466.033 161.06 465.915 160.883 465.915C160.294 465.856 159.764 465.856 159.175 465.797C157.526 465.679 155.877 465.62 154.227 465.502C153.815 465.502 153.462 465.326 153.049 465.149C152.46 464.972 151.812 464.796 151.518 464.383C151.047 463.735 150.575 463.146 150.104 462.498C149.869 462.145 149.692 461.674 149.456 461.262C148.985 460.26 148.573 459.082 147.807 458.14C146.747 456.785 145.687 455.371 144.685 454.017C144.332 453.545 143.978 453.074 143.625 452.603C143.566 452.544 143.448 452.485 143.389 452.485C143.213 452.485 142.918 452.603 142.683 452.662C142.447 452.78 142.211 452.897 142.152 452.897C141.387 453.192 140.68 453.428 139.914 453.722C139.679 453.781 139.561 453.958 139.384 454.134C139.207 454.311 139.09 454.488 138.972 454.606C137.912 455.666 136.851 456.726 135.85 457.727C135.732 457.845 135.497 457.904 135.261 457.963C135.025 458.022 134.731 458.081 134.554 458.14C133.671 458.375 132.787 458.611 131.845 458.905C131.373 459.023 130.843 459.259 130.372 459.318H130.313C130.195 459.318 129.96 459.141 129.783 459.023C129.371 458.788 129.017 458.552 128.605 458.316C128.369 458.199 128.016 458.022 127.721 457.845C127.545 457.727 127.427 457.668 127.309 457.551C127.191 457.433 127.132 457.374 127.132 457.256C126.956 456.49 126.779 455.725 126.543 454.959C126.485 454.723 126.485 454.488 126.485 454.252C126.485 453.369 126.779 452.426 126.956 451.543C127.191 450.247 127.545 448.892 127.663 447.537C127.721 446.772 127.78 445.947 127.78 445.122C127.78 444.828 127.78 444.533 127.78 444.239C127.78 443.944 127.78 443.591 127.78 443.296V443.237C127.78 442.707 127.604 442.236 127.486 441.824C127.309 441.117 127.191 440.41 127.015 439.762C126.897 439.114 126.367 438.466 126.072 437.995C125.837 437.583 125.66 437.053 125.365 436.64L120.241 430.573C118.297 428.217 116.294 425.861 114.351 423.564C114.233 423.446 114.174 423.329 113.938 423.211C113.232 422.916 112.584 422.563 111.877 422.268C111.111 421.915 110.345 421.561 109.58 421.208C109.403 421.149 109.285 421.09 109.167 421.09C108.991 421.09 108.873 421.149 108.637 421.267C107.106 421.856 105.633 422.445 104.102 422.975C103.807 423.093 103.572 423.329 103.336 423.505C102.688 424.035 102.04 424.565 101.392 425.154C100.685 425.743 100.037 426.274 99.3306 426.863C99.095 427.098 98.8005 427.334 98.5649 427.511C97.2101 428.335 95.9143 429.101 94.5595 429.926C93.6171 430.515 92.6158 430.691 91.4966 430.986C90.4364 431.28 89.3761 431.693 88.3159 431.752L83.1914 431.869C82.1901 431.869 81.3065 432.105 80.3052 432.341C78.7737 432.694 77.2423 432.988 75.7108 433.342C75.1218 433.46 74.4739 433.931 73.9438 434.167C73.2958 434.461 72.6479 434.756 72 435.109L72.1178 435.05V435.168C72.7068 436.051 73.2958 436.876 73.5904 437.877C74.0616 439.586 74.5328 441.235 74.9451 442.943C75.0629 443.355 75.1807 443.826 75.2985 444.239C75.3574 444.357 75.4163 444.474 75.4752 444.533C75.5341 444.651 75.6519 444.71 75.6519 444.769C75.9464 445.181 76.241 445.535 76.5355 445.947C76.6533 446.065 76.7711 446.3 76.9478 446.536C77.1245 446.772 77.2423 447.007 77.4779 447.066C78.1847 447.419 78.8916 447.832 79.5984 448.185C80.2463 448.539 80.8942 448.539 81.5422 448.598C82.1901 448.715 82.838 448.833 83.5448 448.833C84.4873 448.833 85.4297 448.833 86.3721 448.833C86.5488 448.833 86.6077 448.892 86.6666 448.892C86.7255 448.951 86.7255 449.01 86.7255 449.128C86.7255 449.304 86.6077 449.599 86.4899 449.835C86.3721 450.07 86.1954 450.306 86.0776 450.424L86.0187 450.541L86.0776 450.659C86.6666 451.071 87.2557 451.425 87.8447 451.837C88.0803 451.955 88.3159 452.073 88.4926 452.249C88.7282 452.367 88.9049 452.544 88.9638 452.721C89.5528 454.017 90.2008 455.312 90.7898 456.667C91.0254 457.197 91.1432 457.904 91.3199 458.552L92.6158 463.205C93.5582 466.563 94.5006 469.92 95.4431 473.278C95.6198 473.808 95.6787 474.456 95.9732 475.045L97.1512 477.283C97.269 477.46 97.3279 477.695 97.4457 477.931C97.5635 478.166 97.6813 478.402 97.917 478.579C98.506 479.05 99.1539 479.58 99.7429 480.051C99.9196 480.169 100.273 480.405 100.568 480.64C100.744 480.758 100.862 480.876 100.921 480.994C101.039 481.112 101.039 481.229 101.039 481.288C101.039 481.465 100.803 481.759 100.685 481.995C100.45 482.407 100.273 482.82 100.037 483.291C99.9785 483.409 99.9196 483.527 99.9196 483.644C99.9196 483.762 99.9785 483.821 100.037 483.998C100.096 484.057 100.096 484.233 100.214 484.41C100.273 484.587 100.332 484.763 100.509 484.822C101.687 485.647 102.865 486.413 104.043 487.237C104.219 487.355 104.514 487.414 104.75 487.414C105.162 487.414 105.633 487.355 105.869 487.355C105.987 487.355 106.104 487.355 106.163 487.355C106.634 487.355 107.165 487.414 107.577 487.591C107.754 487.65 107.989 487.885 108.166 488.239C108.343 488.592 108.519 488.946 108.578 489.181C108.755 489.652 109.108 489.947 109.462 490.182C110.875 491.066 112.348 492.008 113.762 492.892C114.704 493.481 115.293 494.188 115.764 495.248C116.236 496.426 117.001 497.427 117.826 498.37C118.297 498.9 118.651 499.312 119.298 499.666C119.416 499.725 119.593 499.784 119.77 499.842C119.946 499.901 120.064 500.019 120.123 500.078C120.3 500.255 120.476 500.549 120.653 500.844C121.242 501.727 121.713 502.552 122.185 503.494C123.009 505.144 123.775 506.734 124.6 508.383L125.248 509.738C125.542 510.268 125.954 510.739 126.308 511.211C126.602 511.623 126.897 512.094 127.132 512.624C127.368 513.036 127.663 513.449 127.721 513.861C128.016 515.275 128.31 516.688 128.546 518.102L129.489 522.814C129.547 523.05 129.783 523.698 129.96 524.346C130.078 524.64 130.195 524.935 130.254 525.17C130.313 525.288 130.313 525.347 130.372 525.465L130.431 525.583L130.49 525.642C130.49 525.642 130.549 525.701 130.608 525.701H130.667C131.373 525.465 132.139 525.17 132.846 524.935C133.023 524.876 133.258 524.758 133.435 524.699C133.671 524.581 133.906 524.522 134.024 524.522H134.142C135.025 524.817 135.968 525.053 136.851 525.347C140.327 526.348 143.743 527.35 147.218 528.351C147.748 528.528 148.278 528.646 148.808 528.822C148.926 528.881 149.103 528.94 149.339 528.94C149.456 528.94 149.515 528.881 149.633 528.822C150.34 528.115 151.577 527.35 152.578 527.35C152.637 527.35 152.696 527.35 152.755 527.35C152.932 527.35 153.108 527.35 153.285 527.35C153.462 527.35 153.638 527.409 153.756 527.468C153.874 527.526 153.933 527.703 154.051 527.88C154.11 528.115 154.169 528.351 154.227 528.469C154.286 528.646 154.286 528.822 154.286 528.999C154.286 529.47 154.11 529.941 154.051 530.413C153.992 530.589 153.992 531.061 153.992 531.473C153.992 531.65 153.992 531.767 153.992 531.885C153.992 531.944 153.992 532.003 154.051 532.062C154.051 532.121 154.11 532.18 154.169 532.18C154.758 532.474 155.288 532.71 155.936 532.769C156.584 532.887 157.231 532.887 157.703 533.181C158.056 533.417 158.409 533.593 158.822 533.829C158.94 533.888 159.116 533.947 159.234 534.065C159.352 534.123 159.47 534.241 159.529 534.3C159.882 534.83 160.118 535.596 160.412 536.185C160.412 536.244 160.471 536.303 160.471 536.362C160.471 536.597 160.353 536.892 160.235 537.186C160.118 537.481 159.941 537.775 159.882 537.952C159.764 538.306 159.588 538.659 159.47 539.012C159.47 539.071 159.411 539.13 159.411 539.189C159.411 539.307 159.47 539.425 159.529 539.484C159.588 539.542 159.646 539.601 159.646 539.719C159.823 540.073 160.059 540.426 160.235 540.779C160.412 541.074 160.707 541.192 160.883 541.31C161.472 541.722 162.061 542.016 162.65 542.37C163.181 542.664 163.593 543.136 164.005 543.607C164.712 544.314 165.065 545.315 165.36 546.316C165.772 547.671 166.126 549.085 166.832 550.322C166.891 550.38 166.95 550.557 167.009 550.675C167.068 550.793 167.127 550.969 167.304 551.028L168.364 551.794C168.835 552.148 169.424 552.265 169.895 552.501C170.602 552.795 171.368 553.09 172.075 553.385C172.251 553.443 172.428 553.679 172.605 553.974C172.782 554.268 172.899 554.563 173.017 554.739C173.017 554.798 173.076 554.857 173.076 554.975C173.076 555.152 173.017 555.446 172.958 555.623C172.899 556.035 172.84 556.447 172.782 556.86C172.723 557.39 172.428 557.979 172.193 558.509C172.075 558.921 171.839 559.51 171.839 559.982C171.839 560.04 171.839 560.158 171.839 560.217C171.898 560.453 171.898 560.806 171.957 561.16C172.016 561.513 172.075 561.866 172.31 562.102C172.84 562.632 173.312 563.221 173.842 563.751C174.254 564.223 175.02 564.517 175.491 564.812C175.962 565.106 176.492 565.518 177.023 565.754C177.67 566.048 178.377 566.343 179.025 566.638C179.438 566.814 179.968 567.109 180.439 567.227C181.205 567.403 181.97 567.58 182.736 567.757C183.325 567.874 183.914 567.992 184.444 568.169C185.033 568.405 185.622 568.758 186.211 569.111C186.683 569.347 187.213 569.759 187.802 569.877C188.332 569.995 188.921 570.172 189.569 570.172C190.393 570.172 191.218 570.172 192.102 570.172C192.396 570.172 192.691 570.172 192.985 570.172C193.162 570.172 193.338 570.172 193.515 570.231C196.284 570.82 199.052 571.35 201.82 571.939C202.056 571.998 202.292 571.998 202.527 571.998C203.116 571.998 203.705 571.88 204.176 571.88C206.002 571.821 207.887 571.762 209.713 571.762L214.367 571.644H214.484C215.014 571.644 215.309 571.703 215.898 571.939C219.02 573.058 222.142 574.177 225.322 575.296C226.5 575.708 227.737 575.885 228.974 576.121C232.155 576.71 235.395 577.24 238.575 577.829C244.701 578.889 250.768 579.949 256.894 581.01C257.247 581.069 257.542 581.186 257.895 581.304C259.368 581.893 260.84 582.541 262.313 583.13C263.785 583.719 265.317 584.367 266.789 584.956C267.496 585.251 268.203 585.368 268.969 585.545C270.618 585.898 272.208 586.252 273.858 586.605C274.388 586.723 274.977 586.841 275.507 586.959C275.625 586.959 275.743 587.018 275.86 587.018C276.155 587.018 276.332 586.959 276.626 586.9L276.744 586.841V586.723C274.152 581.481 271.325 576.533 268.498 571.585ZM893.803 300.812C893.508 299.457 892.861 298.161 892.33 296.924C892.154 296.689 891.977 296.394 891.8 296.159C891.682 296.041 891.565 295.864 891.447 295.746C891.329 295.629 891.27 295.452 891.27 295.334C891.211 295.157 891.211 294.922 891.211 294.686L890.681 290.504L889.385 280.432C889.267 279.548 889.032 278.959 888.678 278.135C888.207 276.957 887.795 275.837 887.088 274.718C886.44 273.658 885.91 272.421 884.968 271.479C884.32 270.831 883.672 270.242 883.083 269.594C882.67 269.182 882.435 269.123 881.905 268.946C881.139 268.71 880.373 268.416 879.608 268.18C879.195 268.062 878.724 267.709 878.312 267.473C877.723 267.12 877.075 266.767 876.486 266.413C876.309 266.354 876.191 266.119 876.015 265.824C875.897 265.53 875.779 265.294 875.661 265.058C875.072 263.998 874.306 262.997 873.835 261.878C873.246 260.523 872.657 259.168 872.068 257.813C871.773 257.166 871.302 256.635 871.008 256.046C870.831 255.811 870.772 255.575 870.595 255.398C870.478 255.222 870.242 254.986 870.006 254.868C869.123 254.397 868.298 253.867 867.238 253.631C863.881 253.042 860.582 252.453 857.225 251.864C856.341 251.688 855.399 251.629 854.515 251.393C853.926 251.216 853.337 250.804 852.807 250.51C852.336 250.274 851.688 250.038 851.334 249.744C850.804 249.273 850.215 248.801 849.685 248.33C849.273 247.977 848.743 247.623 848.389 247.27C847.506 246.21 846.563 245.208 845.68 244.148C844.973 243.324 844.737 242.087 844.207 241.085C844.09 240.791 843.913 240.437 843.736 240.143C843.5 239.848 843.147 239.613 842.911 239.377C842.794 239.259 842.676 239.2 842.558 239.141C842.44 239.083 842.322 239.083 842.146 239.083C839.024 239.083 835.843 239.083 832.721 239.083C831.072 239.083 829.364 239.083 827.715 239.083C827.361 239.083 826.949 239.024 826.537 239.024C826.242 239.024 825.948 239.024 825.653 239.083C824.534 239.318 823.297 239.436 822.237 239.907C820.764 240.555 819.351 241.203 817.878 241.851C816.759 242.381 815.581 242.911 814.462 243.382C813.932 243.618 813.225 243.677 812.577 243.854C812.106 243.971 811.811 244.03 811.399 244.03C811.34 244.03 811.281 244.03 811.222 244.03C810.044 243.971 808.807 244.03 807.688 243.736C806.039 243.265 804.389 242.793 802.799 242.381C801.916 242.145 801.091 242.028 800.148 241.91C798.44 241.733 796.673 241.556 794.965 241.38C793.846 241.262 792.845 240.614 791.725 240.143C790.783 239.73 789.958 238.847 789.134 238.14C788.074 237.257 787.072 236.255 785.953 235.49C785.364 235.077 784.657 234.783 784.068 234.429C783.538 234.135 783.067 234.076 782.537 233.958C782.007 233.84 781.359 233.605 780.711 233.546C780.122 233.546 779.533 233.487 779.003 233.487C777.471 233.428 775.94 233.428 774.408 233.369C774.29 233.369 774.055 233.251 773.878 233.192C773.466 233.016 772.995 232.839 772.582 232.662C772.17 232.486 771.817 232.191 771.404 231.955C770.344 231.249 769.343 230.542 768.341 229.658C767.752 229.128 767.163 228.598 766.574 228.068C766.162 227.714 765.926 227.125 765.573 226.654C765.278 226.183 765.102 225.653 764.748 225.182C764.336 224.593 763.806 224.062 763.335 223.532C762.922 223.061 762.628 222.708 762.392 222.237C762.039 221.589 761.98 221.235 761.862 220.469C761.803 219.88 761.744 219.291 761.744 218.702C761.744 218.172 761.803 217.583 761.921 217.053C762.157 215.816 762.274 214.52 762.687 213.342C763.099 211.988 763.511 210.633 763.983 209.278C764.218 208.453 764.513 207.688 764.748 206.863C764.807 206.569 764.984 206.274 765.043 205.921C765.161 205.155 765.22 204.33 765.337 203.565C765.337 203.506 765.396 203.27 765.455 202.976C765.514 202.74 765.573 202.445 765.573 202.21C765.573 202.092 765.573 201.915 765.455 201.797C764.984 201.326 764.572 200.678 763.983 200.266C763.452 199.854 762.687 199.618 762.098 199.324C761.685 199.088 761.096 198.911 760.861 198.617C760.331 198.028 759.859 197.439 759.329 196.85C758.976 196.437 758.622 195.848 758.151 195.495C757.621 195.024 757.032 194.553 756.502 194.081C756.384 193.963 756.207 193.787 756.031 193.61C755.854 193.433 755.618 193.316 755.383 193.316C755.324 193.316 755.265 193.316 755.206 193.316C754.381 193.551 753.616 193.787 752.791 194.081C752.614 194.14 752.497 194.14 752.379 194.14C752.202 194.14 752.084 194.081 751.79 193.964C751.142 193.61 750.494 193.257 749.846 192.844C748.432 192.02 746.96 191.195 745.546 190.37C744.545 189.84 743.72 188.957 742.837 188.25C742.483 187.955 742.071 187.72 741.894 187.366C741.541 186.601 741.187 185.835 740.834 185.069C740.127 183.479 738.949 182.242 737.771 181.005C733.059 175.998 728.347 171.051 723.576 166.044C722.81 165.219 721.985 164.395 721.22 163.57C720.984 163.275 720.69 163.04 720.513 162.745L715.388 154.794C714.681 153.733 714.034 152.673 713.327 151.613C713.032 151.201 713.032 150.553 712.914 150.022C712.149 146.606 711.442 143.19 710.676 139.774C710.499 139.067 710.499 138.124 710.146 137.417C709.851 136.77 709.498 136.122 709.204 135.474C709.145 135.356 709.027 135.238 708.909 135.12C708.791 135.002 708.673 134.944 708.615 134.885C708.32 134.59 707.967 134.355 707.672 134.06C707.495 133.942 707.437 133.648 707.319 133.353C707.26 133.059 707.201 132.764 707.142 132.529C706.906 131.822 706.73 131.056 706.494 130.349C706.317 129.76 706.317 129.053 706.2 128.405C705.669 124.871 705.198 121.337 704.668 117.803C704.491 116.507 704.315 115.27 704.138 113.974C704.02 113.091 703.726 112.207 703.549 111.324C703.372 110.676 703.195 109.969 703.078 109.321C702.96 108.791 702.489 108.202 702.253 107.79C701.605 106.612 701.016 105.551 700.192 104.491C699.661 103.784 699.072 103.136 698.719 102.371C698.248 101.428 697.777 100.545 697.305 99.6022L688.588 82.8151C688.117 81.8727 687.41 81.107 686.821 80.2823C686.408 79.7522 686.232 79.4577 685.584 79.1632C685.054 78.8687 684.582 78.7509 683.993 78.5742C683.169 78.3385 682.403 78.1618 681.578 77.9262C681.166 77.8084 680.695 77.3372 680.4 76.9249C680.165 76.5715 679.988 76.1003 679.694 75.6291C679.281 75.04 678.81 74.451 678.398 73.862C677.868 73.1552 677.337 72.3894 676.748 71.6826C676.513 71.3881 676.277 71.0936 676.159 70.7991C675.512 69.621 674.923 68.5019 674.216 67.3828C673.803 66.7348 673.391 66.1458 672.979 65.4979C672.625 64.9678 672.036 64.5555 671.624 64.202C671.447 64.0842 671.271 63.7897 671.094 63.5541C670.858 63.3185 670.623 63.0829 670.387 63.024C669.621 62.7884 668.856 62.4939 668.09 62.2583C667.913 62.1994 667.736 62.1405 667.619 62.0816C667.501 62.0227 667.383 61.9048 667.324 61.787C667.089 61.3747 666.912 60.9624 666.676 60.4912C665.852 58.9008 665.086 57.3694 664.261 55.779C663.496 54.2476 662.73 52.7161 661.964 51.1847C661.728 50.7134 661.552 50.1833 661.139 49.7121C658.901 47.356 656.722 45.0588 654.484 42.7027L651.479 39.522C651.303 39.3453 651.126 39.1686 651.008 39.0508C650.89 38.933 650.773 38.6385 650.714 38.2851C650.655 37.9906 650.655 37.6372 650.596 37.4016C650.36 36.2235 650.301 34.751 649.536 33.6907C648.888 32.7483 648.24 31.688 647.356 30.8634C646.06 29.6854 644.824 28.4484 643.528 27.2704C643.056 26.8581 642.644 26.4457 642.291 25.9745C638.344 20.9089 634.457 15.8434 630.51 10.8367C629.98 10.1888 629.509 9.54083 628.979 8.8929C628.861 8.7162 628.625 8.59839 628.508 8.48059L626.623 6.89023C625.916 6.30121 625.209 5.71219 624.502 5.12316C624.208 4.88756 623.913 4.53414 623.56 4.35744C622.264 3.65061 620.909 2.88488 619.613 2.17806C618.907 1.76574 618.318 1.29452 617.67 0.764404L617.257 1.00001L617.14 1.05892C615.726 3.53281 614.312 5.94779 612.899 8.42169C611.956 10.012 611.131 11.6024 610.071 13.1339C608.128 15.9023 606.125 18.6118 604.181 21.3802C603.239 22.7349 602.237 24.0897 601.295 25.4444C601 25.8567 600.706 26.269 600.411 26.6814C600.352 26.7992 600.176 26.917 600.117 27.0937C598.35 32.5716 596.524 38.0495 594.757 43.5863C594.05 45.7068 592.872 47.7094 591.87 49.7121C591.399 50.6545 590.457 51.4792 589.75 52.3627C589.161 53.0106 588.69 53.7174 587.983 54.1887C585.273 56.0146 582.564 57.8406 579.796 59.7255C578.146 60.8446 576.438 61.8459 574.966 63.2596C572.786 65.2623 570.607 67.2649 568.427 69.2676C568.133 69.5621 567.603 69.7388 567.19 70.0333C566.425 70.5046 565.6 70.9758 564.834 71.447C564.245 71.8004 563.774 71.9182 563.126 72.0949C559.828 72.8606 556.529 73.6264 553.231 74.3921C551.699 74.7455 550.168 75.0989 548.636 75.4523C548.047 75.5702 547.458 75.6291 546.928 76.0414C545.573 76.9249 544.219 77.8084 542.923 78.7509C542.746 78.8687 542.628 78.9865 542.569 79.1043C542.51 79.2221 542.452 79.3988 542.393 79.5166C542.039 80.2823 541.627 81.1069 541.274 81.8727C540.861 82.6973 540.39 83.5808 540.095 84.5233L538.976 88.1163C537.975 91.3559 536.974 94.5366 535.972 97.7763C535.913 98.0119 535.855 98.3653 535.737 98.4831C535.678 98.6009 535.442 98.7187 535.266 98.8365C534.853 99.0721 534.5 99.3077 534.087 99.5433C533.557 99.8967 532.968 100.368 532.438 100.545C532.379 100.545 532.32 100.604 532.262 100.604C532.144 100.604 531.967 100.545 531.849 100.545C531.437 100.486 530.966 100.427 530.553 100.368C530.141 100.309 529.729 100.25 529.257 100.191C529.257 100.191 529.14 100.191 529.022 100.132C528.904 100.132 528.786 100.073 528.727 100.073H528.668C528.668 100.073 528.61 100.073 528.551 100.132C528.315 100.368 528.079 100.662 527.903 100.898C527.844 100.957 527.726 101.075 527.549 101.193C527.49 101.251 527.432 101.31 527.373 101.369C527.314 101.428 527.255 101.487 527.255 101.605C527.019 102.724 526.901 103.902 526.548 104.962C526.312 105.787 526.018 106.612 525.782 107.436C525.664 107.907 525.547 108.202 525.311 108.555C524.486 109.674 523.721 110.735 522.66 111.559C522.189 111.913 521.659 112.266 521.306 112.796C521.07 113.15 520.835 113.503 520.599 113.857C520.54 113.974 520.363 114.151 520.304 114.387C520.245 115.211 520.187 115.977 520.128 116.802C520.128 117.155 520.01 117.567 520.01 117.921C520.01 118.039 520.01 118.156 520.069 118.274C520.304 119.511 520.481 120.925 520.893 122.162L521.659 124.4C521.659 124.459 521.718 124.577 521.718 124.636C521.718 125.107 521.365 125.814 521.247 126.285C521.188 126.579 521.07 126.697 520.893 126.874C520.717 126.992 520.54 127.168 520.245 127.345C519.48 127.875 518.773 128.346 518.007 128.877C517.124 129.466 516.063 129.701 515.003 130.055C514.12 130.349 513.295 130.644 512.411 130.938C512.058 131.056 511.646 131.292 511.292 131.292C510.291 131.409 509.29 131.527 508.347 131.645C505.225 132.057 502.104 132.411 498.982 132.823H498.805C498.511 132.823 498.275 132.764 497.98 132.705C497.274 132.587 496.567 132.529 495.919 132.352C495.094 132.116 494.329 131.586 493.504 131.233C490.441 129.819 487.378 128.346 484.315 126.933C484.256 126.874 484.138 126.815 484.021 126.756C483.903 126.697 483.785 126.638 483.608 126.638C482.843 126.579 482.077 126.521 481.311 126.462C481.252 126.462 481.134 126.462 481.076 126.462C480.604 126.462 480.251 126.638 479.78 126.815C479.25 127.051 478.543 127.227 478.013 127.581C476.776 128.464 475.598 129.348 474.361 130.231C473.889 130.526 473.477 130.879 473.006 131.174C472.947 131.233 472.829 131.233 472.653 131.233H472.535H472.476C472.005 131.233 471.592 131.233 471.121 131.233C470.827 131.233 470.473 131.292 470.179 131.292C469.884 131.292 469.648 131.233 469.472 131.115C468.824 130.644 468.176 130.114 467.469 129.642C466.586 128.994 466.055 128.229 465.408 127.345C464.465 126.108 463.523 124.871 462.58 123.634C462.404 123.458 462.109 123.34 461.873 123.281C461.579 123.222 461.284 123.163 461.167 123.104C460.636 122.927 459.989 122.633 459.341 122.574L451.212 122.103C449.504 121.985 447.737 121.867 446.029 121.808C445.381 121.749 444.556 121.867 443.967 121.632C442.495 121.16 441.081 120.63 439.608 120.159C438.96 119.923 438.313 119.511 437.724 119.158C434.72 117.508 431.716 115.859 428.77 114.151C428.005 113.739 427.475 113.268 426.768 112.62L425.236 111.206C425.118 111.088 425.001 110.853 424.883 110.558C424.765 110.264 424.706 109.969 424.647 109.792C424.353 108.968 423.999 108.084 423.705 107.26C423.587 106.965 423.469 106.67 423.469 106.435C423.469 105.021 423.469 103.608 423.469 102.194C423.469 100.486 423.469 98.7776 423.41 97.1283C423.41 96.127 423.234 95.1846 423.057 94.2421C422.939 93.4764 422.821 92.7107 422.703 91.886C422.586 91.297 422.173 90.8258 421.997 90.4135C421.408 89.3533 420.701 88.5286 419.935 87.6451C418.934 86.467 417.874 85.2301 416.872 84.0521C416.578 83.6986 416.46 83.1685 416.224 82.6973C415.989 82.1672 415.812 81.696 415.635 81.1659C415.459 80.5179 415.223 79.9289 414.987 79.281C414.869 79.0454 414.752 78.692 414.575 78.3974C414.398 78.1029 414.045 77.8673 413.868 77.6906C412.867 76.6893 411.689 75.9825 410.57 75.2167C410.393 75.0989 410.275 74.8633 410.157 74.5688C410.04 74.2743 409.981 73.9798 409.863 73.7442C409.627 73.2141 409.333 72.625 409.215 72.0949C408.979 70.9169 408.861 69.621 408.449 68.5019C408.155 67.6773 407.86 66.8526 407.566 66.028C407.389 65.4979 407.094 65.2623 406.741 64.85C406.211 64.2609 405.681 63.6719 405.151 63.0829C405.033 62.9651 404.915 62.9651 404.856 62.9651C404.738 62.9651 404.679 62.9651 404.621 62.9062C404.149 62.7884 403.678 62.7295 403.266 62.6117C403.03 62.5528 402.795 62.5528 402.618 62.5528C402.323 62.5528 402.029 62.6117 401.617 62.7295C401.027 62.8473 400.38 62.9062 399.791 63.2007C398.73 63.6719 397.67 64.2609 396.61 64.4376C394.961 64.7322 393.252 65.0267 391.603 65.3212C391.368 65.3801 391.132 65.439 390.955 65.439C390.779 65.439 390.661 65.3801 390.543 65.2034C390.131 64.5554 389.718 63.8486 389.306 63.2007C389.011 62.6706 388.599 62.1994 388.364 61.6692C388.187 61.2569 388.128 60.7268 388.01 60.2556C387.657 58.783 387.244 57.3105 386.891 55.8968C386.832 55.7201 386.714 55.4845 386.596 55.3078C386.479 55.1311 386.302 54.9544 386.243 54.8366C385.713 54.0709 385.242 53.3051 384.712 52.5394C384.299 51.8915 383.828 51.1847 383.416 50.5367C383.298 50.36 383.18 50.1244 382.945 49.9477C380.588 48.0628 378.173 46.178 375.817 44.2931C375.582 44.1164 375.405 43.8808 375.169 43.5863C374.639 42.9384 374.109 42.2904 373.579 41.5836C372.99 40.8179 372.754 39.5809 372.46 38.5796C372.342 38.0495 372.224 37.3426 371.989 36.6947C371.753 36.0468 371.459 35.3989 370.811 35.1044C370.281 34.8688 369.809 34.5742 369.161 34.5153L366.57 34.2797C365.568 34.1619 364.39 34.0441 363.566 33.5729C362.682 33.0428 361.681 32.6305 360.915 31.9236C358.441 29.7443 355.908 27.6238 353.435 25.4444C352.728 24.7965 351.962 24.2075 351.255 23.5595C350.843 23.2061 350.489 22.4993 350.136 21.9692C349.841 21.498 349.606 21.2035 349.488 20.7322C349.135 19.672 348.781 18.6707 348.546 17.6104C348.192 15.8434 347.839 14.1352 347.427 12.3681C347.191 11.249 346.896 10.1888 346.543 9.12851C346.484 9.01071 346.425 8.9518 346.366 8.9518C346.307 8.9518 346.248 8.9518 346.131 8.9518C345.954 8.9518 345.777 9.01071 345.659 9.01071C345.542 9.01071 345.483 9.06961 345.483 9.12851C345.424 9.18741 345.306 9.30522 345.247 9.36412C345.188 9.42302 345.129 9.54083 345.129 9.54083C344.54 10.1888 344.01 10.7778 343.421 11.4257C342.655 12.2503 341.595 12.9572 340.712 13.664C340.594 13.7818 340.358 13.8407 340.123 13.8996C339.887 13.9585 339.593 13.9585 339.416 14.0174C338.532 14.253 337.59 14.4297 336.706 14.6653C335.528 14.9598 334.468 15.2543 333.29 15.7256C333.113 15.7845 332.819 15.9023 332.524 15.9612C332.23 16.079 331.935 16.1968 331.759 16.3735C331.287 16.7858 330.875 17.257 330.404 17.6693C329.344 18.6707 328.283 19.672 327.223 20.6733C326.811 21.0857 326.222 21.3802 325.692 21.7336C325.22 22.087 324.808 22.4993 324.337 22.4993C323.512 22.5582 322.688 22.5582 321.863 22.6171C321.627 22.6171 321.451 22.4993 321.215 22.3226C320.979 22.1459 320.803 21.9692 320.567 21.7925C319.978 21.3802 319.448 20.9089 318.859 20.4966C318.8 20.4377 318.741 20.3788 318.741 20.3199C318.682 20.2021 318.682 20.1432 318.682 20.0254C318.564 19.6131 318.447 19.1419 318.329 18.7296C318.152 18.1994 317.858 17.4926 317.858 17.0214V16.9625C317.858 16.5502 317.917 16.079 317.917 15.6667L318.211 10.3066C318.211 9.89424 318.27 9.42302 318.27 9.01071C318.27 8.7751 318.152 8.59839 318.152 8.48059C318.034 8.00937 317.917 7.59705 317.799 7.12584C317.681 6.71352 317.622 6.36011 317.504 5.94779C317.504 5.88889 317.504 5.82999 317.445 5.71219C317.445 5.59438 317.386 5.47658 317.269 5.41768C316.562 5.00536 315.855 4.65195 315.207 4.23963C314.854 4.00402 314.559 4.00402 314.147 4.00402C313.322 3.94512 312.439 3.82732 311.614 3.76841C310.73 3.70951 309.847 3.59171 308.963 3.53281C308.669 3.53281 308.374 3.4739 308.08 3.4739C308.021 3.4739 307.962 3.4739 307.903 3.4739L305.547 3.65061C305.135 3.65061 304.722 3.76841 304.31 3.76841C304.192 3.76841 304.075 3.76841 303.957 3.70951C303.191 3.53281 302.484 3.3561 301.718 3.17939C301.542 3.12049 301.424 3.06159 301.247 3.06159C301.188 3.06159 301.071 3.06159 301.012 3.17939C300.953 3.2383 300.894 3.2972 300.894 3.415C299.598 6.36011 298.302 9.36412 296.947 12.3092C296.594 13.075 296.299 13.8996 295.946 14.6653C295.18 15.9612 294.473 17.257 293.708 18.6118C292.471 20.7911 290.822 22.7349 289.29 24.7376C288.524 25.7978 287.7 26.7992 286.934 27.8594C286.639 28.2128 286.227 28.5662 285.874 28.8607C285.461 29.2731 285.108 29.7443 284.637 29.9799C283.93 30.3333 283.223 30.7456 282.516 31.099C282.104 31.3346 281.574 31.2757 281.103 31.3346C280.514 31.3935 279.866 31.5702 279.277 31.5702C279.218 31.5702 279.159 31.5702 279.1 31.5702C278.688 31.5702 278.275 31.3935 277.804 31.3346C276.096 30.9812 274.447 30.6867 272.739 30.3333C272.503 30.2744 272.267 30.2744 272.032 30.2744C271.089 30.2744 270.206 30.51 269.322 30.6867C269.204 30.6867 269.087 30.8045 268.969 30.8634C268.792 30.9812 268.674 31.2168 268.498 31.3935C268.38 31.5702 268.262 31.7469 268.144 31.8647C267.614 32.4538 267.143 33.0428 266.613 33.6318C266.495 33.8085 266.436 33.9852 266.436 34.2208C266.436 34.4564 266.377 34.6331 266.377 34.751C266.2 35.6345 266.083 36.518 265.906 37.4016C265.788 38.2262 265.611 38.9919 265.494 39.8165C265.435 40.0521 265.435 40.2289 265.435 40.4645V40.5234C265.494 41.9959 265.553 43.4685 265.611 44.941C265.67 46.5314 265.729 48.1806 265.788 49.771C265.847 50.5956 266.083 51.3614 266.259 52.1271C266.731 53.8942 267.143 55.6612 267.614 57.4283C267.732 57.8995 267.85 58.3707 267.967 58.783C268.026 58.9008 268.085 59.0186 268.203 59.0775C268.321 59.1954 268.557 59.3132 268.733 59.431C268.91 59.5488 269.087 59.6666 269.146 59.7255C269.852 60.2556 270.559 60.8446 271.266 61.3747C271.443 61.4925 271.561 61.6103 271.737 61.7281L271.855 61.787C271.914 61.787 271.914 61.787 271.973 61.787C272.032 61.7281 272.091 61.7281 272.15 61.6692C272.385 61.4925 272.68 61.1391 272.739 61.1391C272.974 60.9035 273.151 60.609 273.21 60.2556C273.328 59.9022 273.386 59.5488 273.504 59.3132C273.681 58.783 274.093 58.2529 274.447 57.7228C274.506 57.605 274.682 57.4872 274.918 57.4283C275.154 57.3694 275.448 57.3694 275.743 57.3694C275.86 57.3694 275.919 57.3694 276.037 57.3694C276.155 57.3694 276.273 57.3694 276.332 57.3694C276.449 57.3694 276.567 57.3694 276.685 57.3694C276.803 57.3694 276.862 57.3694 276.921 57.4283C276.98 57.4283 277.038 57.4872 277.038 57.605C277.156 57.8995 277.274 58.2529 277.392 58.6063C277.51 59.0186 277.804 59.3721 277.981 59.6666C278.452 60.4323 278.864 61.2569 279.336 62.0227C279.748 62.7295 280.16 63.4952 280.573 64.202C280.69 64.4376 280.926 64.6733 280.926 64.9089C281.162 66.2636 281.456 67.6773 281.692 69.032C281.986 70.5635 282.281 72.0949 282.575 73.5675C282.811 74.7455 283.341 75.9236 283.694 77.0427C283.812 77.3961 283.93 77.8673 284.225 78.2207L285.874 80.1645C286.109 80.459 286.345 80.8713 286.698 81.1069C287.111 81.4015 287.582 81.696 287.994 81.9905L292.648 84.9945C293.59 85.5835 294.415 86.1136 295.475 86.5849C296.005 86.8205 296.535 86.9383 297.124 87.0561C297.772 87.1739 298.656 87.2328 299.186 87.5273C299.421 87.6451 299.716 87.9985 300.01 88.1752C300.599 88.7053 301.247 89.2354 301.836 89.7656C303.132 90.8847 304.428 92.0039 305.783 93.1819C306.313 93.5942 306.607 93.7709 307.255 94.0065C310.436 95.2435 313.676 96.4804 316.856 97.6585C318.741 98.3653 320.508 99.0132 322.275 99.9556C323.866 100.839 325.456 101.723 327.046 102.606C327.459 102.842 327.871 103.077 328.283 103.254C328.401 103.313 328.519 103.49 328.637 103.725C328.755 103.961 328.813 104.197 328.872 104.373C329.52 105.728 330.109 107.024 330.757 108.379C330.757 108.438 330.816 108.438 330.875 108.438H330.934C330.993 108.438 330.993 108.438 331.052 108.379C331.405 108.202 332.642 107.672 332.76 107.613L332.878 107.554C333.054 107.554 333.231 107.672 333.408 107.849C333.702 108.025 334.115 108.202 334.35 108.438C334.763 108.85 335.057 109.557 335.41 110.087C335.705 110.617 336.294 111.029 336.647 111.383C337.354 112.148 338.12 112.855 338.768 113.739C339.769 115.152 340.771 116.566 341.772 117.98C342.361 118.804 343.127 119.629 343.421 120.512C343.716 121.278 344.01 122.044 344.305 122.81C344.364 122.927 344.364 122.986 344.364 123.045C344.364 123.222 344.246 123.34 344.069 123.458C343.892 123.575 343.598 123.575 343.362 123.575C343.303 123.575 343.244 123.575 343.127 123.575C342.95 123.575 342.832 123.517 342.714 123.517C342.597 123.517 342.42 123.575 342.302 123.752C342.008 124.106 341.772 124.459 341.477 124.812C341.301 124.989 341.242 125.284 341.242 125.637C341.183 125.931 341.183 126.226 341.183 126.462C341.183 126.579 341.183 126.638 341.183 126.756C341.183 127.227 341.183 127.757 341.183 128.229C341.183 128.994 341.124 129.701 341.006 130.408C340.712 131.704 339.946 132.529 339.062 133.471C338.238 134.296 337.472 135.061 337.178 136.239C336.824 137.771 336.471 139.243 336.117 140.775C336 141.128 336.058 141.541 336 141.894C335.941 142.778 335.882 143.72 335.764 144.603C335.705 145.664 335.646 146.724 335.469 147.784C335.175 149.433 334.939 151.083 334.645 152.732C334.586 152.909 334.586 153.144 334.586 153.38C334.586 153.616 334.527 153.851 334.409 153.969C334.056 154.499 333.702 155.029 333.349 155.559C332.878 156.266 332.406 156.973 331.935 157.739C331.759 157.974 331.641 158.092 331.523 158.151C331.346 158.21 331.17 158.269 330.875 158.328C330.168 158.445 329.402 158.622 328.696 158.74H328.637C328.46 158.74 328.283 158.681 328.048 158.622C327.576 158.504 327.105 158.387 326.634 158.328C326.104 158.21 325.633 158.092 325.103 158.092C324.631 158.092 324.219 158.033 323.748 158.033C323.689 158.033 323.63 158.033 323.512 157.974C323.394 157.974 323.277 157.915 323.159 157.915C323.1 157.915 323.041 157.915 322.923 157.974C322.334 158.387 321.745 158.799 321.156 159.152C320.803 159.388 320.214 159.624 319.978 160.095C319.389 161.273 318.741 162.392 318.388 163.688C318.211 164.454 318.034 165.16 317.858 165.926C317.74 166.456 317.21 167.045 316.915 167.575C316.856 167.693 316.797 167.811 316.68 167.988C316.621 168.105 316.503 168.223 316.444 168.223C316.267 168.282 315.973 168.282 315.678 168.282C314.854 168.341 314.029 168.4 313.204 168.459H313.145C312.969 168.459 312.674 168.341 312.439 168.164C312.203 167.988 311.909 167.811 311.732 167.693C311.496 167.575 311.202 167.458 310.907 167.281C310.613 167.163 310.377 166.986 310.2 166.81C309.317 165.69 308.433 164.571 307.55 163.511C306.843 162.628 306.195 161.685 305.311 160.978C304.722 160.507 304.133 160.036 303.544 159.506C303.427 159.388 303.25 159.329 303.073 159.329C302.896 159.27 302.72 159.27 302.602 159.211C300.894 158.74 299.186 158.21 297.477 157.739C296.771 157.503 296.005 157.326 295.298 157.091C295.004 157.032 294.768 156.973 294.532 156.855C293.826 156.502 293.119 156.089 292.412 155.736C292.058 155.559 291.646 155.383 291.352 155.147C288.996 153.144 286.639 151.201 284.283 149.198C283.635 148.668 282.87 148.138 282.34 147.549C281.338 146.371 280.337 145.251 279.336 144.073C278.57 143.19 277.863 142.365 276.98 141.599C276.626 141.305 276.332 141.01 275.978 140.716C275.919 140.657 275.86 140.598 275.743 140.48C275.684 140.421 275.566 140.304 275.448 140.245C274.682 140.009 273.976 139.773 273.21 139.538C272.915 139.42 272.562 139.42 272.267 139.42C271.619 139.42 270.972 139.538 270.441 139.538C268.557 139.597 266.731 139.715 264.846 139.774L262.725 139.832H262.607C262.548 139.832 262.49 139.832 262.372 139.832C262.195 139.832 262.077 139.832 261.901 139.891C261.135 140.068 260.369 140.304 259.603 140.48C259.25 140.598 258.955 140.598 258.602 140.834C256.246 142.483 253.831 144.132 251.475 145.782C251.063 146.076 250.474 146.194 249.943 146.429C249.413 146.665 248.883 147.018 248.412 147.077C247.646 147.195 246.881 147.254 246.115 147.372C245.702 147.431 245.29 147.549 244.937 147.549C244.878 147.549 244.819 147.549 244.76 147.549C243.229 147.431 241.756 147.254 240.225 147.136C239.341 147.077 238.34 147.136 237.515 146.842L230.624 144.603C227.089 143.484 223.496 142.306 219.962 141.187L216.369 140.009C215.957 139.891 215.545 139.773 215.25 139.597C212.423 138.006 209.654 136.416 206.827 134.826C206.179 134.472 205.413 134.119 204.883 133.707C203.705 132.764 202.527 131.822 201.349 130.879C200.701 130.349 200.053 129.819 199.405 129.289C199.17 129.112 198.816 128.877 198.64 128.7C197.815 127.463 196.99 126.285 196.107 125.048C195.753 124.518 195.341 123.929 194.988 123.399C194.929 123.281 194.87 123.222 194.87 123.163C194.87 122.986 195.106 122.692 195.282 122.456C196.166 121.219 197.108 120.041 197.992 118.804C198.11 118.628 198.404 118.51 198.699 118.392C198.993 118.274 199.346 118.215 199.582 118.098C200.171 117.862 200.819 117.626 201.467 117.332C202.115 117.037 202.645 116.625 203.234 116.33C203.293 116.272 203.293 116.213 203.293 116.154L203.175 115.506L203.057 115.388C202.822 115.27 202.527 115.211 202.292 115.093C201.29 114.74 200.289 114.269 199.17 114.092C197.521 113.798 195.812 113.503 194.163 113.268C192.337 112.973 190.57 112.737 188.862 112.148C185.799 111.088 182.736 110.028 179.614 108.909C176.492 107.79 173.312 106.729 170.19 105.61C169.66 105.434 169.012 105.316 168.541 105.021C168.187 104.786 167.834 104.432 167.48 104.079C166.774 103.431 166.067 102.842 165.36 102.194C164.535 101.487 163.711 100.78 162.945 99.9556C162.415 99.4255 161.944 98.8954 161.413 98.3064C161.355 98.2475 161.296 98.2475 161.178 98.1886C161.06 98.1886 160.942 98.1297 160.824 98.1297C160.707 98.1297 160.589 98.1297 160.53 98.1297C160.177 98.0708 159.764 98.0119 159.411 97.953H159.352C159.234 97.953 159.175 98.0119 159.116 98.0119C159.057 98.0119 158.998 98.0708 158.94 98.0708C158.586 98.1886 158.174 98.3064 157.82 98.4242C156.996 98.7187 156.112 99.0132 155.288 99.3077C154.169 99.6611 152.99 99.72 151.812 99.8967C151.754 99.8967 151.636 99.8967 151.577 99.8967C151.106 99.8967 150.634 99.7789 150.163 99.6611C149.751 99.6022 149.339 99.6022 148.985 99.4255C147.748 98.8365 146.452 98.2475 145.215 97.6585C143.625 96.8927 141.976 96.127 140.385 95.3613C140.032 95.1846 139.62 95.0079 139.266 94.8312C139.09 94.7723 138.913 94.7134 138.736 94.7134C138.442 94.7134 138.147 94.7722 137.97 94.7722C137.087 94.7722 136.144 94.7134 135.261 94.7134C135.143 94.7134 135.025 94.7134 134.908 94.7134C134.672 94.7134 134.436 94.7133 134.142 94.8312C132.728 95.3613 131.373 95.8914 129.96 96.4804C129.783 96.5393 129.665 96.6571 129.547 96.7749C129.43 96.8927 129.312 97.0105 129.253 97.0694C128.605 97.5996 128.016 98.1886 127.368 98.7187L112.407 111.972C107.4 116.389 102.394 120.866 97.3868 125.284C97.3279 125.342 96.68 125.873 96.0321 126.403C95.7376 126.697 95.3842 126.933 95.2075 127.168C95.0896 127.286 94.9718 127.345 94.9129 127.463L94.854 127.581L94.7951 127.64V127.757V127.816C96.1499 130.408 97.4457 132.941 98.8005 135.533C99.3895 136.593 99.9196 137.712 100.509 138.772C100.568 138.831 100.568 138.949 100.568 139.008C100.568 139.243 100.45 139.538 100.332 139.832C100.037 140.716 99.8018 141.541 99.5073 142.424C99.4484 142.66 99.3895 142.836 99.2717 143.072V143.131C99.2717 143.249 99.3306 143.425 99.3895 143.543C99.4484 143.661 99.5073 143.779 99.5073 143.838C99.6251 144.073 99.684 144.427 99.8018 144.721C99.9196 145.016 100.096 145.31 100.391 145.428C100.98 145.664 101.746 146.135 102.452 146.253C102.57 146.253 102.629 146.253 102.747 146.253C103.041 146.253 103.336 146.194 103.513 146.194C105.28 146.135 107.047 146.076 108.814 146.017C109.58 146.017 110.345 145.958 111.17 145.958C111.406 145.958 111.641 145.899 111.818 145.899C111.936 145.899 111.995 145.899 112.112 145.958C113.114 146.253 114.292 146.371 115.057 146.96L118.945 149.787C120.123 150.67 121.301 151.495 122.538 152.379C122.774 152.555 122.95 152.85 123.186 153.144C123.657 153.792 124.187 154.499 124.659 155.147C124.776 155.324 124.835 155.559 124.894 155.854C124.894 156.148 124.894 156.443 124.953 156.678C125.012 157.091 125.012 157.562 125.071 157.974C125.071 158.092 125.13 158.269 125.13 158.387C125.13 158.504 125.071 158.622 125.012 158.681C124.717 158.976 124.246 159.27 123.893 159.565L121.655 161.332C121.124 161.744 120.653 162.097 120.123 162.51C120.005 162.628 119.887 162.628 119.711 162.628C119.652 162.628 119.534 162.628 119.475 162.628C118.12 162.628 116.707 162.628 115.352 162.569C112.171 162.569 109.049 162.51 105.869 162.51C105.81 162.51 105.751 162.51 105.692 162.51L105.574 162.628C105.515 162.686 105.515 162.745 105.515 162.804C105.515 162.863 105.515 162.922 105.456 162.981C105.28 163.806 105.103 164.571 104.926 165.396L104.396 167.87C104.337 168.047 104.337 168.164 104.337 168.341C104.337 168.459 104.337 168.518 104.396 168.636C104.455 168.753 104.514 168.812 104.573 168.989C105.044 169.696 105.515 170.462 105.987 171.168C106.281 171.64 106.634 171.757 107.047 172.052C107.754 172.523 108.46 172.935 109.167 173.348C109.521 173.524 109.933 173.583 110.286 173.583C110.404 173.583 110.581 173.583 110.699 173.583C110.817 173.583 110.875 173.583 110.993 173.583C111.052 173.583 111.17 173.583 111.288 173.642C111.406 173.642 111.523 173.701 111.641 173.701C111.7 173.701 111.818 173.701 111.877 173.642C111.995 173.583 111.995 173.524 112.053 173.407C112.112 173.289 112.171 173.112 112.171 172.935C112.23 172.759 112.23 172.641 112.23 172.582C112.407 172.052 112.584 171.581 112.642 170.992C112.701 170.108 112.76 169.283 112.878 168.4C112.878 168.282 112.878 168.105 112.937 168.047C112.937 167.929 112.996 167.87 113.055 167.811L113.173 167.752C113.349 167.752 113.585 167.87 113.762 167.988C114.41 168.341 115.116 168.636 115.764 168.989C116.059 169.107 116.353 169.519 116.589 169.814C117.826 171.051 119.063 172.229 120.3 173.466C121.183 174.29 122.302 174.82 123.304 175.35C124.364 175.939 125.189 177 126.072 177.883C126.484 178.296 126.956 178.59 127.368 178.943C127.486 179.061 127.721 179.297 127.957 179.474C128.193 179.65 128.428 179.886 128.723 179.886L133.435 180.239C134.377 180.298 135.261 180.298 136.144 180.652C137.735 181.241 139.384 181.83 140.974 182.478C141.269 182.595 141.681 182.831 142.094 182.89C142.859 183.008 143.625 183.067 144.391 183.184C144.626 183.184 144.862 183.302 145.098 183.302C145.274 183.302 145.392 183.302 145.569 183.184C146.099 182.89 146.629 182.595 147.159 182.301C148.75 181.417 150.399 180.593 151.989 179.709C152.46 179.474 152.873 179.238 153.344 179.002C153.638 178.826 154.11 178.826 154.463 178.767C155.347 178.649 156.23 178.531 157.055 178.354C157.173 178.354 157.29 178.296 157.408 178.296C157.585 178.296 157.644 178.296 157.703 178.354C157.762 178.413 157.82 178.531 157.879 178.708L158.822 183.008C158.822 183.067 158.822 183.125 158.822 183.184C158.822 183.538 158.645 184.009 158.586 184.362C158.409 185.305 158.292 186.188 158.115 187.131C157.997 187.779 157.879 188.427 157.762 189.134C157.762 189.31 157.82 189.428 157.938 189.546C158.056 189.723 158.292 189.958 158.468 190.076C158.645 190.253 158.822 190.37 158.94 190.488C159.175 190.724 159.352 190.901 159.529 190.959C159.705 191.077 159.941 191.136 160.294 191.195C161.119 191.372 161.944 191.549 162.768 191.784C163.122 191.843 163.475 192.196 163.828 192.432C164.535 192.962 165.301 193.551 166.008 194.081C166.715 194.611 167.245 195.083 167.775 195.731C168.894 197.085 170.013 198.44 171.191 199.795C172.016 200.796 172.84 201.739 173.665 202.74C174.019 203.152 174.431 203.506 174.843 203.859C175.02 203.977 175.197 204.271 175.432 204.507C175.668 204.743 175.903 204.978 176.198 205.037C176.964 205.273 177.788 205.508 178.554 205.744C179.084 205.862 179.555 205.862 180.027 205.921C180.792 205.921 181.617 205.98 182.383 205.98C182.618 205.98 182.913 206.097 183.207 206.274C183.502 206.451 183.796 206.627 184.091 206.745C184.326 206.863 184.621 206.981 184.857 207.099C185.092 207.216 185.269 207.393 185.269 207.629C185.328 208.453 185.446 209.219 185.504 210.044C185.563 210.456 185.563 210.868 185.622 211.281C185.622 211.457 185.681 211.634 185.681 211.752C185.681 211.811 185.681 211.87 185.681 211.929C185.622 212.282 185.446 212.635 185.328 212.989C184.798 214.697 184.268 216.464 183.737 218.172C183.443 219.115 183.325 219.88 182.736 220.587L179.555 224.416C179.261 224.828 178.731 225.005 178.259 225.241C172.958 228.009 167.657 230.836 162.356 233.605C162.12 233.722 161.944 233.958 161.826 234.076C161.237 234.606 160.589 235.136 160 235.725C158.94 236.668 157.879 237.61 156.819 238.552C156.642 238.67 156.584 238.906 156.466 239.083C156.407 239.259 156.289 239.495 156.23 239.613C155.818 240.437 155.405 241.203 154.993 242.028C154.581 242.793 154.169 243.559 153.815 244.325C153.756 244.384 153.697 244.56 153.579 244.737C153.462 244.914 153.403 245.032 153.403 245.267C153.462 246.74 153.521 248.153 153.579 249.626C153.638 250.51 153.638 251.334 153.697 252.218V252.277C153.697 252.394 153.697 252.63 153.697 252.866C153.697 253.042 153.697 253.219 153.756 253.337C154.463 254.692 155.111 255.987 155.818 257.342C156.053 257.755 156.348 257.99 156.642 258.285C157.29 258.874 157.938 259.463 158.527 260.052C159.47 260.935 160.648 261.642 161.649 262.408C161.944 262.643 162.179 262.938 162.474 263.232C163.063 263.88 163.652 264.587 164.241 265.235C164.889 265.942 165.183 267.061 165.301 268.004C165.419 268.887 165.478 269.712 165.596 270.595C165.654 271.066 165.654 271.597 165.831 272.127C165.89 272.362 166.008 272.716 166.126 273.069C166.243 273.423 166.361 273.776 166.597 274.012C166.95 274.424 167.363 275.013 167.893 275.366L169.895 276.603C170.308 276.839 170.897 277.074 171.073 277.428C172.428 279.725 173.606 282.081 174.843 284.496C175.609 285.969 176.316 287.382 177.081 288.855C177.376 289.503 177.729 289.797 178.259 290.21L185.799 296.748C186.624 297.455 187.625 297.867 188.626 298.397C191.218 299.752 193.81 301.107 196.401 302.461C202.881 305.878 209.419 309.235 215.898 312.651L221.022 315.302C221.435 315.479 221.67 315.832 222.024 316.185C223.261 317.481 224.498 318.718 225.735 320.014C226.265 320.544 226.795 321.133 227.325 321.663C227.384 321.722 227.502 321.899 227.62 321.958C227.737 322.076 227.855 322.194 228.091 322.194C228.915 322.194 229.681 322.252 230.506 322.252C231.095 322.252 231.684 321.899 232.155 321.781C232.685 321.604 233.274 321.31 233.804 321.251C234.57 321.192 235.336 321.074 236.101 321.015C236.337 321.015 236.573 320.957 236.749 320.957C237.044 320.957 237.221 321.015 237.574 321.133C238.222 321.428 238.929 321.663 239.459 322.017C239.989 322.429 240.519 322.959 241.049 323.43C241.344 323.666 241.638 323.902 241.815 324.196C242.875 325.492 243.935 326.788 244.996 328.084C245.29 328.437 245.644 328.732 245.702 329.144C245.879 329.792 245.997 330.44 246.056 331.147C246.056 331.323 246.056 331.441 246.056 331.618C246.056 332.266 245.938 332.855 245.82 333.503C245.231 336.86 244.642 340.218 243.994 343.575C243.877 344.282 243.759 344.93 243.523 345.637C243.229 346.461 242.934 347.345 242.64 348.169C242.463 348.699 242.345 349.23 242.109 349.701C241.874 350.172 241.52 350.584 241.226 351.056L239.753 353.235C239.105 354.177 238.045 354.943 237.162 355.768C236.808 356.121 236.337 356.416 236.16 356.946C236.043 357.358 235.866 357.829 235.807 358.301L235.041 363.072C234.864 364.309 234.629 365.546 234.452 366.782C234.334 367.371 233.922 368.019 233.628 368.608C233.392 369.139 232.921 369.492 232.45 369.904C232.273 370.081 232.096 370.258 231.86 370.493C231.684 370.67 231.448 370.847 231.271 370.847C230.8 370.906 230.329 370.965 229.858 371.023C228.032 371.259 226.206 371.495 224.439 371.73C223.379 371.848 222.201 372.143 221.14 372.201C220.61 372.201 220.08 372.084 219.55 372.025C216.31 371.612 213.13 371.2 209.89 370.788C206.415 370.317 202.94 369.904 199.523 369.433C198.699 369.315 197.874 369.197 197.049 369.139H196.99C196.931 369.139 196.873 369.139 196.814 369.197L196.696 369.315C196.225 369.669 195.753 369.963 195.282 370.317C193.751 371.377 192.219 372.437 190.688 373.497C190.04 373.91 189.451 374.381 188.803 374.793C188.803 374.793 188.744 374.852 188.685 374.852C188.567 374.911 188.45 375.029 188.332 375.088C188.273 375.147 188.214 375.147 188.155 375.205L188.096 375.264C188.096 375.264 188.037 375.323 188.037 375.382C188.214 376.737 188.391 378.033 188.567 379.388C188.567 379.446 188.626 379.505 188.626 379.505C188.685 379.564 188.803 379.623 188.98 379.682C189.215 379.8 189.451 379.859 189.687 379.977C189.922 380.035 190.099 380.094 190.158 380.153C190.982 380.507 191.807 380.801 192.632 381.155C193.338 381.449 193.927 381.449 194.634 381.449C196.284 381.567 197.933 381.685 199.582 381.803C202.527 381.979 205.472 382.215 208.476 382.392C208.712 382.392 208.948 382.568 209.183 382.686C210.008 383.039 210.832 383.452 211.598 383.805C211.775 383.923 212.01 383.982 212.246 384.041C212.482 384.159 212.658 384.217 212.776 384.335C213.247 384.807 213.66 385.278 214.131 385.749C214.72 386.338 215.309 386.927 215.898 387.575C216.016 387.752 216.134 387.869 216.251 388.046C216.782 388.989 217.253 389.99 217.783 390.932C219.491 394.172 221.199 397.412 222.907 400.592C223.379 401.476 223.85 402.359 224.321 403.243C224.439 403.42 224.557 403.537 224.674 403.655L226.206 405.069C227.561 406.306 228.856 407.543 230.211 408.78C230.506 409.074 230.859 409.369 231.154 409.663C231.271 409.781 231.448 409.84 231.566 409.899C231.743 409.958 231.86 410.017 231.978 410.076C233.569 410.841 235.159 411.607 236.808 412.314C237.633 412.667 238.458 413.256 239.341 413.492C242.286 414.258 245.231 415.023 248.176 415.789C249.06 416.025 249.767 416.967 250.474 417.615L252.417 419.382C252.653 419.559 252.83 419.736 252.947 419.912C254.42 422.681 255.893 425.39 257.365 428.159C257.895 429.101 258.366 430.043 258.897 430.986C259.014 431.163 259.191 431.28 259.368 431.398C259.544 431.516 259.78 431.634 259.839 431.693L262.077 433.342C262.549 433.695 263.02 434.049 263.491 434.402C263.668 434.52 263.903 434.579 264.198 434.638C264.433 434.697 264.728 434.697 264.846 434.756C266.259 435.109 267.673 435.462 269.146 435.816C269.676 435.934 270.265 436.405 270.795 436.64C271.207 436.876 271.737 437.053 271.973 437.347C272.739 438.231 273.681 439.055 274.211 440.057C275.036 441.47 275.86 442.943 276.685 444.357C276.98 444.887 277.333 445.476 277.627 446.006C277.863 446.477 278.393 446.713 278.688 447.007C278.864 447.184 279.041 447.42 279.277 447.596C279.512 447.832 279.748 448.009 280.042 448.067C280.867 448.303 281.633 448.48 282.457 448.715C282.693 448.774 282.87 448.833 283.046 448.833C283.223 448.833 283.4 448.774 283.635 448.715C284.519 448.539 285.344 448.303 286.227 448.126C287.17 447.891 287.876 447.773 288.701 447.302C290.174 446.477 291.646 445.652 293.119 444.828C294.532 444.062 295.887 443.237 297.301 442.472C297.536 442.354 297.772 442.177 297.949 442.177C298.656 442.177 299.303 442.236 300.01 442.236C300.835 442.295 301.718 442.295 302.543 442.354C302.779 442.354 302.955 442.413 303.132 442.472C303.309 442.531 303.486 442.707 303.662 442.825C304.192 443.237 304.84 443.591 305.253 444.062C305.606 444.416 305.9 444.828 306.195 445.24C306.784 445.947 307.373 446.713 307.962 447.42C308.08 447.596 308.198 447.773 308.374 448.009C308.551 448.244 308.669 448.421 308.905 448.598C309.552 449.01 310.141 449.422 310.789 449.835C311.32 450.188 311.967 450.129 312.498 450.247C312.851 450.306 313.322 450.424 313.793 450.424C313.852 450.424 313.911 450.424 314.029 450.424C314.559 450.365 315.089 450.306 315.56 450.247C317.386 450.011 319.212 449.776 320.979 449.54C321.686 449.422 322.334 449.304 323.041 449.304C323.336 449.304 323.63 449.304 323.866 449.363C324.455 449.481 325.279 449.481 325.692 449.776C326.398 450.188 327.046 450.6 327.753 451.013C328.755 451.602 329.402 452.78 330.168 453.722C330.286 453.899 330.404 454.193 330.404 454.547C330.463 454.9 330.463 455.253 330.522 455.489C330.581 455.842 330.816 456.432 330.757 456.903C330.757 457.021 330.757 457.138 330.698 457.256C330.345 457.963 329.991 458.67 329.638 459.377C329.402 459.848 328.99 460.083 328.46 460.437C327.93 460.79 327.459 461.085 326.987 461.497C326.811 461.674 326.516 461.851 326.281 462.086C326.045 462.322 325.809 462.616 325.751 462.97C325.751 463.794 325.809 464.619 325.809 465.444C325.809 465.738 325.986 466.091 326.104 466.327C326.281 466.622 326.457 466.857 326.575 467.093C326.811 467.564 326.87 467.976 326.87 468.507C326.87 468.624 326.87 468.742 326.87 468.86V468.919C326.87 469.037 326.87 469.213 326.87 469.331C326.87 469.508 326.87 469.626 326.811 469.685C326.575 470.038 326.34 470.332 326.163 470.686C325.751 471.275 325.338 471.452 324.69 471.805C324.337 471.982 324.042 472.158 323.748 472.217C322.334 472.512 320.921 472.865 319.507 473.16C317.799 473.572 316.091 473.925 314.382 474.338C314.029 474.397 313.676 474.514 313.263 474.573C313.028 474.632 312.851 474.75 312.615 474.927C312.439 475.104 312.203 475.221 312.085 475.339C311.319 475.869 310.554 476.34 309.729 476.871C309.611 476.93 309.376 477.047 309.199 477.165C309.022 477.283 308.787 477.401 308.728 477.636C308.198 479.109 307.726 480.523 307.196 481.995C307.137 482.113 307.137 482.231 307.137 482.29C307.137 482.525 307.255 482.702 307.314 482.938C307.609 483.762 307.903 484.587 308.257 485.411C308.551 486.177 308.787 486.884 309.081 487.65C309.14 487.826 309.199 487.944 309.317 488.062C309.435 488.18 309.552 488.239 309.67 488.357C311.025 489.358 312.38 490.3 313.734 491.302C314.382 491.773 315.148 492.008 315.855 492.244C318.8 493.422 321.745 494.6 324.69 495.837C324.985 495.955 325.22 496.19 325.515 496.426C326.104 496.897 326.693 497.31 327.282 497.781C327.4 497.84 327.459 498.075 327.576 498.311C327.753 498.723 327.93 499.195 328.166 499.607C328.342 500.078 328.578 500.49 328.696 500.903C328.931 501.727 329.167 502.493 329.402 503.318C329.579 503.848 329.874 504.26 330.109 504.731C330.345 505.203 330.639 505.909 331.052 506.381C331.523 506.852 331.994 507.323 332.465 507.794C333.231 508.56 333.997 509.502 334.998 510.15C336.412 511.093 337.825 511.976 339.239 512.919C340.182 513.567 341.124 514.156 342.008 514.862C342.42 515.216 342.773 515.687 343.186 516.099C343.303 516.217 343.362 516.512 343.48 516.688C343.657 517.101 343.833 517.454 344.01 517.867C344.01 517.925 344.069 517.984 344.069 517.984C344.069 518.102 344.01 518.161 343.951 518.279C343.833 518.397 343.598 518.573 343.362 518.691C343.127 518.809 342.891 518.927 342.714 518.986C342.597 519.045 342.361 519.045 342.125 519.103C341.654 519.162 341.183 519.162 340.712 519.221C340.535 519.221 340.299 519.221 340.064 519.221C339.828 519.221 339.593 519.28 339.357 519.457C338.886 519.81 338.356 520.223 337.884 520.576L333.643 523.816C333.526 523.933 333.349 524.051 333.231 524.169C333.113 524.287 332.937 524.346 332.819 524.405C332.465 524.464 332.112 524.522 331.759 524.581C331.523 524.64 331.287 524.699 331.052 524.699C330.993 524.699 330.934 524.699 330.875 524.699C328.165 523.462 325.515 522.225 322.805 520.988C322.452 520.812 322.157 520.694 321.804 520.517C321.568 520.399 321.274 520.399 320.979 520.399C320.685 520.399 320.39 520.399 320.155 520.399C319.271 520.34 318.388 520.223 317.445 520.164C317.269 520.164 317.151 520.105 317.033 520.105C316.915 520.105 316.797 520.105 316.738 520.164C316.621 520.223 316.562 520.281 316.444 520.399C315.796 521.047 315.207 521.636 314.559 522.284C314.5 522.402 314.265 522.52 314.088 522.696C313.911 522.873 313.734 523.05 313.734 523.344C313.852 524.935 313.911 526.525 314.029 528.115C314.029 528.351 314.029 528.469 314.088 528.646C314.147 528.763 314.265 528.881 314.441 529.058C315.089 529.647 315.737 530.236 316.385 530.825C316.856 531.296 317.386 531.708 317.858 532.18C318.211 532.474 318.741 532.651 319.036 532.828C320.332 533.476 321.686 534.065 322.864 534.83C324.042 535.596 325.161 536.538 326.281 537.363C326.575 537.599 326.693 537.717 326.811 538.129C327.046 538.895 327.341 539.66 327.576 540.426C327.989 541.604 328.519 542.782 328.755 543.96C329.049 545.492 329.344 547.023 329.638 548.496C329.697 548.908 329.756 549.379 329.756 549.792C329.756 550.439 329.697 551.028 329.638 551.676C329.579 552.795 329.697 553.974 329.402 555.034L328.048 559.923C327.753 560.924 327.518 561.984 327.341 563.044C327.164 563.987 326.929 565.047 326.929 566.048C326.929 566.284 326.929 566.461 326.987 566.696C327.046 567.285 326.987 568.11 327.223 568.758L327.871 570.82C328.166 571.703 328.813 572.587 329.226 573.411C330.109 575.06 330.934 576.769 331.817 578.418C332.171 579.066 332.465 579.714 332.819 580.362C332.878 580.421 332.937 580.597 332.995 580.774C333.054 580.833 333.054 580.951 333.113 581.01C333.172 581.069 333.231 581.127 333.29 581.186C333.349 581.245 333.467 581.245 333.526 581.245C333.643 581.245 333.761 581.245 333.879 581.186C333.997 581.186 334.115 581.127 334.174 581.127C334.586 581.069 335.057 581.069 335.469 581.01C336.058 580.951 336.589 580.538 337.06 580.362C337.59 580.126 338.238 579.949 338.768 579.596C339.416 579.184 340.064 578.712 340.712 578.3C342.773 576.886 344.481 574.943 345.718 572.822C347.191 570.348 348.192 567.757 349.311 565.165C349.606 564.458 349.9 563.81 350.195 563.103C350.313 562.868 350.372 562.573 350.548 562.397C351.255 561.395 351.903 560.335 352.787 559.51C353.611 558.745 354.436 557.802 355.378 557.272C356.733 556.506 358.088 555.741 359.501 554.975C360.797 554.268 362.034 553.561 363.33 552.854C363.742 552.619 363.978 552.265 364.273 551.971C364.744 551.5 365.392 551.028 365.745 550.439C366.04 550.027 366.157 549.438 366.275 549.085C366.629 548.201 366.982 547.318 367.335 546.434C367.748 545.374 368.16 544.431 368.749 543.43C369.397 542.37 369.927 541.31 370.987 540.662C372.107 540.014 373.461 539.366 374.404 538.364C375.111 537.54 375.582 536.421 376.053 535.537L378.468 531.002C378.998 530.059 379.764 529.176 380.471 528.351C380.765 527.998 381.177 527.703 381.531 527.35C382.002 526.937 382.414 526.407 382.945 526.172C383.651 525.818 384.299 525.465 385.006 525.111C385.536 524.817 386.007 524.876 386.655 524.817C386.95 524.817 387.244 524.758 387.539 524.758C387.775 524.758 388.01 524.758 388.246 524.876C389.011 525.229 389.836 525.524 390.602 525.877C391.073 526.054 391.603 526.348 392.133 526.466C392.84 526.643 393.488 526.761 394.195 526.937H394.313C394.43 526.937 394.607 526.879 394.725 526.879C394.843 526.82 395.019 526.82 395.078 526.761C395.196 526.761 395.314 526.702 395.491 526.702C395.667 526.702 395.785 526.643 395.962 526.584C396.256 526.407 396.551 526.231 396.845 526.054C399.614 524.346 402.382 522.696 405.151 520.988C405.504 520.812 405.622 520.576 405.857 520.281C406.27 519.81 406.741 519.28 407.035 518.691C407.566 517.572 407.919 516.512 408.272 515.334C408.744 513.743 409.215 512.153 409.745 510.622C409.981 509.915 410.452 509.208 410.864 508.56C411.807 506.97 412.749 505.379 413.691 503.73C414.222 502.846 414.811 502.022 415.046 501.021C415.164 500.373 415.223 499.842 415.635 499.371C415.989 498.9 416.401 498.193 416.872 497.899C417.991 497.133 419.11 496.426 420.23 495.66C421.408 494.895 422.527 494.129 423.705 493.363C424.235 493.01 425.001 492.774 425.59 492.539L435.426 488.298C436.31 487.885 437.252 487.532 438.136 487.12C439.196 486.648 440.197 485.883 441.14 485.294C441.906 484.822 442.671 484.351 443.378 483.939C443.614 483.821 443.967 483.644 444.203 483.409C445.263 482.231 446.264 481.112 447.325 479.934C447.914 479.286 448.503 478.697 449.033 477.99C449.916 476.753 450.8 475.575 451.683 474.338C452.744 472.865 453.804 471.393 454.864 469.979C455.276 469.39 455.63 468.801 456.16 468.33C457.397 467.211 458.693 466.091 459.93 464.913C460.578 464.324 461.343 463.912 462.109 463.441C463.523 462.616 464.936 461.733 466.35 460.908C466.998 460.555 467.764 460.319 468.47 460.083C471.239 459.023 474.007 457.963 476.776 456.962C477.306 456.785 478.013 456.785 478.602 456.667C479.073 456.608 479.78 456.608 480.31 456.255C481.193 455.607 481.9 455.077 482.607 454.252C484.786 451.896 486.966 449.54 489.145 447.125C489.44 446.831 489.793 446.654 490.146 446.418C491.207 445.77 492.267 445.122 493.327 444.474C496.508 442.531 499.748 440.587 502.928 438.643C504.99 437.347 507.11 436.11 509.172 434.814C509.702 434.461 510.114 433.813 510.527 433.401C511.764 432.046 513 430.75 514.179 429.395C515.18 428.276 516.24 427.157 517.241 426.038C517.889 425.331 518.773 424.742 519.598 424.153C519.951 423.859 520.304 423.564 520.717 423.446C521.541 423.211 522.307 422.975 523.132 422.681C524.015 422.445 524.663 422.386 525.547 422.386C528.727 422.327 531.849 422.268 535.03 422.268C535.56 422.268 536.09 421.974 536.502 421.856C537.15 421.679 537.622 420.972 538.034 420.56C538.446 420.148 538.741 419.559 539.035 419.088C539.153 418.911 539.33 418.499 539.506 418.204C539.624 418.027 539.742 417.91 539.86 417.792C539.978 417.674 540.095 417.615 540.154 417.615H540.213C540.92 417.792 541.568 417.91 542.275 418.086C542.746 418.204 543.276 418.675 543.747 419.029C544.513 419.559 545.279 419.971 545.986 420.619C548.518 422.798 551.11 425.037 553.643 427.216C554.468 427.923 555.174 428.689 555.94 429.513C557.766 431.575 559.592 433.636 561.418 435.639C566.307 441.117 571.255 446.595 576.144 452.132C577.498 453.663 578.853 455.136 580.208 456.667C580.443 456.903 580.679 457.138 580.915 457.315C582.034 458.258 583.153 459.259 584.272 460.201C586.451 462.086 588.631 463.971 590.81 465.856C591.046 466.033 591.223 466.327 591.399 466.622L594.639 470.745C594.816 470.98 595.11 471.275 595.228 471.51C595.876 472.747 596.524 474.043 597.172 475.28C597.584 476.046 597.937 476.753 598.35 477.519C598.409 477.636 598.526 477.813 598.585 477.99C598.644 478.166 598.762 478.343 598.703 478.461C598.703 478.52 598.703 478.579 598.644 478.579C598.644 478.638 598.585 478.638 598.526 478.697C598.114 478.932 597.525 479.05 597.054 479.227C596.17 479.521 595.287 479.875 594.403 480.169C594.109 480.287 593.579 480.346 593.225 480.581C592.872 480.876 592.518 481.112 592.106 481.406C590.634 482.466 589.161 483.527 587.688 484.646C587.158 485.058 586.569 485.47 586.039 485.824C585.804 486 585.686 486.118 585.45 486.118C582.564 486.825 579.619 487.473 576.733 488.18C576.438 488.239 576.203 488.415 575.967 488.533C575.201 488.946 574.435 489.417 573.67 489.829C573.022 490.182 572.433 490.536 571.785 490.889C571.431 491.066 571.196 491.419 571.019 491.655C569.9 492.774 568.84 493.893 567.721 495.071C567.426 495.366 567.367 495.837 567.19 496.073C566.778 496.897 566.425 497.722 566.012 498.605L565.188 500.431C565.129 500.549 565.129 500.726 565.129 500.903C565.129 501.138 565.188 501.374 565.188 501.551C565.188 503.259 565.188 504.908 565.188 506.616C565.188 506.97 565.306 507.205 565.423 507.5C565.777 508.324 566.13 509.149 566.484 509.915L567.308 511.741C567.485 512.094 567.78 512.389 568.015 512.683C569.016 513.979 569.959 515.275 570.96 516.571C571.431 517.219 572.197 517.749 572.786 518.22C575.083 520.281 577.322 522.343 579.619 524.405C579.854 524.581 580.149 524.64 580.326 524.699C581.033 524.994 581.739 525.229 582.505 525.524C584.154 526.113 585.804 526.761 587.453 527.35C587.747 527.468 588.16 527.526 588.277 527.703L589.927 529.176C590.221 529.411 590.516 529.647 590.692 529.941C590.928 530.413 591.164 530.884 591.399 531.296C592.224 532.945 593.107 534.536 593.932 536.185C594.462 537.186 594.992 538.129 595.405 539.13C595.876 540.249 596.288 541.31 596.288 542.488C596.288 542.9 596.347 543.371 596.347 543.783C596.347 544.019 596.347 544.196 596.288 544.372C596.111 545.138 595.935 545.904 595.758 546.67C595.64 547.141 595.464 547.553 595.228 548.024C594.992 548.555 594.816 549.144 594.521 549.615C594.109 550.263 593.696 550.911 593.343 551.559C593.166 551.853 592.813 552.03 592.46 552.206C590.987 553.208 589.573 554.15 588.101 555.152C587.571 555.505 587.217 555.741 586.687 555.858C580.443 557.213 574.141 558.509 567.897 559.864C565.482 560.394 563.067 560.865 560.652 561.395C560.358 561.454 560.122 561.69 560.063 561.925C559.946 562.161 559.946 562.455 559.946 562.75C559.946 563.103 560.004 563.516 560.004 563.751V563.81C560.004 564.046 559.887 564.281 559.828 564.517C559.769 564.635 559.769 564.812 559.71 564.988C559.651 565.165 559.592 565.283 559.533 565.342C559.18 565.577 558.826 565.813 558.473 566.048C556.942 567.05 555.469 568.051 553.938 569.052C553.407 569.406 552.877 569.759 552.347 570.113C551.935 570.407 551.817 570.761 551.581 571.114C551.464 571.291 551.287 571.467 551.169 571.762C550.992 571.998 550.875 572.233 550.875 572.528V572.587C550.933 573.235 550.992 573.882 551.051 574.471C551.169 576.18 551.287 577.888 551.464 579.537C551.464 579.891 551.523 580.008 551.699 580.303C552.112 581.01 552.524 581.716 552.936 582.423C553.348 583.13 553.82 583.896 554.232 584.603C554.35 584.779 554.468 585.015 554.703 585.192C557.236 587.077 559.828 588.961 562.361 590.846C562.95 591.259 563.597 591.965 564.304 592.26C565.011 592.554 565.659 592.908 566.366 593.202C569.605 594.675 572.786 596.147 576.026 597.561C578.617 598.739 581.15 599.917 583.742 601.036C584.508 601.39 585.215 602.038 585.921 602.568C586.039 602.686 586.157 602.862 586.216 603.157C586.275 603.392 586.334 603.687 586.393 603.923C586.628 604.806 586.923 605.631 587.158 606.514C587.276 606.868 587.276 607.221 587.276 607.575C587.276 608.458 587.041 609.342 586.923 610.284C586.923 610.52 586.864 610.696 586.864 610.873C586.864 611.168 586.864 611.403 586.923 611.698C586.982 612.169 587.041 612.581 587.099 613.052C587.099 613.111 587.099 613.288 587.099 613.465C587.099 613.641 587.099 613.759 587.217 613.936C587.335 614.113 587.512 614.23 587.688 614.348C587.865 614.466 588.042 614.584 588.16 614.643C588.808 615.173 589.514 615.644 590.162 616.174C591.458 617.176 592.813 618.118 594.109 619.119C594.933 619.767 595.522 620.828 596.17 621.711C596.465 622.064 596.701 622.536 597.054 622.83C597.702 623.419 598.35 623.949 598.939 624.538C599.174 624.715 599.292 624.833 599.41 624.951C599.587 625.01 599.763 625.068 599.999 625.068H600.117C601 625.068 601.884 625.01 602.767 625.01C602.944 625.01 603.18 625.01 603.356 625.01C603.533 625.01 603.769 625.01 603.945 624.892C604.476 624.656 604.947 624.362 605.477 624.126C607.067 623.301 608.658 622.536 610.248 621.711C610.425 621.652 610.601 621.534 610.778 621.417C610.955 621.299 611.131 621.24 611.249 621.24C612.015 621.24 612.722 621.181 613.488 621.181C613.723 621.181 614.077 621.122 614.371 621.122C614.548 621.122 614.666 621.122 614.783 621.181C614.901 621.24 614.96 621.299 615.019 621.358C615.314 622.005 615.608 622.653 615.903 623.301C616.374 624.362 616.845 625.304 617.081 626.482C617.316 627.366 617.493 628.308 617.729 629.192C617.846 629.545 617.846 630.075 618.141 630.429C618.966 631.489 619.79 632.49 620.791 633.432C621.322 633.845 621.911 634.257 622.323 634.728C622.676 635.141 622.971 635.671 623.265 636.142C623.972 637.202 624.62 638.263 625.562 639.205C626.446 640.089 627.33 640.972 628.095 641.973C628.743 642.857 629.391 643.74 630.157 644.565C631.276 645.861 632.395 647.216 633.514 648.512C634.162 649.277 634.987 650.043 635.517 650.927C636.283 652.105 637.048 653.341 637.814 654.52C638.285 655.226 638.757 655.992 639.228 656.699C639.405 656.934 639.522 657.347 639.817 657.582C640.936 658.584 642.055 659.585 643.233 660.586C643.646 660.94 644.117 661.352 644.529 661.706C644.588 661.764 644.706 661.765 644.765 661.823C644.882 661.823 644.941 661.823 645.059 661.823C645.236 661.823 645.471 661.823 645.589 661.823L650.89 662.118C651.067 662.118 651.421 662.177 651.656 662.177C651.774 662.177 651.892 662.177 652.01 662.118C652.716 661.882 653.482 661.647 654.189 661.411C655.426 660.999 656.604 660.469 657.782 659.938C658.253 659.703 658.842 659.526 659.313 659.232C659.844 658.819 660.433 658.466 660.963 658.054C661.552 657.641 662.2 657.229 662.789 656.817C663.201 656.522 663.554 656.051 663.849 655.698C664.438 655.109 664.968 654.52 665.557 653.872C665.852 653.577 666.264 653.4 666.676 653.165C667.383 652.752 668.09 652.34 668.797 651.928C669.032 651.81 669.327 651.751 669.621 651.751H669.739C669.798 651.751 669.857 651.751 669.916 651.751C670.799 651.692 671.742 651.692 672.625 651.633C672.92 651.633 673.214 651.574 673.509 651.574C673.627 651.574 673.745 651.574 673.803 651.574C676.807 652.105 679.87 652.635 682.874 653.165L682.992 653.106L683.051 652.988C682.815 649.572 682.639 646.214 682.403 642.798C681.932 635.494 681.52 628.19 681.048 620.886C680.636 613.995 680.224 607.103 679.752 600.212C679.635 598.268 679.517 596.324 679.399 594.321C679.399 593.968 679.34 593.615 679.34 593.202C679.34 593.026 679.222 592.967 679.222 592.849C678.987 592.26 678.692 591.73 678.457 591.141C677.691 589.433 676.984 587.783 676.218 586.075C675.806 585.192 675.512 584.426 675.276 583.484C674.922 582.129 674.687 580.892 674.51 579.537C674.333 578.418 674.275 577.358 674.216 576.18C674.157 574.648 674.039 573.176 673.98 571.644V571.585C673.98 571.467 674.039 571.409 674.039 571.35C674.098 571.291 674.157 571.291 674.275 571.291C674.51 571.291 674.864 571.409 675.04 571.467C675.924 571.644 676.807 571.88 677.691 572.057C678.28 572.174 678.81 572.292 679.399 572.41H679.458C679.517 572.41 679.517 572.41 679.576 572.351C679.635 572.292 679.694 572.233 679.811 572.115C679.929 571.998 680.047 571.762 680.165 571.644C680.283 571.467 680.341 571.35 680.4 571.35L683.522 567.285C684.052 566.579 684.288 565.636 684.582 564.812C685.23 563.162 685.878 561.454 686.467 559.805C687.233 557.743 687.645 555.564 688.175 553.502C688.882 550.793 689.589 548.024 690.237 545.315C690.355 544.785 690.355 544.196 690.414 543.725C690.473 542.9 690.59 542.016 690.649 541.192V541.074C690.649 540.838 690.591 540.721 690.473 540.544C690.414 540.367 690.296 540.249 690.178 540.073C689.707 539.307 689.177 538.541 688.706 537.775C688.47 537.422 688.117 537.01 688.117 536.656C687.999 535.891 687.881 535.125 687.822 534.359C687.704 533.358 687.528 532.415 687.528 531.473V526.289C687.528 525.524 687.528 524.758 687.528 523.992C687.528 523.875 687.528 523.698 687.528 523.639C687.528 523.462 687.528 523.344 687.586 523.286C687.645 523.168 687.704 523.109 687.881 522.991C687.999 522.932 688.175 522.873 688.293 522.873C688.47 522.873 688.647 522.873 688.823 522.814C689 522.755 689.177 522.638 689.236 522.52C689.295 522.402 689.354 522.225 689.354 522.049C689.412 521.577 689.471 521.165 689.471 520.753C689.471 520.517 689.471 520.223 689.471 519.987C689.471 519.81 689.471 519.634 689.471 519.457C689.471 519.045 689.471 518.632 689.53 518.22C689.589 517.69 690.001 516.983 690.237 516.394C690.473 515.864 690.649 515.334 690.826 514.745C691.003 514.097 691.121 513.508 691.356 512.978C691.533 512.624 691.71 512.212 691.945 511.858C692.004 511.741 692.063 511.682 692.181 511.623C692.299 511.564 692.417 511.505 692.534 511.446C693.064 511.269 693.594 510.975 694.066 510.916C695.715 510.798 697.305 510.68 698.955 510.563C699.367 510.563 699.779 510.445 700.133 510.445C700.192 510.445 700.25 510.445 700.309 510.445C700.957 510.504 701.664 510.739 702.371 510.916C702.96 511.034 703.254 511.152 703.726 511.505C704.374 512.035 705.08 512.565 705.728 513.095C705.964 513.272 706.082 513.449 706.141 513.743C706.258 513.979 706.317 514.273 706.376 514.568C706.494 514.98 706.671 515.393 706.73 515.805C706.965 517.395 707.201 518.927 707.436 520.517C707.613 521.636 707.849 522.755 707.849 523.875C707.849 523.875 707.849 524.11 707.849 524.287C707.849 524.405 707.849 524.464 707.849 524.522V524.64V524.699V524.758L707.908 524.817L708.026 524.876C708.202 524.876 708.379 524.876 708.556 524.876C709.38 524.876 710.205 524.876 711.029 524.876H713.68C713.857 524.876 714.092 524.876 714.328 524.876C714.505 524.876 714.681 524.876 714.858 524.935C715.624 525.288 716.331 525.642 717.096 525.995C717.332 526.113 717.568 526.231 717.685 526.289C717.862 526.407 717.98 526.525 718.098 526.761L719.276 529.117C719.511 529.588 719.747 529.883 719.747 530.354C719.747 531.237 719.747 532.121 719.747 532.945C719.747 533.063 719.747 533.24 719.747 533.358C719.747 533.652 719.747 533.888 719.688 534.182C719.453 535.007 719.217 535.832 718.981 536.656C718.863 537.069 718.805 537.599 718.569 537.952C718.157 538.659 717.744 539.366 717.273 540.014C716.979 540.485 716.802 540.779 716.39 541.074C715.742 541.427 715.153 541.84 714.505 542.134C714.151 542.311 713.68 542.37 713.268 542.429C711.619 542.782 709.969 543.194 708.32 543.548C708.026 543.607 707.849 543.783 707.672 543.901C707.495 544.078 707.378 544.255 707.201 544.49C707.142 544.549 707.024 544.667 706.965 544.785C706.848 544.903 706.789 545.02 706.789 545.197C706.73 545.492 706.671 545.786 706.671 546.14V546.257C706.671 546.67 706.789 547.082 706.789 547.494C706.789 547.671 706.789 547.848 706.73 547.966C706.73 548.083 706.612 548.378 706.553 548.672C706.494 549.026 706.376 549.32 706.376 549.615C706.376 549.674 706.376 549.733 706.376 549.792C706.376 549.85 706.435 549.909 706.494 549.968C707.672 550.852 708.909 551.794 710.087 552.678C710.205 552.737 710.264 552.795 710.382 552.795C710.558 552.795 710.676 552.737 710.794 552.678C710.912 552.619 711.03 552.56 711.147 552.501C711.972 552.148 712.797 551.794 713.621 551.441C714.446 551.087 715.447 550.852 716.154 550.263C718.746 548.26 721.337 546.316 723.988 544.314C724.813 543.666 725.637 543.018 726.521 542.429C726.58 542.37 726.639 542.311 726.639 542.193C726.639 542.134 726.698 542.075 726.698 542.016C726.874 541.604 726.992 541.192 727.169 540.838C727.345 540.308 727.758 539.719 727.817 539.071C727.993 537.775 728.229 536.421 728.347 535.125C728.465 533.711 728.465 532.298 728.465 530.943C728.523 529.824 728.465 528.763 728.7 527.644C728.936 526.525 729.112 525.406 729.466 524.346C729.937 522.755 730.467 521.165 730.938 519.575C731.292 518.456 731.351 517.277 731.527 516.217C731.645 515.334 731.999 514.391 731.999 513.449C731.999 513.39 731.999 513.331 731.999 513.272C731.94 512.33 731.94 511.328 731.881 510.386L731.469 499.43C731.41 497.84 731.351 496.308 731.292 494.718C731.292 494.188 731.233 493.658 731.233 493.128C731.233 493.01 731.233 492.892 731.233 492.774C731.233 492.362 731.41 491.891 731.527 491.419C731.704 490.477 731.94 489.593 732.117 488.651C732.234 488.003 732.411 487.355 732.529 486.707C732.588 486.413 732.882 486.118 733.059 485.824C734.06 484.469 735.003 483.055 736.004 481.701C736.24 481.406 736.357 481.288 736.711 481.17C737.477 480.817 738.301 480.523 739.067 480.169C739.715 479.875 740.422 479.58 741.07 479.344C741.128 479.286 741.187 479.286 741.246 479.286C741.423 479.286 741.6 479.403 741.835 479.58C743.249 480.464 744.663 481.347 746.076 482.172L748.197 483.468C748.491 483.644 748.845 483.821 749.08 483.998C749.493 484.351 749.846 484.999 750.199 485.47C750.494 485.883 750.847 486.413 751.201 486.766C751.613 487.178 751.967 487.591 752.379 487.944C752.438 488.003 752.614 488.18 752.732 488.357C752.791 488.474 752.909 488.533 752.968 488.592C753.027 488.651 753.145 488.71 753.262 488.769C754.146 488.946 755.029 489.122 755.913 489.299L756.031 489.24L756.09 489.122C756.09 489.004 756.09 488.887 756.09 488.769C756.09 488.71 756.09 488.592 756.09 488.533C756.09 488.474 756.031 488.357 755.913 488.298C755.56 488.062 755.206 487.826 754.912 487.591C754.44 487.296 753.969 487.061 753.675 486.648C752.909 485.647 752.025 484.646 751.554 483.527C751.201 482.761 750.906 481.995 750.553 481.229C750.376 480.817 750.317 480.287 750.199 479.757C750.141 479.639 750.082 479.403 750.023 479.109C749.964 478.814 749.905 478.52 749.905 478.284C749.905 478.166 749.905 478.049 749.964 477.931C750.023 477.872 750.023 477.813 750.141 477.813H750.199C750.317 477.754 750.553 477.754 750.73 477.754C750.847 477.754 750.965 477.754 751.083 477.754H751.142C751.201 477.754 751.26 477.754 751.319 477.813C751.495 477.931 751.613 478.284 751.731 478.52C752.497 479.934 753.498 481.465 755.088 482.172C755.147 482.172 755.206 482.172 755.265 482.113C755.324 482.054 755.324 481.995 755.265 481.936C755.088 481.642 754.912 481.406 754.735 481.112C754.676 480.994 754.617 480.876 754.617 480.699C754.617 480.523 754.617 480.346 754.558 480.169C754.499 479.757 754.44 479.344 754.44 478.991C754.44 478.932 754.44 478.814 754.44 478.755C754.617 477.106 754.794 475.457 754.971 473.808C754.971 473.631 754.971 473.336 755.029 473.101C755.029 472.865 755.088 472.63 755.206 472.512C755.324 472.335 755.501 472.217 755.618 472.041C755.736 471.864 755.795 471.687 755.795 471.452C755.795 471.275 755.736 471.098 755.677 470.921C755.324 470.274 754.971 469.626 754.676 468.919C754.382 468.33 753.675 467.8 753.321 467.328C752.85 466.798 752.379 466.386 751.849 465.974C750.671 464.972 749.552 464.03 748.373 463.029C745.664 460.731 742.955 458.434 740.245 456.078C739.892 455.784 739.479 455.43 739.126 455.136C738.949 455.018 738.714 454.841 738.655 454.723C738.36 454.075 738.066 453.486 737.771 452.839C737.653 452.603 737.477 452.308 737.3 452.014C737.123 451.719 737.005 451.425 737.005 451.189L736.711 446.713C736.711 446.595 736.711 446.418 736.711 446.3C736.711 445.299 736.946 444.239 737.064 443.179C737.359 440.881 737.889 438.643 738.596 436.405C739.008 435.227 739.303 433.99 739.833 432.871C740.245 432.105 740.598 431.339 741.011 430.573C741.129 430.338 741.187 430.102 741.187 429.926C741.187 429.631 741.129 429.395 741.129 429.101C741.07 428.512 740.893 427.864 740.893 427.275C740.893 427.216 740.893 427.098 740.893 427.039V426.98C740.893 426.804 741.011 426.568 741.187 426.333C741.364 426.097 741.541 425.861 741.6 425.685C742.307 424.448 742.896 423.152 743.661 421.974C744.25 421.09 744.957 420.266 745.605 419.441C746.724 417.968 747.843 416.496 749.021 415.023C749.493 414.375 749.964 413.61 750.553 413.197C751.26 412.785 752.025 412.314 752.732 411.901C753.145 411.666 753.675 411.43 754.087 411.077C754.676 410.606 755.206 410.134 755.795 409.663C755.854 409.604 755.854 409.545 755.913 409.487C755.972 409.31 755.972 409.015 756.031 408.721C756.031 408.603 756.031 408.485 756.031 408.367C756.031 408.25 756.031 408.191 755.913 408.073C754.912 406.836 753.969 405.54 752.968 404.303C752.261 403.42 752.025 402.3 751.613 401.181C751.613 401.122 751.554 401.005 751.554 400.887C751.554 400.416 751.849 399.709 751.908 399.296C751.908 399.296 751.966 399.12 751.966 399.002C752.025 398.884 752.025 398.766 752.025 398.648C752.025 398.59 752.025 398.59 751.966 398.531C751.731 398.236 751.495 397.883 751.319 397.588C751.142 397.353 751.024 396.823 751.024 396.41C751.024 396.234 751.024 396.116 751.083 395.998C751.319 395.232 751.495 394.525 751.731 393.76C751.79 393.465 751.908 393.288 752.025 393.112C752.143 392.935 752.32 392.817 752.556 392.641C753.086 392.228 753.734 391.816 754.264 391.286C754.676 390.815 754.853 390.343 754.853 389.813C754.853 389.047 754.499 388.282 754.087 387.575C753.851 387.163 753.616 386.574 753.616 386.102V385.985C753.675 385.572 753.734 385.16 753.734 384.806C753.734 384.512 753.734 384.217 753.91 384.041C754.264 383.511 754.558 383.039 755.029 382.627C755.56 382.156 756.031 381.685 756.502 381.155C756.561 381.096 756.679 380.978 756.738 380.919C756.855 380.801 756.914 380.683 756.973 380.566C757.091 380.153 757.15 379.8 757.268 379.388C757.327 379.152 757.503 378.799 757.503 378.504C757.503 378.151 757.327 377.797 757.268 377.503C756.914 376.089 756.325 374.911 755.736 373.615C755.56 373.203 755.265 372.732 755.147 372.319C754.971 371.612 754.794 370.906 754.676 370.199C754.558 369.61 754.323 369.021 754.264 368.432C754.264 368.196 754.205 367.843 754.205 367.548C754.205 367.254 754.205 366.9 754.264 366.665C754.44 365.958 754.617 365.251 754.794 364.544C754.912 364.014 755.265 363.484 755.56 362.954C755.913 362.306 756.207 362.011 756.855 361.54C757.209 361.246 757.798 361.128 758.151 360.716C759.035 359.832 759.859 358.831 760.802 358.124L761.803 357.417C762.098 357.24 762.216 356.946 762.392 356.71C762.451 356.592 762.51 356.533 762.569 356.475C762.628 356.416 762.687 356.298 762.687 356.18C762.687 356.121 762.687 356.062 762.628 355.944C762.51 355.532 762.333 355.12 762.216 354.708C761.98 354.118 761.391 353.647 761.037 353.176C760.625 352.646 759.859 352.293 759.388 351.939C758.564 351.35 757.739 350.584 757.268 349.76C756.855 348.994 756.384 348.228 755.972 347.463C755.854 347.227 755.677 346.991 755.56 346.756C755.442 346.52 755.324 346.285 755.265 346.108L754.971 343.87C754.912 343.457 754.853 343.104 754.794 342.691C754.794 342.574 754.735 342.397 754.735 342.279C754.735 342.22 754.735 342.161 754.735 342.102L755.618 340.1C755.736 339.864 755.795 339.629 755.913 339.393C756.031 339.157 756.149 338.981 756.325 338.863C757.68 338.274 759.035 337.685 760.39 337.096C761.214 336.742 761.98 336.389 762.805 336.094C762.805 336.094 763.099 335.977 763.335 335.918C763.452 335.859 763.57 335.8 763.688 335.8L763.806 335.741L763.865 335.682C763.865 335.682 763.924 335.623 763.924 335.564C763.806 334.268 763.629 333.031 763.335 331.795C763.099 330.675 762.746 329.556 762.746 328.437C762.746 328.378 762.746 328.319 762.746 328.26C762.805 327.377 762.805 326.493 762.863 325.61C762.863 325.551 762.863 325.492 762.863 325.433C762.863 325.315 762.863 325.256 762.863 325.139C762.863 324.785 762.863 324.432 763.04 324.255C763.511 323.607 763.983 322.959 764.454 322.311C764.748 321.899 765.22 321.663 765.691 321.31C766.103 321.015 766.692 320.662 767.104 320.25C767.399 319.896 767.752 319.484 768.047 319.131C769.225 317.717 770.403 316.362 771.522 314.949C772.759 313.476 774.232 312.121 775.999 311.414C779.12 310.119 782.242 308.882 785.364 307.586C785.953 307.35 786.483 307.115 787.013 306.761C788.486 305.819 789.958 304.876 791.431 303.993C792.491 303.345 793.551 302.638 794.612 301.99C794.788 301.872 795.083 301.872 795.377 301.754C796.084 301.578 796.791 301.401 797.498 301.224C799.265 300.753 801.032 300.282 802.799 299.811C803.624 299.575 804.272 299.457 805.037 299.045C806.51 298.161 808.041 297.337 809.514 296.453C810.456 295.923 811.104 295.04 811.811 294.274C812.4 293.626 812.989 292.978 813.578 292.33C813.696 292.212 813.755 292.153 813.814 292.036C813.873 291.977 813.932 291.859 813.932 291.741C813.932 291.623 813.932 291.505 813.873 291.388C813.637 290.504 813.46 289.68 813.225 288.855C813.166 288.678 813.107 288.501 813.048 288.266C812.989 288.03 812.93 287.736 812.93 287.559C812.93 287.441 812.989 287.323 812.989 287.265C813.991 286.263 815.051 285.262 816.052 284.26C816.877 283.495 817.583 282.729 818.526 282.199C819.233 281.787 819.881 281.374 820.588 280.962C820.646 280.903 820.705 280.903 820.764 280.903C820.941 280.903 821.177 280.962 821.353 281.08C821.589 281.198 821.766 281.315 821.942 281.433C823.061 282.022 824.181 282.729 825.535 282.965C826.419 283.082 827.302 283.2 828.127 283.318C828.657 283.377 829.128 283.613 829.658 283.789C830.719 284.202 831.484 285.203 832.073 286.204C832.486 286.852 832.957 287.559 833.369 288.207C833.487 288.384 833.664 288.619 833.899 288.737C834.135 288.914 834.371 289.032 834.665 289.032C835.431 289.032 836.255 288.973 837.021 288.973C837.139 288.973 837.257 288.914 837.316 288.855C837.434 288.737 837.61 288.619 837.728 288.501C837.846 288.384 837.964 288.266 838.023 288.207C839.26 287.088 840.496 285.969 841.674 284.908C841.969 284.614 842.381 284.496 842.794 284.319C843.206 284.143 843.618 283.966 844.031 283.789C844.266 283.671 844.502 283.554 844.62 283.554C846.151 283.495 847.624 283.436 849.155 283.377C849.567 283.377 850.039 283.377 850.51 283.259C851.158 283.082 851.747 282.847 852.395 282.552C853.337 282.081 854.28 281.787 855.281 281.787C855.458 281.787 855.575 281.787 855.752 281.787C856.93 281.904 858.108 282.022 859.227 282.317C860.759 282.729 862.29 283.2 863.822 283.613C864.175 283.73 864.529 283.671 864.823 283.73C865.707 283.848 866.59 283.907 867.474 284.025C868.593 284.143 869.83 284.084 870.831 284.437C872.009 284.85 873.305 285.144 874.365 285.733C875.367 286.263 876.486 286.676 877.369 287.323L881.139 290.151C882.258 290.975 883.377 291.859 884.555 292.684C884.791 292.86 884.968 293.096 885.144 293.273C885.733 293.92 886.322 294.568 886.97 295.216C887.559 295.805 888.148 296.394 888.62 297.101C889.444 298.279 890.269 299.457 891.093 300.635C892.213 302.285 893.155 304.052 894.097 305.819C894.156 305.878 894.215 305.878 894.274 305.878C894.333 305.878 894.392 305.819 894.392 305.76C894.451 305.348 894.51 304.935 894.51 304.523C894.51 304.346 894.51 304.111 894.451 303.875C894.274 302.756 894.039 301.813 893.803 300.812ZM896.866 264.587C896.866 264.293 896.807 264.057 896.689 263.88C896.218 263.056 895.688 262.29 895.217 261.465L895.158 261.406C894.333 260.7 893.508 260.111 892.861 259.286C892.507 258.815 892.036 258.285 891.741 257.813C891.624 257.696 891.565 257.401 891.565 257.048C891.565 256.753 891.565 256.4 891.506 256.164C891.388 255.457 891.329 254.692 891.211 253.985C891.211 253.867 891.211 253.808 891.152 253.749C891.093 253.69 891.093 253.631 891.035 253.572C890.976 253.514 890.858 253.337 890.74 253.219C890.681 253.16 890.622 253.042 890.563 252.983C890.504 252.925 890.445 252.866 890.328 252.866H890.269C890.151 252.866 889.974 252.925 889.857 252.983C889.739 253.042 889.562 253.101 889.562 253.16C889.209 253.278 888.855 253.396 888.502 253.514C888.443 253.514 888.384 253.572 888.325 253.572C888.148 253.572 887.913 253.514 887.677 253.337C887.441 253.219 887.206 253.042 887.029 252.983H886.911L886.852 253.101C886.852 253.749 886.911 254.397 886.911 255.104C886.911 255.516 886.911 255.929 886.97 256.341C886.97 256.4 886.97 256.518 886.97 256.635C886.97 256.753 886.97 256.812 887.029 256.93C887.854 257.99 888.737 259.05 889.562 260.111C890.092 260.817 890.681 261.524 891.211 262.172C891.447 262.467 891.8 262.761 891.918 263.115C891.977 263.174 892.036 263.35 891.977 263.527C891.977 263.998 891.8 264.646 891.741 264.941C891.624 265.765 891.565 266.59 891.447 267.356C891.447 267.414 891.447 267.473 891.447 267.532L891.506 267.65L891.624 267.709C892.095 267.709 892.566 267.709 892.978 267.709C893.214 267.709 893.45 267.768 893.685 267.768C893.803 267.768 893.98 267.768 894.097 267.709C894.628 267.591 895.158 267.414 895.688 267.297C895.923 267.238 896.159 267.12 896.277 266.943C896.395 266.767 896.512 266.59 896.689 266.413C896.807 266.295 896.866 266.178 896.925 266.06C896.984 265.942 896.984 265.824 896.984 265.706C896.984 265.589 896.984 265.412 896.925 265.235C896.866 265.117 896.866 264.882 896.866 264.587ZM928.555 288.384C928.378 287.618 928.143 286.793 927.966 286.028C927.966 285.969 927.907 285.91 927.907 285.851L927.848 285.792C927.259 285.203 926.67 284.614 926.081 284.025C925.905 283.848 925.669 283.789 925.375 283.789C924.903 283.789 924.491 284.025 924.196 284.26C923.902 284.496 923.607 284.791 923.313 284.967C922.959 285.144 922.547 285.262 922.135 285.38C922.076 285.38 921.958 285.439 921.899 285.439C921.664 285.439 921.369 285.321 921.075 285.085C920.78 284.908 920.544 284.614 920.309 284.437H920.132L920.073 284.555C920.014 284.85 920.014 285.203 919.956 285.497C919.956 285.615 919.897 285.792 919.897 285.969C919.897 286.086 919.897 286.145 919.956 286.263C920.368 286.97 920.721 287.736 921.134 288.443C921.428 289.032 921.899 289.267 922.37 289.621C922.665 289.856 922.96 290.092 923.254 290.327C923.313 290.386 923.431 290.386 923.49 290.386C923.607 290.386 923.725 290.327 923.843 290.269C923.961 290.21 924.02 290.151 924.079 290.151C924.432 290.033 924.727 289.915 925.08 289.797H925.198C925.375 289.797 925.61 289.856 925.787 289.915C925.846 289.915 926.258 290.033 926.67 290.151C927.083 290.269 927.495 290.327 927.672 290.327H927.789C927.848 290.327 927.848 290.327 927.907 290.21C928.084 289.856 928.202 289.503 928.378 289.149C928.437 288.973 928.555 288.855 928.555 288.56V288.384Z" fill="white"/>
</svg>
