<svg width="1000" height="663" viewBox="0 0 1000 663" fill="none" xmlns="http://www.w3.org/2000/svg">
<path d="M842.673 504.733C839.694 502.481 835.989 502.99 832.502 502.844C829.668 502.699 826.835 501.609 823.929 501.464C821.023 501.246 818.044 501.464 815.138 501.464C808.745 501.464 802.788 504.588 796.394 504.443C789.638 504.225 782.736 502.699 776.052 504.515C773.146 505.242 770.385 505.896 767.479 506.622C764.646 507.349 761.885 507.131 758.906 507.276C756.218 507.421 753.094 507.276 750.479 507.785C749.026 508.075 747.864 508.511 746.992 509.746C746.12 510.981 745.829 512.289 744.158 512.87C741.761 513.742 738.274 512.87 735.731 512.725C732.825 512.58 729.701 512.071 726.94 511.127C721.491 509.31 716.406 508.656 711.32 505.896C707.688 503.934 700.495 500.229 696.427 502.772C695.046 503.644 695.628 504.661 695.119 506.041C694.683 507.276 693.739 507.857 692.576 508.366C690.251 509.528 687.055 508.802 685.82 511.272C683.422 515.994 684.439 523.187 684.439 528.49C684.439 531.251 684.948 535.247 681.315 533.866C679.935 533.358 679.426 531.905 678.119 531.324C676.593 530.67 674.414 530.815 672.742 530.379C670.781 529.871 668.601 530.306 666.713 529.507C664.678 528.635 662.789 527.4 660.755 526.529C655.379 524.276 649.131 521.806 643.246 521.806C640.268 521.806 637.071 522.969 634.165 523.55C631.186 524.131 628.425 525.003 625.737 526.383C620.361 529.144 618.763 534.157 615.639 538.952C613.968 541.422 612.224 543.819 610.481 546.144C609.028 548.033 607.429 551.738 605.323 552.901C603.724 553.773 603.434 552.465 601.981 552.174C600.092 551.811 599.292 553.191 598.275 554.426C596.241 556.824 594.28 559.439 591.955 561.401C588.177 564.452 583.6 565.833 579.241 567.794C575.172 569.611 573.574 573.388 570.45 576.367C568.634 578.038 566.091 578.183 564.202 579.709C561.877 581.598 564.13 584.867 562.749 587.628C561.877 589.299 559.117 590.679 557.518 591.769C555.557 593.077 553.232 594.53 551.561 596.346C549.745 598.453 549.963 601.94 549.963 604.556C549.963 607.607 549.89 610.44 546.475 608.551C544.441 607.389 542.48 605.863 540.445 604.628C538.774 603.611 533.543 601.867 533.979 599.688C534.197 598.308 535.796 598.308 536.377 597.073C536.958 595.91 536.667 593.731 535.941 592.714C534.851 591.115 532.526 588.936 531.001 587.628C529.039 585.884 525.407 586.538 523.082 586.974C517.415 588.209 500.56 589.953 498.235 587.919C495.838 585.957 492.132 559.585 492.06 557.986C491.914 555.952 491.406 556.097 489.444 556.243C486.756 556.388 477.021 559.149 477.53 554.136C478.474 544.837 479.782 535.537 480.436 526.238C480.508 524.858 481.162 522.024 480.654 520.789C479.709 518.246 475.641 522.097 474.333 523.114C471.354 525.366 471.136 522.387 470.047 519.917C468.23 515.776 466.269 509.383 462.636 506.622C460.747 505.169 458.35 504.225 456.606 502.554C454.863 500.883 453.555 498.631 451.957 496.669C450.504 494.853 448.76 491.22 446.362 491.874C444.038 492.528 441.713 494.417 439.533 495.725C437.426 497.032 435.102 498.776 432.631 498.485C429.871 498.195 427.183 497.759 424.422 497.25C418.9 496.16 413.306 494.853 407.785 494.126C405.024 493.763 401.827 493.182 398.994 493.618C396.379 493.981 373.13 497.105 370.079 497.468C367.246 497.759 354.386 478.942 350.827 474.583C349.156 472.476 346.758 469.716 346.25 467.027C346.177 466.519 345.741 463.25 343.126 460.925C329.395 448.574 286.531 417.189 284.133 414.501C282.971 413.193 282.898 413.484 281.227 413.774C278.757 414.138 219.837 423.8 215.478 425.035C212.063 425.98 210.974 427.505 210.901 431.138C210.901 434.117 195.79 559.73 195.499 561.038C195.136 562.854 195.063 563.217 193.174 563.29C191.721 563.363 184.165 563.508 181.841 563.29C178.208 562.999 169.345 544.619 168.545 541.931C167.746 539.17 167.528 537.136 165.857 534.593C162.661 529.653 148.566 518.755 145.515 518.61C142.464 518.464 125.318 518.828 120.087 520.208C117.545 520.862 115.147 522.315 112.75 523.405C111.587 523.913 104.54 528.635 102.07 530.234C101.416 530.67 99.3092 533.067 98.51 532.559C97.5656 531.977 99.5998 529.144 99.7451 528.417C100.036 526.892 99.8178 525.003 99.8178 523.405C99.8178 519.845 100.108 517.229 102.506 514.541C104.249 512.58 106.138 511.127 107.519 508.874C108.899 506.695 110.788 503.571 110.861 500.955C111.006 497.977 109.408 495.797 106.865 494.344C104.54 492.964 101.997 493.472 99.7451 491.874C97.6382 490.421 96.9117 489.695 94.2236 490.13C91.027 490.639 90.0825 489.477 88.8475 486.643C87.4671 483.374 87.3218 477.126 83.8346 475.382C81.655 474.293 77.5866 475.891 75.7703 474.147C73.954 472.404 76.8601 468.771 77.296 466.81C77.8045 464.121 77.9498 460.198 77.3686 457.51C76.7874 454.822 75.1165 452.497 74.2447 449.955C73.3002 447.412 72.5737 444.796 71.4113 442.254C70.7574 440.728 70.2489 439.711 70.2489 438.04C70.2489 436.514 70.3215 435.061 69.7403 433.681C67.4881 428.232 59.9324 428.45 57.317 423.51C56.0093 421.039 57.317 417.625 58.6974 415.663C60.8042 412.757 62.6205 413.702 65.4539 415.082C67.924 416.245 70.6121 417.407 73.3728 417.552C75.3344 417.625 75.9156 417.48 77.078 419.151C77.8045 420.095 78.2404 421.33 78.8943 422.202C81.2191 425.035 84.0525 422.42 86.8133 423.219C88.0483 423.582 88.9201 424.963 90.1552 424.963C92.3347 425.035 90.9544 423.292 90.0825 422.347C89.0654 421.257 87.9757 420.894 86.7406 420.095C85.5055 419.223 85.2876 418.642 84.779 417.116C83.8346 414.283 82.4542 412.83 80.4926 410.723C79.0396 409.125 78.967 406.945 80.7106 405.274C81.9456 404.112 83.4713 404.257 85.0696 404.257C87.0312 404.257 88.4116 404.62 89.2834 402.877C89.9372 401.569 89.7193 399.898 90.6637 398.445C91.3903 397.283 92.3347 396.048 93.1339 394.958C94.6596 392.996 94.4416 393.214 96.4032 393.868C98.8007 394.667 98.4374 394.449 100.399 393.069C101.707 392.124 102.288 391.398 103.886 392.27C105.412 393.142 105.702 394.595 107.591 395.103C109.262 395.539 111.369 395.394 113.186 395.321C116.818 395.176 120.814 394.304 124.011 396.193C127.28 398.082 130.041 400.988 133.31 402.877C134.981 403.821 143.554 405.492 141.592 401.569C140.43 399.317 135.417 397.428 133.6 395.757C130.331 392.851 130.985 390.308 133.528 387.329C138.25 381.808 145.806 374.979 145.297 367.06C145.079 363.791 143.772 359.141 145.588 356.09C146.532 354.491 149.075 354.128 149.511 353.038C150.092 351.658 148.639 348.897 148.058 347.662C146.169 343.812 144.425 342.068 140.357 340.47C137.959 339.525 134.618 337.782 132.002 338.435C129.677 339.017 129.314 341.414 126.626 341.341C124.446 341.269 122.993 340.47 121.25 339.235C118.344 337.128 116.164 334.367 113.331 332.187C110.57 330.008 107.01 329.063 103.741 328.119C96.6211 325.939 88.3389 328.482 82.0183 331.388C75.5524 334.367 70.0309 340.034 62.5479 339.743C59.1333 339.598 54.411 338.29 51.069 339.525C47.5818 340.833 46.9279 344.32 42.9321 341.341C40.462 339.453 38.4278 337.055 36.1029 335.021C33.9234 333.059 28.6199 330.516 30.8721 327.102C31.5259 326.085 33.7055 324.632 34.9405 324.777C36.3935 324.995 37.0474 327.102 38.4278 327.756C42.2056 329.499 45.4749 326.23 45.1843 322.67C44.5304 315.332 41.1885 307.777 38.4278 300.948C36.1756 295.426 34.7952 287.144 28.7652 284.383C25.7139 283.003 22.2266 281.55 18.9573 280.387C15.3974 279.08 12.1282 282.64 9.58537 279.443C8.20501 277.627 8.78622 276.392 8.49561 274.212C8.27766 272.541 6.82464 270.579 7.3332 268.836C7.98706 266.729 10.1666 268.037 10.6025 265.785C10.8204 264.767 9.65803 263.896 9.87598 262.733C10.0213 261.789 11.111 261.28 10.8204 260.263C10.5298 259.319 8.71356 258.301 7.9144 257.72C5.80753 256.195 3.3374 255.105 1.59378 253.071C0.0681102 251.327 -0.222493 249.583 0.140761 247.912C0.576666 245.951 5.44427 238.323 5.88018 237.741C6.82464 236.361 8.78622 234.835 10.0213 233.746C11.4743 232.438 13.2179 231.711 14.7436 230.622C16.0513 229.677 18.3761 228.587 18.7394 226.989C19.1026 225.245 14.3077 218.925 14.3077 217.254C14.3077 215.437 19.8291 205.121 21.5728 201.852C22.4446 200.253 23.2437 198.873 25.1327 198.437C26.8763 198.001 28.6926 198.074 30.4362 197.638C32.0345 197.202 34.0687 196.548 34.6499 194.805C35.3764 192.843 34.2867 191.172 34.2867 189.283C34.2867 187.322 41.1885 182.018 42.7868 181.8C45.9835 181.292 48.5989 188.484 49.3254 190.954C50.0519 193.279 54.9195 207.664 56.8811 208.027C58.6974 208.39 60.9495 207.809 62.6932 207.446C66.2531 206.719 71.266 206.066 70.3215 201.053C70.1762 200.253 69.595 199.527 69.377 198.728C69.1591 197.856 69.2317 196.839 69.377 195.894C69.7403 193.788 70.1036 192.189 69.9583 190.01C69.8856 188.048 69.7403 186.304 69.4497 184.416C69.3044 183.689 68.5052 182.454 68.9411 181.655C69.5223 180.783 70.9027 181.364 71.6292 181.655C73.5908 182.527 75.0438 183.18 77.2233 182.381C79.4029 181.51 80.8559 179.621 82.9628 178.531C84.4884 177.732 86.8132 178.168 88.121 176.933C89.574 175.625 89.2834 173.082 90.1552 171.484C90.9544 170.031 91.6082 168.214 93.4245 167.851C95.5314 167.415 96.3305 169.232 98.2194 169.522C100.108 169.813 102.215 168.941 103.741 167.779C105.63 166.326 106.938 166.035 109.262 165.817C111.006 165.672 113.258 165.89 114.856 165.381C119.07 163.928 119.361 158.842 122.194 156.154C123.575 154.847 125.536 155.646 127.134 154.701C128.006 154.12 128.66 153.394 129.677 153.248C131.421 153.03 131.929 154.701 133.165 155.355C134.109 155.791 135.489 155.718 136.506 156.009C138.177 156.445 141.665 157.535 140.866 159.932C140.357 161.458 137.596 162.184 137.814 164.001C137.959 165.817 141.374 165.236 142.609 164.945C143.408 164.8 144.425 164.146 145.297 164.364C146.678 164.655 146.169 166.689 147.767 166.326C148.857 166.035 150.02 164.364 150.673 163.565C151.836 162.257 153.507 160.368 155.323 159.932C157.357 159.424 158.447 161.676 160.263 160.804C161.498 160.223 163.169 157.535 164.259 158.915C165.204 160.223 167.02 169.086 167.383 169.813C168.4 171.556 170.943 170.321 172.541 171.12C173.486 171.556 173.849 172.138 174.939 172.283C175.811 172.428 176.755 172.428 177.627 172.501C179.516 172.573 181.623 171.992 183.439 172.428C186.854 173.155 191.358 176.497 191.503 180.202C191.576 181.873 190.922 184.416 192.302 185.578C194.845 187.685 198.26 186.377 199.931 189.864C201.093 192.335 201.02 195.531 202.837 197.711C203.781 198.8 206.106 200.326 207.632 199.963C209.521 199.527 210.029 197.275 211.482 196.33C213.371 195.168 215.115 197.42 216.277 198.655C217.512 199.89 218.965 200.907 220.346 202.07C222.089 203.595 222.017 205.048 222.67 206.937C223.252 208.463 224.632 210.425 225.722 211.587C227.102 213.113 229.136 212.241 230.662 213.694C231.752 214.711 232.406 217.108 233.859 217.617C236.474 218.634 241.632 214.275 243.231 212.531C244.538 211.078 245.12 209.48 245.773 207.736C246.137 206.792 246.5 205.993 247.517 205.775C248.534 205.484 249.115 206.066 249.914 206.356C252.385 207.083 253.184 204.54 254.201 202.869C254.564 202.215 255.363 200.617 256.235 200.617C257.18 200.617 258.051 202.288 258.56 202.942C260.304 205.048 260.812 201.997 262.338 201.416C263.21 201.053 264.154 201.779 265.026 201.997C267.06 202.506 268.876 201.779 270.838 201.997C276.214 202.506 273.017 208.318 276.359 210.933C278.466 212.604 279.483 209.843 281.736 209.989C282.971 210.061 283.479 210.425 284.424 209.407C285.15 208.608 285.368 207.519 285.949 206.574C286.894 204.83 288.855 204.104 290.744 205.266C292.633 206.356 293.723 206.719 295.757 205.412C297.355 204.395 298.663 202.433 300.552 204.104C301.932 205.412 303.24 207.083 304.33 208.608C305.492 210.279 304.766 212.314 305.129 214.202C305.492 216.091 306.945 217.69 308.253 218.997C311.159 221.758 314.937 223.284 318.715 224.01C320.458 224.374 322.202 224.737 323.8 225.463C324.382 225.681 325.471 225.972 325.689 226.771C325.98 228.079 324.672 227.933 324.164 228.515C322.275 230.549 325.544 231.13 326.997 230.912C328.377 230.694 330.484 229.604 331.429 228.733C332.809 227.498 333.899 226.045 334.698 224.374C335.134 223.502 335.57 222.63 336.006 221.758C336.369 221.104 336.66 219.651 337.241 219.215C338.04 218.489 339.711 218.852 340.51 219.361C342.472 220.523 343.198 223.138 345.014 224.592C348.211 227.062 351.989 227.425 355.767 226.771C359.472 226.117 363.468 225.899 366.955 224.737C370.66 223.574 372.186 218.561 373.13 215.292C373.639 213.476 373.857 211.442 374.656 209.698C375.528 207.954 377.417 206.647 377.78 204.758C378.797 200.253 371.241 199.6 368.335 199.309C366.664 199.091 364.703 199.091 363.177 198.219C361.288 197.129 361.942 195.676 361.143 194.078C359.981 191.681 355.404 190.882 353.079 190.373C351.262 190.01 349.156 189.937 350.391 187.685C351.408 185.723 352.062 184.706 349.446 183.98C347.703 183.471 345.741 183.398 344.07 182.817C342.399 182.163 341.818 180.274 341.6 178.604C341.164 175.915 342.835 176.569 344.869 176.206C346.758 175.915 348.647 175.262 349.882 173.663C351.044 172.065 351.844 170.903 353.951 171.338C355.839 171.774 356.639 172.573 358.528 171.266C360.198 170.176 361.724 169.014 363.322 167.851C364.993 166.689 365.575 165.599 365.575 163.565C365.575 161.385 365.357 160.295 364.194 158.479C363.105 156.808 362.015 155.355 360.78 153.83C357.583 149.834 364.267 148.235 366.229 145.62C367.246 144.24 366.664 142.133 368.045 141.043C369.207 140.099 371.314 140.316 372.694 140.244C374.438 140.171 376.69 139.517 378.289 140.316C379.742 141.043 380.323 142.423 382.139 142.569C384.101 142.714 385.772 142.859 387.733 142.932C389.186 143.005 392.092 143.731 392.746 142.133C393.4 140.462 392.964 138.137 391.438 137.338C388.242 135.594 384.609 134.722 381.267 133.269C379.669 132.543 378.143 131.598 376.472 131.017C375.165 130.509 372.331 130.436 371.968 128.692C371.75 127.385 372.84 124.479 373.929 123.897C374.801 123.461 375.6 124.043 376.4 124.261C377.271 124.551 377.925 124.479 378.724 124.188C380.468 123.534 381.63 122.808 381.413 120.773C381.195 118.521 378.797 120.265 377.417 120.555C375.6 120.919 374.438 120.265 372.84 119.393C371.75 118.812 369.062 119.175 368.335 118.231C367.391 116.996 371.096 115.397 371.895 114.743C373.203 113.581 375.092 112.273 373.421 110.675C372.404 109.73 369.934 109.004 369.353 107.696C369.062 107.042 369.353 105.735 369.716 105.226C370.37 104.282 371.096 104.718 372.113 105.008C372.84 105.226 373.639 105.662 374.365 105.226C375.31 104.645 375.528 102.974 376.4 102.247C377.344 101.376 378.87 101.085 379.96 101.812C381.195 102.683 381.776 105.226 383.374 105.589C384.246 105.807 385.118 105.081 386.062 105.153C387.007 105.153 387.515 105.589 388.314 106.025C389.549 106.752 392.238 107.188 393.473 106.098C394.344 105.299 394.054 104.282 395.216 103.7C396.088 103.265 402.772 102.901 402.554 104.936C402.409 106.025 401.246 106.243 402.118 107.478C402.917 108.641 403.571 108.132 404.225 107.188C405.387 105.371 405.678 103.482 407.712 102.756C409.819 101.957 415.558 102.829 416.43 102.465C417.593 102.029 417.52 101.376 418.101 100.504C419.191 98.9055 422.097 99.2687 423.913 99.1961C425.948 99.1234 427.328 97.5251 429.435 97.6704C430.379 97.7431 431.324 97.961 432.268 98.3969C432.995 98.6875 433.794 99.414 434.593 99.4867C435.61 99.5593 436.191 98.9055 436.482 97.961C436.772 96.7986 436.555 96.4354 437.644 95.7815C439.388 94.7644 450.721 93.1661 451.593 93.5293C452.974 94.1105 454.063 95.1276 455.516 94.1105C456.534 93.384 457.042 92.149 458.495 92.8755C459.875 93.5293 460.747 95.9995 462.273 96.1448C464.234 96.2901 464.017 92.6575 464.017 91.3498C464.017 89.1703 465.179 88.4438 467.141 87.8626C467.94 87.6446 468.884 87.6446 469.611 87.2087C470.41 86.7001 470.41 85.901 470.918 85.2471C472.299 83.5762 474.188 85.683 475.859 85.1018C477.893 84.448 478.329 81.9052 480.581 83.5762C482.325 84.8112 483.85 84.5206 485.884 83.8668C487.773 83.2855 489.59 82.7043 491.551 82.1958C493.44 81.6872 495.329 81.4693 497.218 80.8154C499.18 80.0889 501.432 79.3624 503.393 78.9265C504.338 78.7085 505.355 78.6359 506.299 78.3453C507.171 78.0547 507.825 77.4008 508.624 76.9649C510.513 75.8752 512.475 76.4564 514.436 76.1658C516.616 75.8752 518.141 74.2042 519.812 72.9691C521.701 71.5888 523.59 71.3708 525.915 71.2982C527.368 71.2255 530.129 71.3708 530.855 69.7725C531.364 68.6827 530.347 67.7383 529.766 66.9391C529.112 65.922 528.603 64.7596 529.62 64.0331C530.637 63.3066 532.744 63.3792 533.907 63.1613C535.796 62.8707 537.539 63.016 538.048 60.9091C538.338 59.674 538.193 57.5671 539.937 57.5671C541.826 57.5671 543.497 59.3834 544.441 56.9859C545.168 55.1697 545.168 53.3534 547.783 54.2252C549.672 54.8791 549.672 56.9859 551.997 56.2594C553.813 55.6782 555.339 55.0244 557.228 55.8962C558.971 56.6953 560.788 57.3492 562.241 58.5843C564.929 60.7638 568.343 64.3237 572.048 62.9433C575.826 61.5629 576.19 55.8235 581.348 57.0586C583.382 57.5671 585.271 59.4561 586.651 60.9817C588.25 62.7254 588.322 64.469 588.54 66.7212C588.685 68.7554 589.121 71.0802 589.703 73.0418C590.356 75.1487 591.955 76.3111 593.553 77.7641C595.224 79.2898 596.459 79.7983 595.151 82.1231C594.134 83.9394 593.916 85.4651 594.716 87.4993C595.224 88.807 597.113 91.7857 595.733 92.8755C594.425 93.9652 591.156 92.8028 591.519 95.2729C591.664 96.2901 592.827 99.1961 593.626 99.9226C595.587 101.594 597.258 98.3969 599.002 97.8884C599.583 97.6704 600.746 97.6704 601.254 98.1063C601.981 98.6149 601.835 99.414 602.417 99.9953C602.78 100.359 604.669 100.722 605.177 100.431C606.558 99.7773 605.831 96.508 606.921 95.4909C608.229 94.2558 610.771 95.5635 612.152 95.8541C614.767 96.3627 614.985 94.6917 614.622 92.5849C614.477 91.4951 614.331 90.7686 615.421 90.4053C616.511 90.0421 617.383 90.478 618.254 91.1318C618.981 91.7131 619.853 92.6575 620.216 93.5293C620.724 94.7644 619.998 95.055 619.853 96.0721C619.635 97.3798 620.797 97.0892 621.669 97.7431C622.395 98.3243 622.541 99.1234 622.468 100.068C622.395 101.448 621.16 104.863 622.904 105.444C625.302 106.316 625.592 102.393 625.592 100.867C625.592 99.7046 625.229 98.9781 626.173 98.2516C626.972 97.6704 628.28 97.3798 629.225 97.2345C630.75 97.0892 633.729 96.726 634.819 97.961C636.199 99.414 635.109 102.175 637.362 102.829C638.597 103.192 640.122 102.901 641.43 102.974C642.665 103.047 644.336 103.337 645.498 102.974C647.024 102.465 646.951 100.794 647.896 99.7046C648.55 99.0508 650.366 97.5978 651.31 98.1063C652.618 98.9055 652.764 102.611 652.836 103.918C652.909 105.008 653.127 106.243 652.11 106.679C651.311 107.042 649.712 106.752 648.84 106.824C647.969 106.897 646.806 106.824 646.007 107.042C644.772 107.406 644.336 108.495 643.682 109.513C642.447 111.256 641.648 113.508 642.302 115.615C642.883 117.431 645.063 118.884 646.661 119.684C648.84 120.773 649.422 118.013 650.584 116.56C651.892 114.961 653.926 116.269 655.524 115.034C656.178 114.525 656.541 113.944 657.341 113.654C658.576 113.218 658.721 113.654 659.665 114.38C660.9 115.325 660.973 114.816 662.135 114.453C663.371 114.09 664.242 114.743 665.042 115.543C665.623 116.124 666.349 117.068 667.148 117.359C668.383 117.795 668.529 116.85 668.747 115.76C669.037 114.162 668.674 111.183 670.636 110.602C671.943 110.166 672.379 110.82 673.106 109.295C673.614 108.35 673.76 107.042 674.486 106.243C675.794 104.79 678.264 105.589 680.008 105.299C681.461 105.081 682.696 103.773 683.64 102.756C684.657 101.666 685.892 100.649 686.764 99.4867C687.636 98.2516 688.145 97.0892 687.927 95.6362C687.491 93.0208 690.251 92.2943 692.213 91.4224C693.157 90.9865 694.029 90.6959 694.901 90.26C696.645 89.5335 698.388 88.4438 700.132 87.7173C701.876 87.0634 703.547 86.3369 704.128 84.448C704.346 83.7215 704.128 82.3411 704.491 81.7599C704.927 81.0334 706.017 81.0334 706.816 80.9607C708.705 80.7428 710.594 80.8881 712.192 79.7257C713.863 78.4906 715.098 76.0205 717.06 77.6914C718.658 79.0718 719.094 80.0163 718.222 82.0505C717.568 83.6488 717.278 85.7557 715.752 86.5548C714.154 87.4266 711.901 86.8454 710.23 87.4267C707.688 88.2985 710.884 91.2045 711.756 92.4396C713.064 94.4011 741.688 111.183 747.718 117.141C750.334 119.684 752.441 122.88 754.693 125.714C759.706 132.034 764.719 138.428 769.659 144.748C775.543 152.304 781.428 159.787 787.386 167.27C792.762 174.026 798.138 180.783 803.659 187.54C806.783 191.39 809.907 195.241 813.467 198.655C814.848 199.963 815.937 197.638 816.882 196.476C817.754 195.459 818.916 194.296 819.425 193.061C820.078 191.463 819.57 189.646 819.061 188.048C818.771 187.031 817.681 185.142 818.044 184.052C818.48 182.745 820.66 182.89 821.677 182.091C822.331 181.655 822.621 181.074 822.767 180.347C822.912 179.475 822.403 178.676 823.13 178.022C823.856 177.368 826.109 177.223 827.053 177.368C828.942 177.659 828.942 178.967 830.395 179.621C831.703 180.274 833.737 179.257 834.754 179.693C836.498 180.42 835.989 182.89 835.698 184.343C835.48 185.505 835.117 186.595 834.899 187.758C834.536 190.082 835.481 189.065 837.006 188.266C837.733 187.903 838.677 187.54 839.476 187.394C841.22 187.031 843.036 187.322 844.199 188.775C844.852 189.574 845.143 190.518 845.216 191.463C845.288 192.189 845.07 193.497 845.579 194.005C846.814 195.313 849.139 194.441 850.374 193.715C853.716 191.753 857.203 192.48 861.054 192.625C863.451 192.77 864.468 191.971 866.43 190.736C868.101 189.719 869.917 189.864 871.515 188.92C873.477 187.758 873.84 185.505 874.857 183.616C876.165 181.146 877.981 183.108 880.015 182.091C881.614 181.292 882.05 178.386 883.503 177.15C885.101 175.77 887.135 175.407 889.242 175.625C891.204 175.843 893.238 176.715 895.054 177.15C896.87 177.586 898.687 178.313 900.576 178.749C901.375 178.967 902.465 178.894 903.191 179.548C904.063 180.347 903.7 181.437 904.354 182.381C905.589 184.27 907.913 185.578 909.366 187.322C911.764 190.155 911.619 194.732 914.452 197.202C916.196 198.728 918.157 198.292 920.337 198.437C923.461 198.728 926.439 199.818 929.563 200.108C931.67 200.326 933.632 199.672 934.14 202.215C934.576 204.177 933.922 206.356 936.029 207.373C937.991 208.318 939.299 209.407 940.388 211.369C941.26 212.895 941.769 214.42 943.076 215.655C944.747 217.254 946.273 216.237 948.089 215.147C949.906 214.057 950.995 212.822 953.102 213.621C953.974 213.984 954.846 214.566 955.79 214.638C956.807 214.711 957.679 214.202 958.696 214.202C960.731 214.13 961.675 216.237 963.855 215.583C964.799 215.292 965.38 214.493 966.325 214.275C967.56 213.984 967.705 214.057 968.432 213.04C969.594 211.369 970.466 209.771 971.338 207.882C972.137 206.138 972.791 204.177 973.59 202.506C974.171 201.271 976.423 199.018 977.949 199.745C979.62 200.471 979.838 203.305 979.402 204.685C978.675 206.647 976.786 208.608 979.693 209.335C981.581 209.843 983.107 210.643 984.633 211.95C986.231 213.403 987.975 214.566 989.573 216.164C990.663 217.326 992.188 218.344 993.787 218.707C995.53 219.07 997.565 218.271 998.872 219.797C1001.49 222.703 997.201 222.921 995.167 223.138C993.351 223.284 991.825 223.574 990.227 224.374C986.449 226.335 985.141 229.75 987.611 233.382C989.791 236.434 989.718 239.848 988.992 243.481C988.411 246.169 986.449 248.203 984.487 249.947C982.381 251.836 980.128 253.797 977.513 255.032C975.624 255.904 973.662 256.631 971.701 257.284C970.393 257.793 968.359 258.156 967.85 259.682C967.269 261.28 967.269 263.75 967.051 265.421C966.615 269.199 966.179 273.268 966.906 276.973C967.778 280.969 970.103 285.691 971.919 289.323C973.227 291.866 974.68 294.409 975.479 297.17C975.987 298.841 976.859 301.02 976.205 302.764C975.406 304.943 974.534 307.486 973.299 309.375C971.556 311.918 967.778 311.337 965.743 313.734C964.944 314.679 964.145 315.478 963.564 316.568C962.62 318.238 961.312 319.619 960.367 321.217C959.931 321.944 959.496 323.033 958.406 322.67C957.752 322.452 957.316 321.29 957.025 320.709C956.008 318.674 954.701 318.238 952.448 318.166C948.453 317.948 944.602 319.764 941.115 321.58C939.371 322.452 937.7 323.324 935.593 323.324C933.632 323.324 931.888 323.179 930.072 322.743C926.512 321.871 922.952 320.418 919.465 319.474C917.794 319.038 916.268 318.021 914.67 317.73C912.854 317.367 910.747 318.456 910.965 320.273C911.255 323.033 912.2 325.721 912.345 328.482C912.636 334.512 911.11 340.47 910.166 346.354C909.148 352.602 908.277 358.923 907.478 365.244C907.042 368.803 906.606 372.363 906.17 375.923C905.952 377.885 905.661 379.919 905.589 381.881C905.516 384.351 907.114 385.15 909.294 385.731C910.529 386.022 911.909 386.385 913.144 386.53C914.961 386.821 915.106 387.547 915.106 389.364C915.106 390.962 914.961 392.488 914.888 394.086C914.815 395.394 914.961 397.065 914.597 398.372C912.926 399.607 911.473 398.154 910.02 397.283C908.204 396.12 906.969 395.684 905.08 396.919C903.264 398.082 896.943 402.731 895.2 400.334C893.964 398.59 894.473 396.629 891.858 396.048C890.768 395.83 889.605 395.83 888.661 396.411C886.99 397.428 885.61 398.808 884.011 399.753C883.212 400.261 876.02 404.33 874.349 405.202C870.789 407.09 866.793 407.817 863.233 409.488C861.635 410.214 854.878 412.757 853.135 413.629C851.246 414.574 845.143 418.715 846.305 421.112C848.485 425.616 853.571 421.112 856.767 421.766C858.293 422.057 860.182 423.001 861.562 423.655C864.032 424.89 862.289 426.125 861.417 427.869C860.545 429.54 861.054 431.719 861.199 433.463C861.417 435.424 861.635 437.459 861.853 439.42C862.289 443.707 863.451 446.54 865.631 450.245C866.793 452.279 871.515 460.271 872.896 462.233C875.003 465.139 877.836 468.771 877.037 472.476C876.819 473.421 876.238 474.438 876.746 475.382C877.182 476.181 878.272 476.181 878.998 476.69C880.161 477.562 881.323 480.25 881.105 481.63C880.597 485.118 872.024 484.609 872.823 488.75C873.186 490.639 876.383 489.985 877.037 491.801C877.618 493.472 874.203 494.853 872.896 495.361C870.644 496.378 869.263 496.887 868.537 499.284C867.955 501.028 867.011 502.844 867.52 504.733C867.883 506.114 868.827 507.276 869.408 508.511C870.062 509.746 870.716 511.127 871.443 512.362C872.678 514.396 873.186 516.939 873.695 519.191C874.712 523.622 869.99 519.409 868.755 518.101C867.447 516.721 866.284 514.977 864.614 514.033C861.707 512.289 856.404 512.725 853.28 513.379C851.827 513.669 849.938 514.396 848.485 513.597C846.959 512.798 846.16 510.981 845.216 509.601C844.78 507.712 844.126 505.823 842.673 504.733Z" fill="white"/>
</svg>
