<svg width="1000" height="663" viewBox="0 0 1000 663" fill="none" xmlns="http://www.w3.org/2000/svg">
<path d="M391.495 170.119C391.495 170.119 393.768 159.197 394.766 156.147C395.764 153.098 397.816 148.773 397.816 148.773L400.588 144.227L398.537 134.857L402.584 126.983L405.135 116.56C405.135 116.56 403.859 114.287 411.455 112.235C419.051 110.184 427.7 106.414 427.7 106.414C427.7 106.414 431.748 107.689 434.298 106.414C436.849 105.138 437.071 100.093 437.071 100.093C437.071 100.093 435.795 96.0454 439.344 95.5464C442.892 95.0474 445.664 97.8197 445.664 97.8197V99.8711L460.856 97.3207V91L466.179 97.0989C466.179 97.0989 474.052 98.5959 476.048 100.647C478.099 102.699 480.095 104.695 480.095 104.695L488.19 105.693L501.608 119.388L517.354 123.213L545.52 138.183L567.809 141.233L578.953 140.235C578.953 140.235 580.727 142.009 583.777 142.785C586.826 143.561 594.699 141.787 595.198 137.185C595.697 132.639 597.25 130.587 597.25 130.587C597.25 130.587 602.849 127.538 616.544 128.536C630.239 129.534 632.29 129.312 632.29 129.312L644.987 129.035C644.987 129.035 650.587 133.082 653.858 133.859C657.13 134.635 656.631 130.033 658.405 129.312C660.179 128.536 666.001 129.811 669.826 130.587C673.652 131.364 676.147 129.09 676.147 129.09H683.244L689.066 125.043L698.713 119.221L707.085 121.273L717.73 123.823L722.055 127.649L731.203 128.647C731.203 128.647 739.298 130.421 740.074 128.148C740.851 125.875 742.847 125.098 742.847 125.098L753.215 128.647C753.215 128.647 753.492 130.698 756.264 130.698C759.036 130.698 762.363 127.926 762.363 127.926L775.282 128.924C775.282 128.924 772.731 130.698 776.28 132.195C779.828 133.692 781.602 129.423 781.602 129.423L787.923 130.698L800.62 132.195L816.089 130.698H824.96L834.607 127.649L842.48 130.698L848.302 132.75L855.898 136.797L866.321 136.021C866.321 136.021 866.321 139.07 871.145 139.07C875.969 139.07 878.741 137.573 878.741 137.573C878.741 137.573 878.464 139.847 882.567 140.346C886.614 140.845 890.662 135.522 890.662 135.522C890.662 135.522 897.259 134.524 897.758 136.52C898.257 138.571 895.485 143.617 897.758 148.44C900.032 153.264 910.677 156.036 910.677 156.036C910.677 156.036 918.051 161.858 917.774 165.684C917.497 169.509 917.497 173.557 922.598 174.278C927.643 175.054 940.617 172.781 940.617 172.781C940.617 172.781 945.163 171.284 949.488 172.503C953.813 173.779 961.409 174.444 961.409 174.444L964.181 172.781C964.181 172.781 968.727 175.553 969.504 177.105C970.28 178.602 974.05 182.927 974.05 182.927L982.921 190.024L990.517 200.447L994.343 209.041C994.343 209.041 1000.28 211.592 998.556 215.362C996.838 219.188 989.519 222.182 978.596 221.461C967.674 220.685 960.854 223.512 959.08 228.558C957.306 233.603 958.304 240.201 954.534 241.476C950.708 242.751 942.89 241.476 942.89 241.476C942.89 241.476 937.845 248.074 934.296 248.296C930.748 248.573 924.427 256.668 924.427 256.668C924.427 256.668 918.606 254.894 915.279 254.118C912.008 253.341 911.73 258.664 906.131 260.937C900.531 263.21 889.664 266.537 889.664 266.537C889.664 266.537 887.39 273.135 881.07 273.357C874.749 273.634 869.648 282.505 869.648 282.505L859.225 284.279C859.225 284.279 857.728 294.426 855.177 294.703C852.627 294.98 843.756 296.754 843.756 296.754C843.756 296.754 834.607 304.627 832.112 305.903C829.562 307.178 832.389 318.322 832.389 318.322L820.968 330.742C820.968 330.742 808.77 347.985 805.776 347.209C802.727 346.433 782.933 345.157 782.933 345.157C782.933 345.157 774.339 354.306 771.012 353.751C767.741 353.252 763.139 353.751 763.139 353.751C763.139 353.751 762.141 355.026 758.316 355.525C754.49 356.024 744.898 351.201 744.898 351.201C744.898 351.201 736.304 354.472 734.475 354.25C732.7 353.973 725.603 351.7 725.603 351.7L716.233 351.977L708.36 349.427L689.343 362.345C689.343 362.345 691.616 372.214 688.567 374.266C685.517 376.317 678.143 385.687 678.143 385.687L679.917 401.156L669.494 410.804L667.997 421.726L658.349 429.322L652.749 433.647L648.425 423.5C648.425 423.5 644.377 421.726 643.379 424.498C642.381 427.271 638.334 431.595 637.28 431.595C636.282 431.595 630.461 428.324 630.461 428.324L619.039 433.647L609.891 440.245H594.145C594.145 440.245 590.873 438.193 590.873 434.423C590.873 430.597 592.37 425.552 592.37 425.552L589.82 419.231L585.773 416.182L586.272 402.21C586.272 402.21 582.446 396.111 579.175 398.384C575.903 400.657 560.434 415.904 560.434 415.904L549.512 423.279C549.512 423.279 544.189 422.281 539.366 422.502C534.542 422.78 524.396 418.677 524.396 418.677L519.073 415.627C519.073 415.627 512.974 419.453 512.475 422.724C511.976 425.995 513.75 430.819 513.75 430.819L520.348 433.868C520.348 433.868 521.845 440.466 519.849 440.189C517.798 439.912 511.255 440.189 511.255 440.189L505.434 436.862C505.434 436.862 496.063 441.409 494.289 443.682C492.515 445.955 478.044 462.422 478.044 462.422C478.044 462.422 469.949 465.694 466.401 465.694C462.852 465.694 461.355 461.646 461.355 461.646L449.435 465.694L443.835 470.018H439.011C439.011 470.018 430.417 484.711 430.14 488.259C429.863 491.808 422.544 496.354 422.544 496.354L423.542 506.501C423.542 506.501 430.639 513.875 430.639 519.419C430.639 525.019 429.364 527.015 429.364 527.015L424.318 537.938C424.318 537.938 408.073 539.213 405.301 539.213C402.529 539.213 393.103 537.161 393.103 537.161C393.103 537.161 385.729 540.433 382.957 542.484C380.185 544.536 379.131 548.805 379.131 548.805L359.836 551.355C359.836 551.355 352.241 552.353 345.864 551.355C339.544 550.357 325.073 549.581 325.073 549.581C325.073 549.581 318.253 543.759 313.429 545.534C308.606 547.308 300.733 549.359 300.012 549.359C299.291 549.359 288.59 550.135 288.59 550.135C288.59 550.135 281.216 557.51 280.717 562.056C280.218 566.602 274.896 571.925 273.343 571.925C271.846 571.925 269.296 566.103 269.795 563.054C270.294 560.005 263.696 558.009 263.696 558.009L261.423 546.864C261.423 546.864 249.779 547.862 246.453 551.411C243.181 554.959 237.859 559.007 234.033 556.733C230.207 554.46 226.437 549.137 229.209 547.086C231.982 545.035 235.807 539.49 233.035 536.94C230.263 534.389 227.435 534.389 225.439 535.443C223.388 536.441 218.841 536.94 217.067 536.94C215.293 536.94 207.697 531.34 207.697 531.34C207.697 531.34 210.746 528.568 211.523 526.793C212.299 525.019 214.073 518.199 208.972 517.645C203.927 517.146 197.828 519.142 197.828 519.142L189.955 523.688L187.182 527.736L178.589 526.96H168.442L164.617 533.779C164.617 533.779 162.343 540.876 160.292 540.599C158.24 540.322 148.371 538.825 148.371 538.825L135.952 540.599L134.455 530.175L129.132 524.853C129.132 524.853 130.906 518.532 125.584 517.257C120.261 515.982 117.711 515.76 117.711 515.76C117.711 515.76 112.665 511.435 109.616 512.71C106.566 513.986 102.519 517.035 102.519 517.035L94.6457 520.306L88.325 521.083C88.325 521.083 90.3764 518.31 91.5962 515.261C92.8714 512.211 88.325 510.936 88.325 510.936L82.7251 514.207L81.7271 518.033C81.7271 518.033 75.6282 513.209 72.856 514.207C70.0838 515.205 67.0343 519.031 67.0343 519.031C67.0343 519.031 64.2621 515.205 61.2127 515.982C58.1632 516.758 53.6168 518.255 53.6168 518.255C53.6168 518.255 49.2921 512.932 43.9694 511.934C38.6468 510.936 34.5993 510.936 31.7717 512.71C28.9994 514.485 26.948 516.259 26.948 516.259L13.5304 517.756C13.5304 517.756 11.479 511.657 7.20978 513.93C2.88511 516.203 3.38411 509.606 4.93656 505.059C6.43356 500.513 6.54444 497.962 3.82767 494.913C1.27722 492.141 1 486.319 1 486.319L3.55044 475.175L8.37411 463.254C8.37411 463.254 11.6453 461.757 13.4196 464.252C15.1938 466.802 15.6928 473.123 15.6928 473.123C15.6928 473.123 26.3381 474.398 27.6133 471.349C28.8886 468.299 26.1163 465.25 26.1163 465.25L24.8411 453.607L28.6668 447.286C28.6668 447.286 28.1678 449.06 33.7122 450.058C39.3121 451.056 52.4524 445.013 52.4524 445.013L67.6442 440.466C67.6442 440.466 73.9649 438.969 78.2896 441.464C82.6142 444.015 88.9349 449.337 91.9843 449.337C95.0338 449.337 99.0812 450.335 99.0812 450.335L100.855 455.381L108.95 455.88L117.322 459.428L121.148 461.979C121.148 461.979 119.651 467.024 118.875 467.301C118.099 467.579 111.501 472.347 112.554 473.899C113.552 475.396 119.152 476.173 119.152 476.173L131.849 471.127L131.073 455.935L138.447 454.161L143.769 453.385C143.769 453.385 145.266 448.561 150.09 448.561C154.914 448.561 156.189 450.834 159.737 449.06C163.286 447.286 165.06 439.191 165.06 439.191C165.06 439.191 170.106 434.866 176.981 436.918C183.8 438.969 188.624 437.417 188.624 437.417L188.901 430.819C188.901 430.819 193.448 431.595 195.721 432.87C197.994 434.146 201.543 436.419 201.543 436.419L209.138 438.692C209.138 438.692 207.364 444.292 207.364 445.013C207.364 445.789 215.736 448.284 215.736 448.284L221.336 448.007L221.613 442.407L225.938 439.856L227.435 447.951L227.158 452.997C227.158 452.997 237.581 453.274 238.08 451.223C238.579 449.171 240.631 443.349 240.631 443.349L246.952 443.848L254.825 444.625L259.87 442.351L258.096 437.805L252.496 435.754L260.591 430.431L265.636 429.156L266.912 421.782L274.008 416.459C274.008 416.459 283.656 415.461 282.88 417.734C282.103 420.007 281.105 422.059 281.105 422.059L288.479 423.334C288.479 423.334 288.479 428.158 292.527 428.158C296.574 428.158 298.626 423.833 298.626 423.833L295.355 415.96L291.03 413.687L292.804 408.364L290.032 402.764C290.032 402.764 290.808 399.493 293.858 400.214C296.907 400.99 300.178 405.037 300.178 405.037L306.277 406.812L310.325 410.859C310.325 410.859 312.099 413.908 314.372 413.132C316.645 412.356 317.421 408.586 317.421 408.586L318.918 405.315L325.017 407.089L326.792 407.366L328.289 406.091L330.063 397.996L332.336 394.447L341.706 390.622L350.078 386.297L364.05 381.252C364.05 381.252 368.098 374.432 364.826 373.878C361.555 373.379 355.456 375.153 355.456 375.153L348.858 369.941L342.538 377.537L337.492 373.212L334.443 370.052H321.025C321.025 370.052 317.477 372.99 314.705 366.892C311.932 360.793 307.885 360.793 307.885 360.793L303.339 354.472L298.293 350.924L292.194 348.872L284.321 351.423C284.321 351.423 276.448 358.519 275.672 355.969C274.896 353.419 278.943 345.823 278.943 345.823L275.894 331.518C275.894 331.518 270.072 329.855 268.298 331.518C266.523 333.181 265.248 334.678 265.248 334.678L259.427 331.518L253.106 333.403L249.28 331.518C249.28 331.518 250.056 326.583 250.056 319.986C250.056 313.388 246.231 306.79 246.231 306.79L242.183 301.744L236.362 301.245L234.587 296.921L236.639 292.374L235.142 287.052C235.142 287.052 227.768 285 227.269 289.325C226.77 293.649 227.768 297.919 227.768 297.919L230.318 302.742L224.718 315.661L216.124 314.386L210.303 310.56L209.305 336.952C209.305 336.952 206.754 339.225 203.206 335.676C199.657 332.128 198.16 335.954 198.16 335.954L192.561 336.231L193.337 329.633L189.788 328.136L186.517 334.457L185.519 338.504L178.422 331.518C178.422 331.518 175.373 328.857 171.048 328.08C166.723 327.304 163.951 327.082 163.951 327.082L156.355 320.485L152.031 322.758L148.981 316.936C148.981 316.936 152.807 314.885 152.252 308.342C151.753 301.744 148.205 299.97 148.205 299.97C148.205 299.97 146.93 292.097 138.835 295.424C130.74 298.695 128.19 301.245 124.863 299.97C121.592 298.695 119.54 292.097 119.54 292.097C119.54 292.097 117.267 288.271 111.168 288.05C105.069 287.772 98.4713 286.774 98.4713 286.774C98.4713 286.774 95.9209 283.725 97.4733 280.675C98.9703 277.626 128.91 262.656 128.91 262.656L130.685 256.058L145.156 243.14C145.156 243.14 144.657 242.363 150.478 242.641C156.3 242.918 160.902 243.417 161.9 241.365C162.898 239.314 161.623 230.942 161.623 230.942C161.623 230.942 163.397 227.393 167.222 227.892C171.048 228.391 172.268 231.441 173.82 229.667C175.317 227.892 184.965 220.296 184.965 220.296C184.965 220.296 198.16 217.524 199.657 214.697C201.154 211.924 200.434 209.097 197.883 207.877C195.333 206.602 186.24 201.778 184.965 200.281C183.689 198.784 183.468 197.509 178.367 198.507C173.321 199.505 170.993 202.554 170.993 202.554H167.721L163.674 196.234C163.674 196.234 171.27 192.186 171.547 187.861C171.824 183.537 172.822 180.487 172.822 180.487L175.373 175.941C175.373 175.941 175.373 179.489 179.697 178.99C184.022 178.491 184.743 172.891 184.743 172.891L179.919 169.066L178.921 165.517L184.244 162.745C184.244 162.745 187.792 162.468 189.289 161.969C190.786 161.47 193.337 160.195 192.561 157.145C191.784 154.096 191.784 151.046 191.784 151.046C191.784 151.046 194.557 152.322 198.105 150.048C201.653 147.775 201.376 144.726 201.376 144.726L205.701 145.225L211.523 144.448L214.073 140.401L224.718 140.124C224.718 140.124 225.495 144.67 229.043 145.169C232.591 145.668 236.916 139.847 236.916 139.847L250.611 139.348C250.611 139.348 252.662 135.023 255.157 135.799C257.708 136.575 260.757 139.348 260.757 139.348L267.577 141.621L275.949 147.442L281.272 144.892L293.691 145.169L299.291 150.215L307.663 153.486L309.715 157.533L321.358 156.757C321.358 156.757 329.73 159.308 332.003 160.805C334.277 162.302 334.055 165.351 336.827 168.4C339.599 171.45 351.52 176.274 356.122 174.721C360.668 173.224 365.492 172.448 365.492 172.448C365.492 172.448 368.541 175.22 372.09 176.274C375.638 177.272 382.735 176.551 382.735 176.551L383.511 189.968C383.511 189.968 385.008 189.691 387.836 188.97C390.608 188.194 392.881 188.194 394.656 189.469C396.43 190.745 399.978 195.069 400.754 191.521C401.531 187.972 398.703 183.648 398.703 183.648L392.382 178.048L391.495 170.119Z" fill="white"/>
</svg>
