<svg width="1000" height="663" viewBox="0 0 1000 663" fill="none" xmlns="http://www.w3.org/2000/svg">
<g clip-path="url(#clip0_163:715)">
<path d="M998.666 351.725C997.333 351.131 995.258 351.354 993.777 350.982C991.925 350.537 990.962 349.647 989.109 350.686C987.628 351.502 987.109 352.764 985.109 351.947C983.257 351.205 983.034 350.314 980.664 350.76C977.478 351.354 974.515 353.283 971.477 351.057C969.032 349.275 967.477 346.232 964.81 345.045C963.106 344.229 962.439 343.635 961.031 342.447C959.772 341.408 958.216 341.482 956.734 341.111C953.697 340.221 953.475 336.807 950.511 340.369C948.437 342.893 945.473 343.857 943.547 340.518C941.991 337.697 943.769 333.318 941.325 331.314C938.287 328.791 935.99 332.131 932.953 332.057C931.323 332.057 930.212 331.092 928.508 331.018C926.063 330.943 923.915 332.873 923.026 330.053C922.581 328.568 923.1 326.787 922.729 325.228C922.211 323.299 921.322 321.517 920.507 319.662C918.951 316.099 916.062 314.838 913.024 313.279C910.357 311.943 911.024 306.303 907.616 306.599C903.838 306.97 906.875 313.205 907.245 315.283C907.69 318.178 907.912 322.26 905.467 324.189C904.208 325.154 902.282 325.599 900.8 324.932C899.541 324.338 899.096 322.408 897.911 322.185C891.91 321.221 900.133 339.107 896.725 340.666C894.873 341.482 894.651 338.736 893.169 338.514C891.095 338.217 891.465 341.408 889.391 340.146C887.983 339.256 888.502 336.807 886.724 336.139C884.575 335.322 883.983 337.697 883.094 339.107C880.871 342.521 877.463 337.549 874.5 336.881C872.87 336.51 871.314 336.732 869.684 337.103C867.314 337.697 866.943 337.846 865.387 335.693C864.276 334.135 863.535 333.393 861.609 333.021C859.757 332.65 858.868 332.947 857.979 331.018C857.386 329.682 857.609 327.9 857.386 326.416C857.164 324.709 856.497 323.224 855.905 321.592C852.793 312.834 846.273 317.361 840.939 321.369C837.087 324.189 836.716 320.998 834.716 318.178C832.419 314.838 830.049 314.912 826.345 315.135C825.011 315.209 822.566 315.654 821.603 314.689C820.27 313.502 821.085 311.349 821.899 310.088C823.9 306.896 827.974 305.709 831.012 303.779C833.901 301.924 835.531 300.291 837.235 297.396C839.087 294.205 841.754 291.681 843.829 288.713C846.051 285.595 848.792 282.923 852.719 282.701C857.46 282.404 856.571 279.658 857.534 275.873C858.497 272.236 862.128 273.275 864.647 271.716C866.573 270.529 867.684 268.525 869.388 267.041C871.018 265.63 873.389 264.294 875.315 263.255C876.648 262.513 878.5 262.142 879.315 260.658C881.39 256.873 876.574 255.982 874.204 254.794C871.462 253.384 868.499 251.158 865.536 253.31C862.794 255.314 861.461 259.693 858.349 261.251C855.386 262.736 852.052 259.47 849.459 262.216C847.237 264.591 846.199 268.228 845.31 271.048C844.495 273.572 841.162 276.466 838.865 273.869C837.828 272.755 837.902 271.123 836.42 270.455C834.938 269.787 833.309 270.38 831.975 271.197C825.826 274.908 823.307 283.146 819.529 289.009C817.751 291.756 815.232 293.908 812.787 295.986C810.342 298.064 808.935 301.033 805.971 302.517C804.045 303.482 801.822 303.705 799.748 303.927C796.562 304.224 793.303 304.15 790.339 305.56C787.598 306.896 785.82 309.494 783.523 311.349C780.93 313.502 778.115 315.654 777.671 319.217C777.374 321.592 777.671 322.037 775.226 322.631C773.596 323.002 772.04 323.373 770.41 324.041C767.151 325.303 763.965 326.193 760.779 327.752C757.371 329.459 757.594 333.318 757.297 336.732C757.001 339.924 758.186 344.971 754.704 346.678C752.926 347.494 751.445 346.455 750.037 348.014C749 349.201 749.222 350.982 748.185 352.17C746.925 353.58 745.296 353.135 743.592 353.432C741.591 353.803 741.073 354.842 740.628 356.846C740.258 358.553 740.48 360.408 739.961 362.041C739.146 364.639 737.739 363.674 735.739 364.713C733.146 366.049 732.034 369.983 731.886 372.729C731.738 376.143 731.071 379.334 732.627 382.451C733.886 384.975 737.072 387.573 735.887 390.912C734.627 394.178 729.441 393.362 726.7 393.139C723.737 392.842 721.144 391.284 718.477 389.948C712.846 387.127 707.216 384.158 702.4 379.854C699.363 377.182 702.03 374.658 703.141 371.764C704.401 368.498 705.364 365.158 705.956 361.744C707.142 355.732 701.585 359.889 698.918 357.959C696.622 356.326 695.51 352.912 693.14 351.057C691.288 349.572 691.51 349.498 689.287 350.314C686.472 351.354 685.064 350.834 682.323 350.537C679.73 350.166 677.137 351.057 674.618 351.576C671.062 352.318 667.654 353.432 663.95 353.58C657.208 353.877 633.946 353.951 629.13 353.951C626.982 353.951 624.241 354.025 622.463 352.764C620.833 351.576 618.166 343.709 617.499 341.482C616.017 336.51 609.127 291.904 606.979 289.9C604.608 287.748 580.679 291.013 579.715 288.416C578.752 285.892 578.604 260.806 579.493 257.986C579.938 256.576 581.197 255.537 581.716 254.126C582.308 252.642 582.16 250.861 582.531 249.302C584.086 241.064 583.123 233.493 583.123 225.107C583.123 222.88 585.198 214.939 582.605 213.9C580.308 213.009 577.122 217.091 575.493 218.279C573.641 219.689 570.01 222.064 567.64 222.064C564.973 222.064 563.935 217.759 563.12 215.607C561.935 212.638 560.898 209.521 559.713 206.552C557.342 200.54 554.23 193.341 549.563 188.814C544.673 183.989 537.857 182.356 533.19 177.161C529.115 172.56 526.374 166.993 522.151 162.614C520.521 160.907 518.225 158.606 516.076 157.864C512.52 156.528 510.298 158.013 507.557 160.462C502.297 165.138 495.777 169.22 488.591 169.739C481.034 170.259 433.027 164.173 426.804 162.985C420.359 161.724 412.95 163.059 406.505 164.024C399.689 165.063 373.537 169.442 367.24 170.407C363.609 171.001 359.461 171.224 355.756 171.446C352.793 171.595 310.49 116.598 308.786 114.446C306.49 111.626 306.49 109.102 307.305 105.762C308.12 102.571 306.86 101.903 304.564 100.047C303.008 98.1919 177.73 -0.890704 172.025 -7.4177e-05C168.543 0.593679 38.0797 26.0509 37.1907 26.9415C34.0791 29.9845 2.37072 288.638 -4.82181e-06 309.197C-0.0740899 309.568 11.2609 311.869 16.9655 314.17C22.5959 316.396 28.8191 317.213 34.7459 318.103C40.8949 319.068 47.4885 317.139 52.8226 320.478C59.8607 324.932 59.3421 321.221 65.2689 317.584C66.9729 316.545 69.5659 317.139 68.825 314.096C61.9351 310.83 60.3793 308.529 60.7497 301.033C60.972 297.025 60.083 295.689 58.8976 292.275C57.7122 288.713 59.3421 288.341 60.3793 285.076C61.2683 282.255 59.7866 277.951 61.5647 275.798C63.3427 273.72 67.121 273.349 69.1954 270.974C73.4183 266.224 75.789 260.806 81.2713 257.244C87.1981 253.384 94.0139 255.908 100.163 256.873C107.053 257.986 111.202 254.646 115.721 249.599C117.573 247.521 119.277 245.146 120.314 242.474C121.277 240.025 120.981 236.685 123.5 234.829C127.056 232.232 129.204 234.904 132.168 236.017C135.279 237.204 138.02 236.462 140.762 239.06C142.54 240.693 144.614 243.587 145.207 245.962C145.725 248.115 144.762 254.126 149.578 251.529C154.319 248.931 148.985 239.283 147.133 236.388C145.651 234.013 143.355 231.49 141.28 229.783C139.576 228.298 135.724 226.814 134.835 224.587C131.353 215.829 144.91 220.802 147.948 222.361C150.022 223.4 153.356 225.775 155.727 224.365C158.468 222.732 157.208 219.392 158.023 217.017C160.246 210.114 165.061 219.837 167.654 223.029C171.062 227.185 173.878 232.38 178.545 235.126C182.175 237.279 187.509 234.384 190.25 238.021C191.362 239.505 193.14 241.509 193.806 243.216C194.547 245.22 194.399 247.892 196.474 249.08C198.103 249.97 199.511 249.451 200.77 251.232C201.808 252.716 201.956 254.349 203.956 255.091C207.142 256.205 211.883 255.091 215.217 255.091C218.477 255.091 222.255 254.349 225.515 255.091C228.034 255.685 229.59 257.169 231.368 258.951C232.923 260.435 236.257 261.845 236.924 263.775C237.887 266.447 235.072 267.263 234.479 269.416C233.664 272.384 236.257 275.502 236.257 278.47C234.924 278.767 232.405 281.884 232.701 283.369C232.997 285.002 237.146 286.783 238.554 287.748C241.369 289.603 244.555 290.865 247.074 293.091C247.889 293.834 250.037 295.541 249.296 296.728C248.407 298.138 243.962 296.58 242.777 296.431C240.036 295.986 238.85 297.174 238.332 299.845C237.739 302.963 239.443 304.595 241.147 306.97C242.332 308.603 243.592 310.83 242.554 312.388C241.369 314.096 239.221 314.986 238.183 316.916C236.998 318.994 236.702 321.666 236.924 324.041C237.368 329.236 244.11 331.611 247.814 334.432C251.445 337.178 254.038 342.967 258.853 343.709C263.669 344.451 267.669 341.334 272.188 341.557C275.374 341.705 279.449 341.186 282.56 341.928C284.561 342.373 285.672 343.709 287.376 344.525C289.228 345.49 290.339 345.045 292.191 344.896C298.859 344.229 303.378 353.135 310.268 349.498C313.824 347.643 311.898 343.783 314.269 341.26C317.38 337.92 320.862 341.26 323.603 343.115C326.789 345.268 330.567 346.604 333.235 349.572C336.124 352.764 338.346 356.846 340.717 360.483C345.829 368.35 346.273 376.885 348.126 385.717C349.089 390.467 349.385 394.549 351.756 398.928C354.201 403.455 357.09 405.534 361.609 407.983C367.906 411.323 367.684 418.225 368.203 424.459C368.499 427.502 368.055 430.471 368.203 433.588C368.499 439.526 372.277 444.499 375.611 449.1C377.093 451.104 378.797 452.663 380.797 454.147C384.427 456.819 388.28 459.342 391.91 461.94C398.874 466.913 403.689 473.964 411.616 477.749C415.988 479.827 420.581 481.534 424.063 484.948C427.248 488.14 444.584 506.323 450.733 512.632C455.03 517.011 459.92 523.839 465.847 526.288C468.662 527.476 472.218 527.921 475.107 527.179C476.441 526.882 477.774 525.917 479.108 525.917C481.775 525.843 483.331 528.069 484.813 529.851C486.517 531.929 488.591 533.859 490.517 535.64C492.962 537.866 495.703 540.019 498.222 542.023C503.556 546.253 508.298 549.741 514.817 551.745C517.929 552.71 520.892 554.64 523.485 556.644C526.671 559.093 530.004 561.32 532.968 564.14C535.857 566.96 538.672 570.003 541.636 572.824C544.377 575.421 547.711 577.277 550.896 579.281C555.712 582.398 562.528 587.148 568.455 584.55C571.492 583.214 573.27 579.578 577.048 581.656C578.752 582.621 579.419 583.585 581.494 583.734C583.123 583.808 584.753 583.585 586.309 584.105C589.865 585.292 591.347 588.855 594.977 589.523C598.533 590.191 599.867 593.085 602.682 595.089C605.053 596.796 607.942 598.058 610.905 598.578C614.017 599.171 617.943 599.246 620.759 600.804C623.5 602.363 624.537 605.257 623.426 608.078C622.759 609.636 621.573 610.082 620.536 611.269C619.425 612.605 618.981 614.089 618.684 615.722C618.091 618.914 618.017 622.105 617.573 625.371C617.128 628.562 616.313 631.605 615.943 634.871C615.795 636.355 615.499 638.136 616.165 639.472C616.758 640.734 618.24 641.402 618.61 642.887C619.129 645.41 614.461 648.972 615.795 651.125C616.462 652.164 619.277 651.719 620.388 651.793C623.129 651.941 625.056 652.758 627.797 652.09C630.908 651.347 634.094 650.976 637.28 650.234C639.798 649.64 642.317 648.972 644.984 649.269C647.281 649.492 650.096 650.68 651.874 652.238C653.43 653.574 654.467 655.43 656.023 656.84C657.357 658.101 658.542 659.289 659.653 660.773C661.654 663.519 664.024 664.113 667.062 662.184C670.025 660.254 673.359 657.062 676.841 656.543C679.582 656.172 681.212 657.508 683.805 657.879C686.25 658.25 688.62 658.769 691.065 659.066C693.288 659.363 696.548 660.328 698.326 658.473C700.252 656.469 700.104 652.683 699.956 650.012C699.807 646.597 699.215 643.48 699.215 639.992C699.215 635.761 700.919 633.609 703.067 630.269C705.067 627.152 706.771 624.035 709.068 621.215C710.772 619.062 712.18 616.613 713.365 614.089C713.958 612.754 714.402 611.121 714.55 609.711C714.698 608.226 714.254 606.816 714.995 605.48C716.032 603.699 718.255 603.328 719.958 602.511C721.737 601.621 722.7 599.914 723.663 598.281C724.478 596.722 725.663 595.757 726.7 594.273C729.071 591.007 730.108 586.628 730.108 582.621C730.108 576.015 722.996 574.382 719.44 569.929C717.958 568.074 716.847 565.773 715.513 563.769C713.958 561.394 712.55 558.87 711.587 556.199C710.55 553.23 710.031 549.964 709.883 546.847C709.735 543.878 709.364 539.648 711.068 537.198C712.846 534.675 715.587 533.784 715.884 530.222C716.106 527.55 714.18 525.398 713.143 523.097C711.809 520.054 711.068 519.683 707.734 519.831C704.919 519.98 703.215 518.05 700.474 519.386C697.14 521.019 688.991 523.987 686.028 520.128C684.546 518.198 685.583 515.155 685.213 512.854C684.842 510.628 682.842 507.436 680.768 506.546C676.841 504.839 672.1 506.769 668.025 505.878C665.951 505.433 664.172 503.8 664.543 501.647C664.913 499.198 667.358 497.714 668.247 495.487C669.21 493.261 668.618 490.811 668.618 488.511C668.618 487.026 668.469 485.542 669.21 484.206C669.877 483.018 670.914 482.499 671.359 481.163C672.544 477.971 674.026 478.046 676.767 476.636C679.064 475.448 680.471 473.073 682.768 471.885C686.917 469.733 693.436 471.44 697.733 472.553C703.215 473.964 708.698 474.78 714.402 475.003C717.143 475.077 719.81 475.151 722.551 475.151C725.07 475.151 728.034 475.522 730.479 475.151C735.59 474.335 738.924 467.358 739.221 462.757C739.369 459.788 738.924 456.299 739.665 453.405C740.554 449.768 743.073 449.991 746.036 449.917C748.185 449.917 751.815 448.432 752.63 446.28C753.593 443.756 751.371 441.233 750.407 439.081C748.555 434.627 752.334 433.588 755.371 431.51C756.408 430.768 757.89 428.764 756.779 427.577C755.075 425.795 751.296 428.245 749.518 428.542C748.259 428.764 746.777 428.542 745.444 428.542C742.11 428.542 739.665 427.206 742.851 424.237C745.221 422.01 749.148 420.971 752.26 420.377C755.519 419.784 758.557 419.19 761.965 419.19C765.002 419.19 767.373 420.452 769.966 421.788C771.596 422.604 774.93 423.643 775.967 421.268C777.3 418.299 772.411 417.112 775.522 414.737C778.041 412.807 778.337 410.284 777.152 407.389C776.041 404.643 774.115 402.639 772.633 400.116C771.151 397.518 769.373 395.143 772.337 392.694C773.448 391.729 774.559 391.506 775.3 389.948C775.893 388.686 775.819 387.127 776.115 385.717C776.708 382.674 776.411 380.002 778.041 377.108C779.967 373.694 782.634 374.213 785.894 375.549C789.006 376.885 791.673 378.963 794.266 381.041C796.192 382.6 797.896 384.158 800.563 383.713C803.675 383.268 806.119 380.002 808.861 378.592C811.379 377.33 813.75 376.069 816.121 374.51C818.343 373.026 819.973 370.947 822.122 369.315C823.9 367.979 826.048 367.385 828.049 366.42C830.493 365.307 834.198 363.006 835.161 360.334C835.976 357.959 834.79 354.322 837.828 353.135C840.569 352.096 842.717 354.397 844.866 355.732C847.088 357.143 849.681 358.033 851.237 360.26C852.793 362.486 854.645 365.307 855.312 367.979C856.127 371.467 854.571 373.471 852.2 375.994C849.607 378.74 846.718 380.744 844.57 383.862C841.162 388.686 836.124 396.108 840.569 401.823C842.199 403.901 845.384 404.569 847.829 405.385C851.089 406.498 851.311 408.577 853.163 411.026C856.868 415.776 864.35 413.401 868.795 411.768C870.277 411.248 878.5 408.131 880.056 407.834C882.427 407.389 884.575 408.799 886.946 408.651C889.687 408.502 891.095 406.721 893.54 405.756C895.836 404.791 898.207 404.272 900.578 405.237C903.023 406.202 904.727 408.205 907.245 409.245C910.061 410.432 911.839 410.135 914.358 408.651C915.321 408.131 916.506 407.909 917.469 408.428C918.506 408.948 918.655 409.987 919.247 410.803C921.099 413.178 923.47 411.545 925.1 409.69C926.063 408.651 926.433 407.241 927.545 406.276C928.508 405.385 929.915 404.717 931.249 404.569C932.953 404.346 937.324 405.162 938.065 403.01C938.435 401.823 937.546 400.412 937.472 399.225C937.102 395.217 940.954 395.143 942.658 392.694C943.695 391.135 943.621 389.131 945.622 388.315C948.289 387.201 951.474 390.69 954.067 391.283C956.957 392.026 960.661 392.397 961.772 388.686C962.735 385.272 959.92 382.6 958.512 379.78C957.697 378.072 957.031 376.291 959.698 375.994C961.55 375.772 962.735 377.182 964.143 378.147C966.81 380.076 970.884 382.748 973.552 379.408C974.811 377.85 974.885 376.365 977.034 375.772C979.404 375.178 979.997 375.623 980.738 372.803C981.182 370.873 980.812 368.795 981.923 367.088C982.886 365.604 984.59 364.565 986.146 363.897C989.183 362.635 992.073 361.373 995.036 359.592C997.036 358.404 1002.52 353.357 998.666 351.725Z" fill="white"/>
</g>
<defs>
<clipPath id="clip0_163:715">
<rect width="1000" height="663" fill="white"/>
</clipPath>
</defs>
</svg>
