<svg width="1000" height="603" viewBox="0 0 1000 603" fill="none" xmlns="http://www.w3.org/2000/svg">
<g clip-path="url(#clip0_600:1337)">
<path d="M997.47 231.425C996.964 230.558 997.687 229.185 997.687 228.317C997.687 226.727 997.47 226.511 996.313 225.571C993.639 223.186 990.242 221.74 987.496 219.355C986.195 218.199 985.544 217.115 985.472 215.38C985.4 213.429 986.05 213.14 987.64 212.272C988.941 211.55 992.049 210.466 991.688 208.586C991.399 207.213 989.375 206.779 988.219 206.779C986.412 206.707 984.46 207.213 982.726 207.719C980.63 208.37 981.497 208.659 980.413 210.176C978.967 212.2 974.486 212.489 972.318 211.983C971.306 211.694 970.078 210.971 969.138 210.466C968.054 209.887 965.885 209.237 965.018 208.514C964.006 207.719 963.5 205.551 962.778 204.394C962.2 203.527 961.332 202.298 960.971 201.72C960.971 198.612 960.031 199.263 957.863 198.974C955.839 198.685 954.972 197.167 952.587 197.89C950.563 198.468 949.407 199.407 947.166 199.046C945.143 198.685 942.613 197.601 941.384 195.794C940.156 193.987 939.505 190.807 937.481 189.723C935.385 188.566 934.952 190.518 934.012 191.818C932.784 193.553 931.844 193.409 929.965 193.698C928.447 193.914 928.013 195.215 926.712 195.649C924.761 196.227 924.689 194.348 923.966 193.119C923.026 191.529 922.159 191.313 920.424 191.168C917.244 191.023 912.691 189.433 910.667 186.759C909.366 185.025 909.583 184.591 907.126 184.013C905.68 183.724 904.018 183.362 902.645 184.013C901.344 184.591 900.404 185.892 898.814 184.591C897.802 183.724 897.802 181.049 895.851 181.628C894.478 181.989 894.839 184.23 892.96 182.856C891.948 182.134 891.514 180.471 891.008 179.387C890.141 177.58 889.707 176.135 887.539 176.135C886.455 176.135 882.841 175.918 882.191 176.93C881.613 177.725 882.552 179.387 882.697 180.182C882.986 181.555 882.986 183.218 882.914 184.591C882.841 186.398 882.48 186.976 881.179 188.277C880.239 189.217 878.505 190.012 878.216 191.24C876.481 192.975 874.747 193.047 874.457 190.807C874.241 189.217 874.385 188.277 873.301 186.976C870.916 184.085 867.664 182.061 864.339 180.399C862.966 179.749 862.098 179.17 860.653 179.604C859.352 179.965 859.352 180.688 858.051 179.532C856.172 177.869 853.931 175.123 852.558 173.099C850.534 170.136 850.751 167.173 850.028 163.848C849.306 160.523 846.198 160.668 843.957 158.644C842.006 156.91 840.416 154.235 838.248 152.79C836.441 151.633 835.862 152.429 834.2 153.585C831.815 155.32 829.069 156.62 826.539 158.066C824.443 159.222 822.13 160.957 819.673 161.246C816.854 161.535 814.108 160.523 811.217 161.029C808.47 161.535 806.808 164.137 804.64 165.799C803.483 166.667 801.965 167.389 800.953 168.401C800.014 169.269 800.231 169.485 799.725 170.642C799.002 172.304 797.918 172.449 796.183 171.654C794.593 171.003 793.292 169.558 792.064 168.401C790.401 166.884 789.028 166.739 786.788 166.884C785.92 166.956 784.619 166.811 783.824 167.028C783.174 167.245 782.74 167.823 782.162 168.04C780.5 168.69 779.271 168.329 778.187 166.811C776.886 165.004 776.452 163.125 774.79 161.463C773.2 159.873 771.248 158.644 769.369 157.488C765.683 155.247 761.853 156.91 757.95 158.211C755.492 159.006 753.18 159.656 751.3 161.535C750.072 162.836 748.698 165.221 746.964 165.944C745.518 166.522 742.7 165.438 741.543 164.498C740.026 163.27 740.315 161.535 740.025 159.801C739.664 156.982 738.724 157.56 736.629 156.765C734.894 156.115 733.665 154.741 732.581 153.224C731.569 151.778 730.774 150.26 730.124 148.67C729.112 145.996 728.245 142.31 729.618 139.708C729.979 138.985 731.063 138.552 731.425 137.757C732.003 136.383 731.425 133.854 731.208 132.481C731.063 131.18 730.846 130.168 730.051 129.156C729.473 128.433 728.75 128.216 728.317 127.204C727.305 124.892 728.389 122.362 727.016 120.121C726.149 118.821 724.197 117.881 723.619 116.508C723.185 115.568 723.547 112.243 724.269 111.521C725.064 110.726 726.51 111.448 727.088 109.931C727.522 108.702 726.076 106.245 724.92 105.811C723.836 105.377 721.668 105.956 720.583 106.317C719.499 106.678 717.909 108.63 716.825 108.557C714.079 108.485 712.416 101.98 711.91 99.8844C711.477 97.933 711.766 95.6202 711.26 93.8133C710.971 92.7292 710.248 92.0064 709.019 92.8737C707.791 93.6687 708.152 94.9697 706.49 95.4756C705.117 95.9093 703.31 95.4034 701.936 95.6202C698.684 96.0538 697.094 99.3785 693.986 99.8844C691.673 100.246 689.65 99.6676 687.987 98.0053C686.397 96.4152 686.18 93.8133 684.663 92.4401C683.795 91.645 683.651 91.8619 682.783 92.4401C681.266 93.3797 680.832 94.1024 678.808 93.8856C677.435 93.741 676.279 93.0906 674.978 92.7292C671.942 91.9342 670.135 95.042 667.244 93.8133C664.859 92.8015 662.691 90.7055 664.498 88.0313C665.51 86.6581 668.328 86.1521 668.69 84.4898C669.123 82.6106 667.389 81.8879 666.016 81.8156C664.859 81.7433 663.558 82.3938 662.836 81.0206C662.185 79.8642 663.125 78.1296 663.847 77.2623C665.365 75.6722 669.413 72.998 667.027 70.4684C666.377 69.8179 665.004 69.3843 664.209 68.7338C663.269 67.9388 662.402 67.1437 661.607 66.2042C660.378 64.7587 659.222 63.2409 657.921 61.9399C656.692 60.7112 654.813 59.9162 656.331 58.2539C657.27 57.242 659.294 56.7361 660.595 56.5193C661.824 56.3025 662.763 56.2302 663.847 55.652C664.715 55.2183 665.365 54.4956 666.377 54.2788C667.895 53.9174 670.424 55.0738 671.725 54.351C673.026 53.6283 672.882 51.6768 672.737 50.4482C672.376 48.0631 671.436 44.0879 669.702 42.4256C667.389 40.2574 663.847 41.6306 661.751 39.3901C659.728 37.2218 654.885 31.0784 654.668 29.7775C654.452 28.4042 654.885 26.7419 655.03 25.3687C655.319 22.7668 656.042 18.7193 654.885 16.262C653.584 13.5155 643.249 4.40885 641.008 1.87922C638.551 -0.939514 630.384 1.66239 627.638 3.6861C625.831 5.05933 624.602 6.93849 623.229 4.11975C622.867 3.397 622.651 0.722816 621.133 1.44557C619.615 2.16832 621.06 5.27615 618.82 2.60197C616.941 0.36144 617.591 1.37329 615.423 1.66239C613.761 1.87922 611.086 0.578266 609.424 0.216889C607.039 -0.361312 606.244 -0.144487 605.015 1.87922C603.859 3.83065 603.136 4.5534 601.112 4.91478C599.016 5.34843 599.739 5.99891 598.583 7.73351C596.415 11.0582 590.127 10.3354 586.73 10.4077C581.743 10.5522 577.262 7.22759 572.564 5.92663C570.901 5.49298 563.818 3.32472 563.891 6.86621C563.963 8.60081 566.204 9.82949 564.975 11.6364C564.108 12.8651 562.445 12.576 562.445 14.5274C562.518 16.3343 563.746 17.4184 563.457 19.4421C562.879 22.9836 558.831 26.0191 555.94 27.7537C554.423 28.6211 552.688 29.9943 550.953 30.3557C549.219 30.717 547.484 30.2111 545.822 29.7775C543.003 29.0547 541.702 26.5973 539.028 25.5132C537.583 24.935 536.282 25.5855 534.836 25.0073C533.102 24.3568 533.246 24.0677 531.15 24.3568C527.825 24.8627 522.694 25.5855 519.514 24.5014C518.213 24.0677 517.418 22.5499 516.045 22.2608C514.527 21.8995 513.009 22.7668 512.069 23.9232C509.901 26.3805 509.034 30.3557 505.348 27.9706C502.89 26.3805 500.072 25.0796 497.181 26.3082C496.169 26.7419 495.374 27.5369 494.145 27.5369C493.567 27.5369 493.206 27.031 492.627 27.031C491.11 26.9587 490.893 26.9587 490.676 28.8379C490.459 30.5725 490.604 31.0061 489.52 32.4516C488.724 33.4635 488.219 35.0535 487.134 35.9931C486.05 36.8604 484.46 36.8604 483.882 38.1614C483.087 40.0405 483.954 41.0524 481.931 42.4979C480.341 43.6543 479.256 43.8711 478.389 45.678C477.45 47.5572 476.582 49.1472 475.281 50.8095C473.98 52.5442 474.631 53.4114 474.269 55.3629C473.764 57.9648 472.679 56.8084 471.162 57.748C469.644 58.6875 470.728 60.8558 470.511 62.4459C470.294 64.1082 468.849 64.9755 468.415 66.4933C467.62 69.2397 470.367 71.5525 471.089 73.7931C472.029 76.6118 470.439 80.0087 471.668 82.4661C472.896 84.8512 474.848 85.9353 474.269 88.9709C473.836 90.9223 472.463 92.5123 471.089 93.8856C468.993 95.9093 468.704 93.6687 466.753 92.2955C464.585 90.7777 462.199 91.7896 460.103 90.1995C457.718 88.3204 460.103 88.1036 460.103 85.9353C460.103 82.8997 457.718 80.9483 455.622 79.2137C453.237 77.19 451.647 76.5395 448.612 75.8168C446.01 75.2386 443.697 74.9495 441.167 76.1781C440.011 76.8286 439.071 77.4068 437.698 77.5514C436.759 77.6237 435.53 77.2623 434.663 77.5514C432.784 78.1296 434.301 80.2978 431.988 80.5147C430.688 80.5869 428.736 79.4305 427.941 78.4187C426.64 76.7563 428.881 72.0585 425.845 72.3476C424.183 72.4921 421.725 74.7326 421.075 76.1781C420.497 77.4791 420.641 78.6355 418.834 78.2019C417.967 77.985 417.75 76.7563 416.594 77.3345C414.426 78.491 416.738 83.1166 412.98 83.0443C411.462 82.972 409.439 80.7315 408.427 82.7552C408.499 84.2007 406.403 84.4175 405.608 83.4057C404.885 82.3938 405.969 80.5147 405.174 79.4305C404.452 78.491 403.729 79.3583 402.862 78.7801C402.283 78.3464 402.211 76.5395 402.139 75.8168C401.85 73.2871 402.356 68.9506 400.404 66.9992C399.32 65.8428 398.308 66.1319 397.73 64.5418C397.296 63.3854 397.369 62.3013 396.284 61.5063C394.911 62.0845 395.2 63.3854 394.478 64.4696C393.755 65.626 392.526 66.2764 391.442 66.9992C390.141 67.7942 389.057 68.4447 387.467 68.1556C386.816 68.011 386.166 67.4328 385.516 67.3606C383.13 67.0715 380.239 69.6011 378.794 71.1912C378.071 71.9862 377.059 72.9258 376.698 73.9376C376.409 74.8049 377.204 76.6841 376.481 77.4068C376.047 77.8405 374.024 77.8405 373.229 78.0573C371.855 78.4187 372.145 78.7801 371.639 77.6236C371.35 76.8286 371.639 75.1663 371.639 74.299C371.639 71.3357 372.361 68.3001 368.82 67.9388C367.519 67.7942 366.29 67.7942 365.062 67.3606C363.977 66.9992 362.749 65.9151 361.52 65.8428C359.135 65.6982 357.906 68.8061 356.027 69.9625C353.859 71.2634 353.281 67.7942 352.413 65.9873C351.691 64.4696 350.028 58.8321 349.233 58.543C348.583 58.2539 346.776 59.1935 346.125 59.4826C344.752 60.133 344.969 60.0608 344.752 61.2895C344.391 63.3854 344.608 64.8309 342.439 66.1319C340.416 67.3606 336.441 68.2279 334.2 67.2883C332.176 66.4933 332.393 63.4577 330.297 62.3013C329.43 61.7954 327.334 61.0003 326.611 61.9399C326.105 62.5181 326.611 64.6141 326.611 65.1923C326.756 66.5655 327.334 68.5892 326.033 69.6011C325.31 70.107 324.298 69.6734 323.648 70.1793C322.275 71.2634 322.202 75.0217 319.745 72.7089C317.938 70.9743 317.794 69.6011 319.528 68.011C320.685 66.9992 323.07 64.9032 320.829 63.7468C318.878 62.735 316.565 62.735 314.541 61.9399C313.096 61.3617 312.084 60.4221 310.638 61.2172C310.132 61.434 310.132 62.229 309.626 62.4459C309.048 62.6627 308.253 62.3736 307.675 62.3013C305.796 62.1568 303.917 62.1568 302.038 62.1568C301.243 62.1568 297.484 62.5904 297.123 61.8677C296.689 60.9281 298.207 60.2776 298.424 59.7717C298.568 59.4103 298.568 58.3262 298.279 57.9648C297.773 57.3143 297.557 57.9648 296.978 57.6034C296.328 57.242 296.256 57.748 295.677 57.0975C295.316 56.6638 295.316 55.2183 295.316 54.6401C295.099 51.46 296.328 47.7017 292.28 47.1958C290.474 46.979 284.981 48.4967 283.535 49.1472C280.933 50.2313 276.235 47.8463 273.923 46.8344C272.116 46.1117 271.827 45.8226 270.67 44.3771C269.803 43.3652 268.936 42.8593 267.779 42.4979C266.189 41.992 264.599 41.7029 263.081 42.4256C262.286 42.787 261.419 44.0879 260.407 44.0879C258.817 44.0879 256.432 42.0642 255.709 40.7633C254.914 39.2455 255.059 38.2337 253.252 37.3664C250.505 36.0654 247.181 36.9327 244.362 35.7763C240.531 34.2585 236.267 31.7289 232.075 32.4516C230.196 32.813 228.461 32.813 226.582 32.3071C224.848 31.8734 223.836 30.7893 222.318 30.0666C218.849 28.4042 213.5 30.0666 210.031 30.7893C206.056 31.5843 202.948 31.6566 199.551 29.3438C197.094 27.6815 193.914 25.4409 190.878 25.8746C186.542 26.3805 182.494 28.1874 178.086 28.332C173.677 28.4765 169.268 28.621 164.859 28.621C160.523 28.621 154.885 27.9706 150.766 29.6329C147.513 30.9339 146.501 33.5358 146.068 36.7159C145.273 41.9197 140.936 43.3652 136.527 44.883C134.142 45.678 134.359 48.2076 132.48 49.5086C131.685 50.0145 131.107 49.6531 130.167 49.87C128.938 50.2313 129.444 50.8095 128.649 51.7491C127.421 53.1946 125.252 51.6046 123.879 50.8818C122.723 50.2313 122.94 50.3759 122.94 49.2195C122.94 48.4245 123.012 47.774 122.289 47.1958C121.06 46.1117 119.037 46.9067 117.591 46.3285C116.073 45.7503 116.435 44.5939 114.483 44.9553C113.833 45.0998 113.327 45.3889 112.677 45.4612C112.171 45.5335 111.303 45.2444 110.797 45.4612C109.496 46.1117 110.725 47.8463 109.93 48.7136C109.207 49.4363 109.352 51.46 109.352 52.4719C109.352 53.4837 109.93 54.7124 109.352 55.5797C108.629 56.6638 107.617 55.7243 106.822 56.3025C105.883 56.9529 107.184 57.5311 107.4 58.3262C107.69 59.338 107.4 60.2776 107.906 61.2895C108.629 62.8072 109.352 63.0963 109.352 64.9032C109.352 66.7101 108.918 67.9388 107.762 69.3843C106.822 70.5407 105.449 72.203 106.027 73.7931C106.533 75.3108 108.485 75.4554 109.28 76.6841C110.002 77.7682 109.496 79.2137 109.858 80.3701C110.87 83.2611 114.122 84.4175 115.278 87.0917C116.29 89.4768 114.989 92.6569 117.447 94.3915C117.88 94.7529 118.314 94.3915 118.675 95.042C118.964 95.5479 118.748 96.2707 118.82 96.8489C118.892 97.7162 118.82 99.0894 119.109 99.9567C119.543 101.402 120.916 102.775 121.422 104.293C122.145 106.245 122.65 107.184 124.241 108.63C125.397 109.786 126.698 110.798 127.854 111.81C128.288 112.171 129.372 113.111 129.3 113.761C129.228 114.845 128.071 114.123 127.71 114.773C126.987 116.002 123.012 114.773 121.711 114.99C120.482 115.207 118.531 117.158 118.964 118.604C119.398 119.832 121.133 119.399 121.566 120.844C121.928 122.217 121.205 123.446 122.578 124.458C123.446 125.108 124.746 124.892 124.746 126.193C124.746 126.554 124.313 127.132 124.313 127.638C124.241 128.433 124.457 129.156 124.602 129.879C124.746 131.107 124.746 132.481 124.53 133.709C123.807 137.612 123.084 142.021 121.422 145.635C120.121 148.309 118.314 150.333 115.351 150.333C112.387 150.333 109.786 149.321 106.75 149.465C104.871 149.538 101.474 150.622 100.462 152.356C99.667 153.729 100.245 155.464 99.5224 156.837C98.7274 158.283 91.6444 162.33 89.8376 162.981C89.3316 163.125 77.5508 172.449 66.9263 183.073C58.1087 191.818 45.8942 207.285 43.9428 209.092C41.9191 211.044 39.8231 212.561 38.3776 215.019C37.8717 215.814 37.2212 216.97 37.5826 217.982C37.9439 219.139 39.1726 219.066 39.8954 219.789C40.9072 220.801 40.4013 222.463 40.4013 223.692C40.329 225.354 41.0518 226.294 41.63 227.739C42.425 229.763 41.8468 232.148 41.4854 234.244C41.1241 236.485 40.6904 238.725 40.1845 240.966C39.8231 242.339 38.1608 245.519 38.8113 246.531C39.1004 247.037 39.7508 246.748 40.1122 247.037C40.6181 247.398 40.5459 247.976 40.835 248.338C41.5577 249.06 42.3527 249.06 42.8587 250.217C43.3646 251.229 43.4369 252.024 44.3764 252.747C45.4606 253.614 46.3279 253.614 46.3279 255.204C46.3279 256.505 45.9665 257.517 46.4724 258.818C46.9061 260.046 47.7011 261.998 45.8219 261.203C43.726 260.335 43.4369 257.517 41.1963 256.866C39.6786 256.433 38.5944 257.228 37.2212 257.372C35.7034 257.517 35.0529 256.577 34.1134 255.493C33.1738 254.409 30.7164 250.867 28.9095 253.252C27.97 254.553 29.0541 257.011 28.4759 258.456C27.7531 260.119 26.5967 258.89 25.3681 259.324C24.5008 259.613 24.0671 260.769 23.4889 261.42C22.7662 262.142 21.9711 262.72 21.1761 263.371C19.5138 264.889 20.3811 265.612 20.2365 267.418C20.0197 269.442 17.201 269.514 16.4059 271.321C15.6109 273.273 16.6228 275.658 16.4059 277.754C16.0446 281.512 13.5149 284.909 10.118 286.571C9.32296 286.933 8.45566 287.077 7.87746 287.728C7.01015 288.667 7.08243 289.896 5.85375 290.619C3.83004 291.847 2.60137 291.92 1.58951 294.305C0.722209 296.545 0.722209 298.786 0.577659 301.099C0.360833 303.267 -0.289644 306.158 2.31226 307.17C3.17957 307.531 4.33597 307.459 5.05872 308.182C5.85375 308.977 5.27555 310.061 5.78148 310.856C6.2874 311.579 7.29925 311.506 7.87746 312.012C9.03386 312.88 8.96159 314.542 9.03386 315.843C9.10614 317.65 9.25069 319.24 10.6962 320.685C12.4308 322.42 15.1773 321.336 17.201 322.709C21.8266 325.744 19.7306 335.213 26.0908 335.791C28.3313 336.008 30.4273 334.562 32.5956 334.923C34.6193 335.285 36.9321 337.381 37.5103 339.405C37.7994 340.561 37.5103 341.934 36.7153 342.801C35.848 343.669 34.9807 343.669 35.1975 345.114C35.4143 346.777 37.2212 348.583 38.8835 348.8C42.1359 349.162 38.6667 344.681 40.9072 344.464C42.0636 344.319 43.22 346.343 44.3042 346.704C48.4239 348.078 50.303 341.428 52.6158 339.26C54.4227 337.598 56.591 338.465 58.6869 339.332C60.3493 340.055 60.277 340.2 60.4938 341.934C60.6384 343.307 61.2888 343.741 62.4453 344.681C64.1799 346.054 66.2036 347.933 68.2995 348.728C70.6124 349.595 73.5034 348.873 75.8884 348.873C76.9726 348.873 77.7676 348.873 78.7794 349.451C79.8636 350.101 80.2972 350.752 81.6705 350.824C84.4169 350.896 87.2356 350.39 89.5485 352.27C90.488 352.992 90.9217 354.149 91.7167 354.944C92.6563 355.811 94.1018 355.811 95.4027 355.666C96.9205 355.522 98.2938 355.016 99.8115 355.305C101.329 355.594 103.353 356.461 104.582 357.473C105.738 358.413 106.895 359.497 108.34 359.858C110.002 360.292 111.737 359.714 113.399 359.858C115.423 360.003 117.374 360.726 119.398 360.147C121.133 359.642 121.35 357.546 122.867 356.751C124.241 356.028 126.77 356.967 128.216 357.256C129.444 357.473 131.613 357.473 132.624 358.268C133.998 359.352 133.925 362.388 134.793 363.978C135.588 365.351 136.311 367.014 137.684 367.953C139.274 369.037 141.081 368.965 142.743 369.76C145.056 370.989 145.489 374.53 146.574 376.626C148.236 379.734 152.283 379.734 155.536 379.662C157.993 379.59 160.523 377.855 162.474 376.409C164.498 374.819 165.221 372.434 166.666 370.411C168.112 368.315 169.919 366.797 172.231 365.713C174.255 364.773 176.712 364.918 178.953 364.556C182.133 364.05 185.385 363.4 188.638 363.4C190.011 363.4 191.601 363.183 192.974 363.4C194.348 363.617 194.926 364.412 196.082 365.062C197.6 365.785 198.539 365.207 200.057 364.556C202.009 363.689 203.526 363.761 205.622 363.761C207.502 363.761 209.164 364.484 210.971 363.978C212.778 363.472 213.862 362.822 215.813 362.822C218.993 362.822 222.535 363.689 224.414 360.22C224.992 359.136 224.848 357.835 225.57 356.678C226.727 354.799 228.751 354.871 230.196 353.426C232.003 351.619 230.919 348.15 233.087 346.777C234.171 346.126 235.183 346.56 236.339 346.343C237.713 346.126 238.508 345.187 239.736 344.681C242.483 343.452 246.169 343.886 248.626 341.79C249.999 340.633 250.361 338.031 251.228 336.441C252.963 333.333 253.107 334.996 255.131 336.803C256.649 338.104 259.973 338.176 261.058 336.152C261.853 334.634 260.913 333.912 259.684 333.55C257.661 332.972 257.227 332.9 256.287 330.876C255.854 330.081 254.914 328.708 255.637 327.985C256.504 327.045 260.19 328.635 261.202 328.925C262.864 329.358 264.093 329.503 265.105 330.876C265.683 331.671 265.539 332.105 266.406 332.683C267.707 333.55 272.983 334.707 272.043 331.599C271.827 330.948 270.887 329.575 271.321 328.852C271.971 327.696 273.633 328.202 274.284 328.78C275.296 329.72 275.802 331.093 276.669 332.105C277.825 333.55 278.693 332.972 280.066 332.105C282.668 330.587 285.848 328.491 288.811 327.768C291.485 327.045 291.558 329.72 293.654 330.153C295.677 330.587 297.99 327.19 299.436 326.178C300.448 325.455 302.905 323.938 304.134 324.66C305.579 325.528 304.134 327.407 306.157 328.13C308.181 328.852 309.988 327.84 312.012 327.913C314.18 327.985 316.204 329.72 317.866 331.021C319.6 332.394 319.528 334.707 321.046 336.224C322.275 337.453 324.877 338.682 326.611 338.971C329.213 339.477 331.165 339.332 330.948 342.729C331.381 343.669 330.369 344.753 330.948 345.692C332.104 347.572 333.694 344.825 334.417 344.247C336.73 342.44 336.441 348.15 338.175 348.8C340.199 349.523 342.223 346.849 344.246 346.777C345.33 346.704 346.053 347.138 346.198 348.367C346.342 349.812 345.33 350.463 344.535 351.33C343.957 351.98 343.307 352.703 343.307 353.643C343.379 355.305 344.752 355.16 345.836 354.221C346.631 353.57 346.704 352.486 348.005 352.559C349.45 352.703 349.667 354.293 349.812 355.45C349.956 356.751 350.028 360.003 351.618 360.653C353.425 361.376 353.208 357.835 353.57 356.751C354.076 355.16 355.015 353.137 356.822 352.631C358.34 352.197 359.786 353.426 361.159 353.86C362.893 354.51 364.845 354.655 366.579 355.45C368.169 356.172 372.145 357.618 372.94 359.208C373.59 360.581 373.156 362.533 373.012 363.978C372.94 365.785 373.518 366.58 374.385 368.098C374.963 369.11 375.397 370.7 376.12 371.567C377.276 372.796 378.216 371.35 379.589 371.567C381.324 371.856 383.998 374.386 385.805 373.518C387.033 372.94 386.744 371.206 387.611 370.266C388.334 369.543 390.141 368.965 391.153 369.471C392.598 370.194 393.61 372.651 394.405 373.952C395.128 375.036 396.574 376.554 396.79 377.927C397.152 380.312 393.755 380.312 392.815 381.975C391.948 383.42 391.948 384.215 393.466 384.793C396.068 385.733 396.212 386.6 393.683 388.624C393.683 389.202 392.526 389.78 392.237 390.431C391.659 391.732 392.237 393.755 392.454 395.056C392.815 396.863 392.96 398.742 393.177 400.549C393.393 401.923 393.249 401.995 392.093 402.718C390.719 403.585 387.756 404.308 387.684 406.115C387.684 406.693 388.045 408.138 388.334 408.716C388.985 409.873 389.924 409.078 390.575 409.801C390.864 410.09 390.864 411.029 390.792 411.391C390.502 412.186 390.647 411.535 390.069 412.113C389.78 412.402 389.491 412.041 389.202 412.475C388.912 412.908 389.635 414.209 389.852 414.498C391.514 416.378 395.489 413.848 397.802 414.932C399.031 415.51 400.476 417.968 401.199 419.052C402.139 420.353 402.645 421.076 402.572 422.738C402.5 423.677 401.85 425.773 402.356 426.641C403.006 427.797 405.319 427.725 406.258 427.147C407.921 426.062 406.981 423.966 407.921 422.593C408.499 421.798 410.595 421.292 411.679 421.509C412.98 421.798 412.98 423.605 413.197 424.978C413.414 426.641 413.775 428.953 413.414 430.616C412.908 430.616 411.535 430.399 411.173 430.688C410.595 431.194 411.318 432.929 411.39 433.579C411.751 435.458 412.113 437.482 411.896 439.433C411.751 441.096 410.161 441.023 408.933 441.023C408.427 441.023 407.776 441.023 407.415 441.457C407.126 441.818 407.126 442.469 407.27 442.83C407.559 443.409 408.065 443.264 408.644 443.481C409.511 443.842 409.439 444.565 409.583 445.36C409.728 445.794 409.583 445.866 410.089 445.938C410.378 446.01 410.667 445.866 410.956 445.721C412.113 445.215 412.763 444.131 414.136 445.071C415.871 446.3 414.353 447.817 413.631 448.974C413.847 450.058 413.703 450.925 413.775 452.009C413.847 452.877 414.353 454.033 413.631 454.756C413.197 455.117 412.33 454.828 411.968 455.189C411.173 455.984 412.04 456.563 412.546 456.996C414.281 458.586 416.522 459.381 418.328 460.971C420.063 462.489 421.003 464.802 423.677 463.862C424.689 463.501 425.773 462.345 426.857 462.489C428.23 462.634 428.664 464.441 429.242 465.525C429.748 466.464 430.037 467.332 431.266 467.332C432.278 467.332 433.362 466.175 434.374 466.753C435.674 467.476 435.964 471.885 435.819 473.258C435.602 474.704 435.169 476.149 434.879 477.595C434.518 479.329 434.301 481.064 434.157 482.871C434.012 484.316 434.229 486.412 433.362 487.641C432.494 488.942 430.977 489.231 429.748 490.026C428.23 491.038 429.17 492.7 430.037 494.146C430.832 495.374 431.699 495.23 433.073 495.23C434.518 495.23 435.313 495.158 435.891 496.675C436.397 498.049 436.397 498.699 437.698 499.566C439.505 500.723 442.252 500.651 443.914 501.951C444.926 502.746 444.348 502.819 443.191 503.325C442.035 503.758 440.878 504.264 439.65 504.409C438.132 504.553 436.831 504.192 435.385 503.831C434.301 503.614 432.133 502.746 431.121 503.18C429.82 503.758 430.398 504.987 429.748 505.999C428.808 507.444 427.941 505.854 426.712 504.987C426.206 504.626 425.339 504.337 424.978 503.758C424.4 502.819 424.544 501.084 424.038 499.928C423.532 498.771 420.858 494.652 419.991 497.832C419.702 498.988 421.147 500.145 419.702 500.867C418.256 501.59 417.75 499.422 416.449 499.566C414.57 499.783 416.666 503.469 416.811 504.409C417.461 507.589 412.402 506.794 411.39 504.698C410.956 503.686 411.245 502.241 410.523 501.373C410.089 500.867 408.716 500.506 408.138 500.289C407.559 500.072 406.403 499.928 406.042 499.35C405.536 498.555 406.331 497.976 406.258 497.181C406.114 496.459 404.813 495.519 404.235 495.085C403.078 494.29 403.006 494.435 402.066 495.591C401.561 496.242 401.127 497.254 400.26 497.326C399.031 497.398 398.742 495.808 398.019 495.085C396.501 493.64 395.634 496.531 395.489 497.904C395.417 499.277 396.935 501.879 394.767 501.879C394.333 501.879 393.972 501.373 393.466 501.59C392.671 501.879 392.598 503.18 392.02 503.542C389.78 505.132 391.153 501.084 391.442 500.217C391.803 499.133 391.731 498.338 391.659 497.254C391.587 495.808 391.803 494.218 392.237 492.845C392.454 491.977 393.61 490.604 393.104 489.737C392.671 489.014 390.792 489.954 390.141 490.243C388.479 490.893 389.346 491.472 388.406 492.772C387.756 493.712 385.515 494.868 384.504 495.447C383.203 496.169 381.829 496.964 380.384 497.254C378.722 497.615 376.626 496.748 375.036 497.254C374.385 497.47 374.602 497.037 374.313 497.759C374.024 498.338 374.602 499.711 374.746 500.289C375.614 503.325 378.288 507.878 376.626 510.841C376.192 511.636 375.036 513.082 375.252 514.021C375.469 514.816 376.842 515.539 377.421 516.045C378.143 516.696 378.722 517.491 379.372 518.213C380.239 519.153 381.54 519.803 380.89 521.104C380.167 522.55 377.782 524.068 376.626 525.224C374.891 527.031 374.241 527.898 376.047 529.777C376.626 530.356 377.421 530.862 377.854 531.657C378.577 533.03 377.565 534.042 376.626 535.053C375.397 536.499 374.385 536.21 372.578 536.571C370.771 536.933 369.037 537.149 367.23 537.366C365.351 537.511 364.411 537.366 363.327 538.956C362.026 540.908 363.11 543.148 363.833 545.244C363.977 545.606 364.411 547.413 364.483 548.135C364.628 549.581 363.833 549.436 362.532 549.653C361.592 549.87 360.219 549.725 359.713 550.665C359.28 551.605 360.364 553.122 359.641 554.062C359.135 554.712 356.822 554.929 356.027 555.146C354.509 555.58 354.798 555.291 353.642 554.279C352.269 553.122 351.835 554.712 351.618 555.869C351.546 556.447 351.763 557.603 351.474 558.109C350.896 559.121 349.884 558.254 348.8 558.037C347.426 557.748 347.643 558.254 346.993 559.627C346.559 560.494 345.547 561.578 345.403 562.518C345.186 563.53 345.33 563.313 346.125 563.819C346.704 564.253 346.993 563.964 347.282 564.831C347.571 565.77 347.571 567.144 347.643 568.156C347.716 568.734 348.005 570.179 347.716 570.685C347.354 571.336 346.415 571.191 345.981 571.697C345.547 572.275 345.909 573.721 345.909 574.299C345.981 575.6 346.342 575.455 345.114 576.106C343.307 577.118 342.367 576.756 340.777 575.383C339.404 574.154 338.103 573.07 336.441 572.203C336.152 572.058 334.995 571.336 334.706 571.336C333.766 571.336 329.719 576.178 329.141 577.624C328.49 579.214 330.514 579.214 331.743 579.936C335.573 582.177 333.333 588.32 336.802 590.922C340.271 593.524 344.102 595.259 347.788 597.355C349.017 598.078 350.245 598.222 351.763 598.294C353.064 598.367 353.57 598.656 354.726 599.162C355.955 599.668 357.545 599.884 358.846 599.812C359.713 599.74 360.87 599.451 361.376 598.656C362.171 597.572 361.231 596.777 361.303 595.692C361.376 594.391 362.026 594.97 362.966 594.753C364.628 594.391 363.616 593.596 364.194 592.585C364.845 591.428 366.796 592.223 367.591 593.018C368.459 593.886 368.675 594.753 369.976 595.042C372.217 595.548 372.723 593.235 373.735 591.645C373.735 590.778 374.891 591.139 375.541 590.922C376.915 590.489 378.216 589.694 379.589 589.043C382.48 587.742 385.299 587.092 387.901 585.285C388.84 584.634 389.707 584.128 390.792 583.984C391.442 583.912 392.093 584.056 392.671 583.839C393.249 583.622 393.683 583.189 394.333 582.972C395.634 582.538 396.863 583.261 398.164 583.333C399.609 583.406 401.055 582.9 402.5 583.333C405.03 584.056 407.343 586.73 409.511 588.104C412.257 589.91 413.775 592.512 415.076 595.476C415.365 596.054 417.1 601.402 418.039 601.258C419.051 601.113 418.618 597.788 418.762 597.066C418.979 595.837 419.774 594.825 419.991 593.524C420.208 592.151 419.846 590.778 419.774 589.404C419.702 587.525 419.918 585.646 419.991 583.767C420.063 582.538 419.774 581.382 418.473 580.876C416.666 580.226 414.642 581.743 412.98 581.237C409.728 580.226 415.004 577.118 412.908 575.239C412.04 574.444 411.535 574.371 411.173 573.07C410.812 571.48 411.173 569.89 411.462 568.372C411.968 565.698 412.257 563.458 413.269 561C413.775 559.844 413.486 558.832 413.558 557.603C413.631 556.519 413.775 553.99 414.426 553.122C415.582 551.604 416.305 553.484 416.594 554.568C417.172 556.664 416.955 558.543 416.666 560.639C416.305 562.807 417.027 563.096 418.545 564.253C419.991 565.409 418.907 567.505 419.918 568.445C420.714 569.167 421.292 568.3 422.014 567.939C422.665 567.65 423.026 567.65 423.677 567.505C424.689 567.288 424.978 566.999 425.773 566.276C426.134 565.915 427.507 565.048 427.652 564.542C428.086 563.096 425.195 562.952 424.544 561.651C423.894 560.422 424.255 559.121 425.484 558.471C426.712 557.748 428.302 558.037 429.459 558.543C431.41 559.41 432.133 560.278 432.422 557.459C432.639 555.435 433.362 553.556 433.868 551.532C434.012 550.882 434.157 550.159 434.012 549.581C433.868 548.93 433.289 548.497 433.434 547.774C433.579 546.979 437.192 551.315 437.409 551.605C438.638 553.411 440.156 554.206 440.589 551.243C440.734 549.942 440.806 545.678 442.324 549.147C442.541 549.725 442.613 551.388 443.047 551.749C444.42 552.833 451.286 545.1 451.864 544.305C452.731 543.076 452.515 542.353 452.731 540.98C452.948 539.39 453.816 538.234 454.827 537.005C455.912 535.776 456.779 534.692 458.08 533.68C458.803 533.174 460.176 532.596 460.537 531.729C461.115 530.5 460.248 528.332 459.598 527.392C459.019 526.597 458.441 526.091 458.08 525.152C457.646 524.068 457.574 522.839 456.996 521.755C455.695 518.936 452.876 518.719 450.202 517.635C446.733 516.262 444.058 514.672 442.974 510.841C442.107 507.806 443.842 504.553 447.166 504.047C450.708 503.614 449.696 508.167 450.925 510.263C452.009 512.142 452.876 510.552 453.093 508.818C453.237 507.878 453.599 504.842 454.538 507.3C455.261 509.324 453.743 511.853 455.767 513.226C457.068 514.166 458.875 514.31 459.959 515.539C461.549 517.274 460.248 518.936 460.754 520.888C461.26 522.694 463.139 524.284 464.296 525.73C465.452 527.103 465.596 527.465 466.753 525.802C467.982 523.995 469.066 522.044 470.222 520.165C471.523 517.924 473.98 514.889 473.836 512.215C473.764 510.552 472.969 510.119 474.631 509.613C476.221 509.107 477.016 507.878 478.172 506.505C479.184 505.204 480.485 503.614 480.846 501.951C481.425 499.422 479.04 497.687 478.823 495.302C478.461 490.821 484.966 491.327 487.424 489.231C488.725 488.147 488.435 488.436 490.17 488.653C492.194 488.942 492.916 487.713 494.362 486.774C495.518 486.051 496.964 486.701 498.337 486.412C500.361 485.979 502.023 484.605 504.119 484.678C507.516 484.822 512.431 487.135 515.683 485.4C519.514 483.304 521.248 479.546 522.983 475.788C523.417 474.848 523.706 473.836 524.284 473.041C524.718 472.463 525.368 471.885 526.163 471.885C526.452 473.186 524.862 474.704 524.428 475.86C523.778 477.522 523.344 479.185 522.694 480.847C522.405 481.642 521.176 483.377 521.61 484.244C522.188 485.762 525.296 484.461 526.38 484.099C527.392 483.738 528.476 483.449 529.56 483.232C532.017 482.726 533.463 482.726 535.848 483.666C538.016 484.461 539.895 485.4 542.136 484.533C544.449 483.666 546.545 482.293 546.617 479.691C546.689 478.679 546.834 477.306 546.617 476.366C546.328 475.21 545.388 474.631 544.738 473.62C542.786 470.512 545.533 468.56 547.484 466.464C548.279 465.597 549.002 464.73 549.58 463.718C549.869 463.212 550.231 461.911 550.881 461.622C553.122 460.755 550.086 466.464 549.797 467.187C549.074 468.56 548.641 469.283 548.496 470.801C548.352 472.102 548.135 473.692 548.496 474.993C548.857 476.221 549.797 477.161 550.086 478.462C550.375 479.763 550.375 480.775 551.17 481.931C552.76 484.172 555.435 483.521 557.241 485.256C558.036 486.051 558.181 487.496 559.193 488.147C560.638 489.086 562.518 488.147 563.891 487.569C565.553 486.918 566.637 486.268 567.866 487.713C569.095 489.086 568.95 490.604 569.095 492.339C569.6 496.242 573.07 492.989 574.371 495.374C575.672 497.76 569.673 497.398 568.516 497.181C565.842 496.675 563.168 495.519 560.422 495.23C556.374 494.724 552.471 495.447 548.496 494.507C545.461 493.784 542.064 493.568 539.317 492.05C538.305 491.544 537.366 490.893 536.209 490.821C535.125 490.749 533.897 491.182 532.812 491.327C531.222 491.544 529.56 491.472 527.97 491.399C527.464 491.399 526.235 491.038 525.946 491.472C524.862 493.062 530.138 495.519 530.933 496.242C531.728 497.037 533.391 499.639 534.547 498.844C535.125 498.482 534.981 497.254 535.559 496.82C536.354 496.169 538.305 496.531 539.245 496.531C542.208 496.675 544.81 497.904 547.557 498.988C548.424 499.35 549.436 499.711 550.448 499.639C551.243 499.566 552.11 498.988 552.977 499.277C554.639 499.783 556.085 503.036 554.856 504.264C554.134 504.987 552.688 505.565 551.821 506.143C550.737 506.938 549.653 507.806 548.496 508.456C546.111 509.829 543.076 509.107 540.401 509.757C539.389 509.974 538.522 510.046 538.378 511.203C538.161 512.431 539.245 513.226 540.184 513.732C541.124 514.166 543.292 514.816 544.376 514.31C545.171 513.949 545.027 512.287 545.822 511.853C546.906 511.347 548.352 513.443 549.219 514.094C551.17 515.611 552.399 515.178 554.784 515.178C557.458 515.25 558.398 519.008 560.783 520.093C563.457 521.321 567.794 520.454 565.553 524.935C564.83 526.38 568.372 526.164 569.456 526.38C571.913 526.886 574.298 527.826 576.467 528.982C577.695 529.633 578.49 529.416 579.791 529.633C580.586 529.777 581.381 530.283 582.176 530.5C584.561 531.223 586.585 528.838 588.97 528.115C590.199 527.754 591.355 527.971 592.656 527.898C594.608 527.826 596.487 526.67 598.583 526.525C600.462 526.38 602.341 525.947 604.22 526.308C605.594 526.597 606.822 527.248 608.34 527.32C609.352 527.392 610.725 527.465 611.592 526.814C612.315 526.308 612.387 525.369 612.821 524.718C614.194 522.333 615.351 524.357 617.302 524.863C618.675 525.224 620.482 523.923 621.35 522.911C621.928 522.189 621.855 520.165 622.723 519.731C624.096 519.008 623.446 522.984 623.662 523.706C624.168 525.296 625.397 524.357 626.842 524.718C627.71 524.935 628.36 525.513 628.794 526.308C629.155 526.959 628.866 527.537 629.011 527.971C629.444 528.838 629.155 528.476 630.384 528.476C631.034 528.476 631.468 528.332 632.119 528.693C633.419 529.416 633.709 531.078 634.937 531.946C636.021 532.668 637.828 532.235 639.057 532.09C641.37 531.729 639.997 530.283 641.297 528.91C642.165 528.043 642.382 528.549 642.309 527.103C642.309 526.164 641.731 525.007 642.237 524.212C642.743 523.345 644.405 523.056 645.2 522.694C645.706 522.478 646.646 522.188 647.007 521.899C648.525 520.526 647.08 518.358 649.971 517.924C650.91 517.78 651.85 518.213 652.645 517.563C653.946 516.623 653.44 515.684 655.319 515.178C658.138 514.383 662.98 515.178 665.437 516.768C667.461 518.069 668.762 522.405 671.725 522.405C673.388 522.405 673.388 521.61 675.05 522.767C675.845 523.345 676.857 524.429 677.146 522.839C677.724 519.876 670.208 520.237 674.978 517.635C676.279 516.912 677.796 516.262 678.664 517.852C679.025 518.647 678.519 520.526 679.82 519.803C681.916 518.647 679.025 513.805 677.796 513.01C677.001 512.504 675.339 512.359 674.761 511.564C674.472 511.203 674.183 510.191 674.761 509.902C675.339 509.613 676.134 510.697 676.568 510.841C677.796 511.419 678.881 510.769 680.109 511.564C681.483 512.431 682.494 513.805 683.434 515.178C684.807 517.057 686.469 519.297 686.614 521.683C686.686 522.478 686.253 523.779 687.265 523.562C689.144 523.2 688.204 519.587 687.626 518.719C686.975 517.707 686.325 517.057 687.409 515.828C688.782 514.238 689.505 515.901 690.372 516.84C691.384 517.997 692.685 518.286 694.058 519.008C695.215 519.587 696.082 520.382 697.383 520.671C698.25 520.888 698.829 520.96 699.551 520.382C700.563 519.659 700.13 518.719 700.708 517.852C701.792 516.19 703.093 517.852 703.526 519.225C703.816 520.093 704.611 523.345 703.816 524.068C703.021 524.79 702.009 522.984 700.925 522.911C699.985 522.839 699.407 523.417 698.684 523.851C697.6 524.501 697.961 524.212 696.66 524.501C695.504 524.79 695.07 525.513 695.143 526.597C695.215 527.826 695.938 527.465 696.371 528.332C697.383 530.139 693.552 529.85 696.227 531.729C697.528 532.668 701.214 533.68 702.731 532.813C704.032 532.09 704.972 530.356 705.695 529.271C706.851 527.392 707.429 525.513 706.707 523.056C705.984 520.743 705.261 518.141 708.658 517.924C710.248 517.852 711.91 518.213 713.573 518.213C715.813 518.141 716.247 517.418 717.331 515.539C719.066 512.72 722.535 511.853 725.498 510.697C727.088 510.046 729.835 509.54 731.28 508.312C731.497 508.095 731.714 507.878 731.931 507.589C732.003 507.444 732.798 505.565 733.232 504.987C734.316 503.542 735.544 502.168 736.773 500.795C737.857 499.566 738.363 498.482 738.435 496.892C738.435 496.025 738.58 495.302 738.291 494.435C738.002 493.64 737.424 492.917 736.99 492.122C736.701 491.616 735.833 490.098 736.773 489.665C737.496 489.376 738.58 490.893 738.941 491.327C740.025 492.556 741.616 493.134 742.122 494.868C742.7 496.675 742.122 498.482 743.206 500.145C744.29 501.879 746.386 501.446 747.614 500C748.843 498.555 747.976 497.037 747.036 495.664C745.807 493.712 744.507 491.472 743.928 489.231C743.278 486.918 742.338 477.812 742.266 475.643C742.194 474.415 741.471 469.934 743.784 470.584C745.446 471.018 745.735 473.692 746.024 474.993C746.458 477.089 747.181 479.04 747.542 481.208C747.831 482.943 750.65 490.026 752.023 490.677C754.047 491.544 757.444 490.677 758.962 489.448C761.347 487.569 763.009 485.184 764.96 482.943C766.984 480.486 769.658 479.329 772.116 477.45C772.622 477.016 773.055 476.655 773.489 476.077C773.778 475.643 773.923 474.921 774.212 474.559C774.79 473.909 776.741 474.27 776.669 474.198C777.898 474.342 779.271 473.041 780.355 472.608C781.873 471.957 784.041 471.74 785.703 472.029C787.221 472.319 788.522 472.825 790.04 472.174C791.558 471.451 792.57 470.512 794.376 470.945C797.773 471.74 799.074 475.426 798.424 478.534C798.135 480.197 796.761 481.208 795.533 482.22C795.027 482.654 792.931 483.883 793.292 484.75C793.943 486.123 796.617 482.871 797.051 482.437C798.279 481.064 798.93 479.474 799.508 477.739C800.881 473.114 803.049 468.705 807.025 465.814C810.711 463.067 814.758 461.116 819.239 460.104C822.275 459.381 827.045 460.032 829.358 462.272C830.442 463.284 831.02 465.019 830.442 466.464C830.08 467.332 827.912 469.428 828.418 470.367C828.852 471.162 829.791 469.861 830.008 469.5C830.875 467.838 830.659 465.958 831.237 464.224C832.176 461.26 833.477 458.225 835.357 455.768C836.874 453.744 838.898 452.371 841.066 451.07C841.644 450.708 845.692 448.323 846.198 447.962C848.294 446.516 852.197 442.541 854.943 443.409C855.955 443.698 856.967 444.782 857.473 445.649C857.762 446.227 857.979 448.106 858.774 448.179C860.002 448.251 862.821 442.758 863.327 441.818C865.278 438.349 866.073 433.29 869.037 430.471C871.783 427.797 875.758 429.532 879.083 429.676C880.673 429.749 882.697 429.604 884.215 429.098C885.732 428.52 887.178 426.857 888.768 426.496C891.659 425.773 894.55 428.231 897.441 427.147C898.814 426.641 900.043 425.99 901.561 426.93C902.356 427.436 903.151 429.821 904.235 429.676C905.463 429.532 907.559 424.762 908.499 424.039C910.45 422.521 906.62 416.667 908.644 414.354C910.161 412.547 912.691 413.27 912.908 410.451C913.052 408.861 912.546 408.355 911.029 408.283C908.354 408.138 904.524 409.584 906.981 405.536C908.21 403.513 909.945 401.706 910.306 399.248C910.523 397.947 911.029 394.045 910.306 393.105C909.439 391.876 908.571 393.25 908.138 391.226C907.776 389.636 908.282 388.479 909.005 387.106C909.655 385.733 910.523 382.986 911.896 382.264C913.197 381.613 914.932 382.697 916.16 381.685C917.172 380.89 916.522 380.023 917.244 379.084C918.039 377.999 920.569 377.638 921.87 377.421C923.677 377.132 925.484 377.349 926.785 375.976C927.869 374.819 927.869 373.374 929.387 372.651C929.965 372.362 931.049 372.145 931.699 372.362C932.133 372.507 932.494 373.085 932.856 373.157C933.578 373.302 933.795 373.735 934.446 372.723C936.108 370.121 933.94 366.002 934.807 363.111C935.458 360.87 936.108 357.907 938.638 357.112C940.156 356.606 942.107 356.751 943.625 356.534C946.588 356.1 949.262 355.594 951.72 357.184C954.9 359.28 955.406 356.967 958.441 355.956C961.188 355.016 965.018 355.522 967.837 355.305C970.439 355.088 972.607 355.377 974.92 356.534C977.088 357.618 978.751 357.546 980.991 356.823C986.339 355.016 991.399 351.98 990.82 345.476C990.604 342.946 986.918 339.91 988.797 337.67C989.592 336.803 990.82 336.875 991.688 336.008C992.627 335.068 992.772 333.261 993.061 332.032C993.495 330.37 994.001 328.708 994.434 326.973C994.868 325.311 994.796 322.998 995.591 321.48C996.675 319.384 999.421 321.842 998.699 318.734C998.482 317.866 997.542 315.987 996.675 315.481C995.229 314.614 995.518 315.843 994.217 316.493C992.194 317.505 993.35 316.132 992.555 315.626C991.76 315.048 989.881 315.626 989.881 314.397C989.881 312.301 994.001 312.301 994.29 310.639C994.651 308.76 992.266 306.808 991.688 305.218C991.182 303.701 991.11 302.616 990.026 301.315C988.941 300.014 987.713 299.436 987.279 297.774C986.556 295.028 986.701 290.474 982.364 291.341C981.136 291.558 978.895 293.365 977.594 292.209C976.582 291.341 977.811 288.812 978.1 287.728C978.678 285.27 977.305 282.668 978.1 280.428C978.823 278.26 980.557 276.959 980.702 274.718C980.847 272.839 980.702 271.466 982.87 271.321C986.123 271.104 990.17 275.875 992.917 272.911C994.001 271.755 995.952 268.647 996.024 267.129C996.097 265.973 995.157 263.805 993.712 264.311C991.977 264.889 993.133 267.057 990.531 266.551C989.592 266.407 988.941 265.756 988.002 265.684C987.207 265.612 986.339 266.045 985.544 266.045C982.003 266.045 980.124 264.238 977.956 261.925C976.438 260.335 972.101 258.529 972.969 255.854C973.763 253.614 976.727 254.481 978.534 254.047C980.774 253.542 984.605 253.036 986.339 251.735C987.785 250.723 987.64 247.181 988.435 245.447C989.375 243.495 990.459 243.062 991.905 241.977C992.989 241.11 993.567 239.737 994.29 238.291C994.868 237.135 995.735 235.256 996.892 234.605C997.831 234.1 998.698 234.461 999.638 234.316C1002.1 234.244 998.12 232.509 997.47 231.425Z" fill="white"/>
<path d="M588.682 532.307C589.838 532.524 591.139 532.958 592.151 533.247C594.536 533.897 596.632 534.981 599.017 535.559C601.691 536.21 604.293 536.138 607.04 536.138C607.979 536.138 608.919 536.065 609.858 535.993C610.581 535.921 612.243 536.282 612.749 535.559C613.617 534.186 609.858 534.692 609.28 534.475C608.485 534.186 608.051 533.536 607.112 533.463C606.028 533.319 605.16 534.403 604.076 533.897C603.281 533.463 602.92 532.741 601.836 532.813C600.896 532.885 600.173 533.68 599.234 533.897C597.499 534.331 595.837 533.897 594.102 533.536C592.512 533.174 590.922 532.596 589.26 532.452C588.609 532.307 588.031 532.235 588.682 532.307Z" fill="white"/>
<path d="M726.727 524.501C726.221 523.995 727.45 522.694 728.173 522.044C728.895 521.393 729.474 520.598 730.124 519.948C731.425 518.719 733.449 518.719 734.967 517.852C736.412 517.057 737.641 515.973 738.58 514.672C739.159 513.877 739.448 512.793 740.17 512.142C740.46 511.925 740.243 514.094 740.17 514.238C739.881 515.178 739.448 516.045 739.014 516.84C738.291 518.141 737.569 519.731 736.412 520.815C734.822 522.333 732.943 522.911 731.353 523.273C730.052 523.562 728.896 524.501 727.595 524.646C727.161 524.718 726.872 524.646 726.727 524.501Z" fill="white"/>
<path d="M714.224 528.982C714.152 529.127 714.152 529.271 714.079 529.416C713.935 529.633 713.79 529.994 713.646 530.139C713.14 530.645 712.778 530.645 712.128 530.139C711.405 529.561 710.176 526.38 710.682 525.513C711.477 523.923 713.284 525.874 714.224 526.019C716.753 526.38 714.513 522.116 715.958 522.188C717.548 522.261 717.476 527.392 717.838 528.404C718.777 531.295 721.379 539.751 721.813 540.98C722.174 541.992 722.897 542.715 723.258 543.726C723.62 544.594 725.643 547.846 724.921 548.713C724.559 549.219 724.27 548.208 724.126 547.918C723.836 547.34 723.475 546.69 723.114 546.184C722.319 545.172 721.234 544.594 720.295 545.75C719.861 546.256 719.139 547.557 718.271 546.545C717.548 545.678 718.922 542.064 718.994 541.052C719.066 539.462 719.428 537.077 718.922 535.559C718.56 534.331 717.765 532.957 717.259 531.801C716.898 531.006 716.392 530.283 715.886 529.633C715.597 529.344 715.308 528.982 714.947 528.765C714.802 528.693 714.657 528.549 714.513 528.693C714.296 528.693 714.224 528.838 714.224 528.982Z" fill="white"/>
<path d="M680.471 526.019C680.327 526.091 680.182 526.164 680.038 526.164C679.098 525.947 680.037 524.429 680.327 523.995C680.688 523.345 681.122 522.767 681.338 522.044C681.411 521.683 681.411 520.237 681.844 520.093C683.145 519.514 682.061 523.273 681.917 523.634C681.411 524.646 680.76 525.802 680.471 526.019Z" fill="white"/>
<path d="M682.928 526.886C682.784 527.248 682.422 527.754 682.712 528.043C683.29 528.765 684.085 526.453 684.085 525.802C684.085 525.296 683.94 525.079 683.796 525.152C683.507 525.224 683.217 526.308 682.928 526.886Z" fill="white"/>
</g>
<defs>
<clipPath id="clip0_600:1337">
<rect width="1000" height="602.125" fill="white"/>
</clipPath>
</defs>
</svg>
