<svg width="177" height="29" viewBox="0 0 177 29" fill="none" xmlns="http://www.w3.org/2000/svg">
<path fill-rule="evenodd" clip-rule="evenodd" d="M131.676 4.13197C136.601 4.13197 140.489 4.90958 142.822 6.72401C145.414 8.27924 146.71 11.1305 146.71 14.7594C146.71 18.3882 145.414 20.9803 143.081 22.7947C140.489 24.3499 136.86 25.3868 131.676 25.3868C126.751 25.3868 122.863 24.6091 120.271 22.7947C117.679 21.2395 116.642 18.3882 116.642 14.7594C116.642 11.1305 117.938 8.53845 120.271 6.72401C122.863 4.90958 126.751 4.13197 131.676 4.13197ZM131.676 19.6842C134.527 19.6842 138.675 19.6842 139.971 17.0922C140.489 15.7962 140.489 13.2041 139.971 11.9081C138.675 9.31606 134.527 9.31606 131.676 9.31606C128.825 9.31606 124.677 9.31606 123.381 11.9081C122.863 13.2041 122.863 15.7962 123.381 17.0922C124.677 19.6842 128.825 19.6842 131.676 19.6842ZM113.272 19.6842H98.757V4.13197H92.2769V25.1275H117.161L113.272 19.6842ZM66.6156 24.8683L70.5037 19.6842H74.3917C74.9102 19.6842 75.6878 19.6842 76.2062 19.6842C76.9838 19.6842 77.5022 19.6842 78.0206 19.6842C77.7614 19.425 77.5022 18.9066 77.243 18.3882C76.9838 17.8698 76.4654 17.3514 76.2062 16.833L72.5773 11.3897L62.9867 25.1275H55.4698L68.6892 6.46481C69.2077 5.9464 69.7261 5.42799 70.2445 4.90958C71.0221 4.39117 71.7997 4.13197 72.8365 4.13197C73.8733 4.13197 74.651 4.39117 75.1694 4.90958C75.6878 5.42799 76.4654 5.9464 76.7246 6.46481L89.6848 25.1275C89.4256 24.8683 66.6156 24.8683 66.6156 24.8683ZM44.8424 17.3514L34.9926 2.83594L24.8837 0.243896L44.324 28.7564L64.542 0.243896L54.9514 2.83594L44.8424 17.3514ZM22.5508 24.8683H0L12.9602 6.2056C13.4786 5.42799 13.9971 4.90958 14.5155 4.65038C15.0339 4.39117 16.0707 3.87276 16.8483 3.87276C17.8851 3.87276 18.6627 4.13197 19.4404 4.65038C20.218 5.16879 20.7364 5.68719 20.9956 6.2056L34.215 24.8683H26.6981L17.1075 11.3897L13.2194 16.5738C12.9602 17.0922 12.701 17.6106 12.1826 18.3882C11.6642 19.1658 11.6642 19.425 11.1458 19.6842C11.6642 19.6842 12.1826 19.6842 12.9602 19.6842C13.7378 19.6842 14.2563 19.6842 14.7747 19.6842H18.6627L22.5508 24.8683ZM172.371 24.8683C171.853 24.8683 171.594 24.8683 171.075 24.6091C170.557 24.3499 170.297 24.0907 169.779 23.8315L156.56 12.6857V24.8683H150.339V7.76083C150.339 6.98322 150.339 6.46481 150.598 5.9464C150.857 5.42799 151.116 5.16879 151.376 4.65038C151.635 4.39117 152.153 4.13197 152.672 3.87276C153.19 3.61356 153.449 3.61356 153.968 3.61356C154.486 3.61356 154.745 3.61356 155.264 3.87276C155.782 4.13197 156.041 4.39117 156.819 4.65038L170.038 15.7962V4.13197H176.259V20.9803C176.259 21.7579 176.259 22.2763 176 22.7947C175.741 23.3131 175.482 23.5723 175.222 24.0907C174.963 24.3499 174.445 24.6091 173.926 24.8683C173.408 24.8683 172.89 24.8683 172.371 24.8683Z" fill="black"/>
</svg>
