<svg width="161" height="22" viewBox="0 0 161 22" fill="none" xmlns="http://www.w3.org/2000/svg">
<path fill-rule="evenodd" clip-rule="evenodd" d="M88.2865 10.1888C88.2865 10.1888 86.72 9.28726 85.7515 8.93843C85.7515 8.93843 82.7533 7.64504 82.1585 7.02967C82.1585 7.02967 80.99 6.00468 81.6742 4.81416C81.6742 4.81416 81.9606 4.03514 83.1954 4.03514C83.1954 4.03514 84.803 4.11743 84.803 5.34723V7.08204H90.5642L90.5542 4.52706C90.5542 4.52706 90.9973 0.342939 83.7681 0.158703C83.7681 0.158703 78.0822 -0.189199 76.4515 2.66131C76.4515 2.66131 75.8115 3.29726 75.8115 5.51183V7.11197C75.8115 7.11197 75.7462 8.95807 76.759 10.1477C76.759 10.1477 77.3317 10.9276 78.7424 11.788C78.7424 11.788 81.6069 13.2236 83.326 14.0456C83.326 14.0456 85.0612 14.9677 84.8331 16.4351C84.8331 16.4351 84.6915 17.9417 83.0155 17.8799C83.0155 17.8799 81.4833 17.8164 81.4833 16.3387V14.6049H75.3443V17.1234C75.3443 17.1234 75.1725 21.9397 83.0608 21.9397C83.0608 21.9397 90.5984 22.0818 90.95 16.9971V14.9462C90.949 14.9462 91.2163 11.8301 88.2865 10.1888ZM58.7911 0.75817L56.862 12.0106H56.4108L54.5681 0.859174H44.9447L44.4624 21.2364H50.1603L50.2286 5.88311H50.6767L53.697 21.2336H59.6913L62.6744 5.88872H63.0713L63.209 21.2364H68.937L68.3201 0.75817H58.7911ZM24.8728 0.843277L21.0819 21.213H27.2159L29.4615 5.41925H29.9659L32.2105 21.213H38.3435L34.5536 0.843277H24.8728ZM153.583 9.90824V12.9131H155.156V16.1386C155.156 17.7154 153.709 17.7443 153.709 17.7443C151.948 17.7443 152.015 16.2461 152.015 16.2461V5.08911C152.015 3.93974 153.577 3.87802 153.577 3.87802C155.076 3.87802 155.086 5.24904 155.086 5.24904V6.9455H160.861C161.05 3.63393 160.341 2.83246 160.341 2.83246C158.908 -0.162072 153.489 0.00158903 153.489 0.00158903C145.16 0.00158903 146.085 5.94951 146.085 5.94951V16.7371C146.263 22.3156 154.47 21.7489 154.609 21.7442C158.259 21.3683 159.361 20.2881 159.361 20.2881C160.376 19.5867 160.637 18.615 160.637 18.615C160.928 18.0492 161 16.2461 161 16.2461V9.90824H153.583ZM134.44 13.2236H134.188L128.328 0.763778H121.316V21.2383H127.022L126.681 8.78038H126.936L133.008 21.2383H139.807V0.761909H134.028L134.44 13.2236ZM107.385 16.1367C107.385 16.1367 107.467 17.8173 105.793 17.8173C105.793 17.8173 104.033 17.9052 104.033 16.1788L104.015 0.775936H97.7552V16.0563C97.7552 16.0563 97.1132 21.8396 105.882 21.8396C105.882 21.8396 113.502 21.9238 113.502 16.3219V0.776871H107.385V16.1367ZM12.9394 10.1888C12.9394 10.1888 11.375 9.28726 10.4055 8.93937C10.4055 8.93937 7.40931 7.64691 6.8145 7.03061C6.8145 7.03061 5.64598 6.00375 6.33121 4.81603C6.33121 4.81603 6.61656 4.037 7.85039 4.037C7.85039 4.037 9.45899 4.11837 9.45899 5.34817V7.08298H15.2222L15.2112 4.52706C15.2112 4.52706 15.6512 0.342939 8.42511 0.159638C8.42511 0.159638 7.88053 0.126903 7.08176 0.164311C7.08176 0.164311 2.70408 0.38315 1.13868 2.6183C1.12964 2.63513 1.11657 2.64729 1.10753 2.66226C1.10753 2.66226 0.468513 3.29726 0.468513 5.51276V7.1129C0.468513 7.1129 0.402199 8.95901 1.41599 10.1486C1.41599 10.1486 1.9887 10.9286 3.39936 11.7889C3.39936 11.7889 6.26289 13.2245 7.98201 14.0465C7.98201 14.0465 9.71922 14.9668 9.48913 16.436C9.48913 16.436 9.34746 17.9426 7.67255 17.8809C7.67255 17.8809 6.14031 17.8173 6.14031 16.3397V14.6049H0.000299375V17.1252C0.000299375 17.1252 -0.171512 21.9416 7.71676 21.9416C7.71676 21.9416 15.2524 22.0837 15.607 16.999V14.9499C15.607 14.9481 15.8703 11.8301 12.9394 10.1888Z" fill="#1428A0"/>
</svg>
