<svg width="152" height="20" viewBox="0 0 152 20" fill="none" xmlns="http://www.w3.org/2000/svg">
<path fill-rule="evenodd" clip-rule="evenodd" d="M7.29404 5.34767H24.4404C24.4404 0.867902 19.6013 0 18.0105 0H6.04916C4.32107 0 0 0.867902 0 5.34767V7.39543C0 11.8404 4.32107 12.6394 6.04916 12.6394H17.1116C18.7365 12.6394 18.805 14.7917 17.1116 14.7917L0 14.8266C0 19.2367 4.94393 19.966 6.56877 19.966H18.3565C20.0847 19.966 24.4404 19.2367 24.4404 14.8266V12.6394C24.4404 8.22933 20.0855 7.39543 18.3565 7.39543L7.29404 7.4303C5.66919 7.4303 5.63534 5.34767 7.29404 5.34767ZM142.391 0.138554H132.883L125.139 7.25773L122.202 7.22203V0.138554H115.565V20H122.202V11.9449H125.797L135.234 20H144.291L131.949 9.34037L142.391 0.138554ZM46.9098 7.4303H33.2899V0.0696983H26.5146V19.966H33.2899V12.7091H46.9098V19.966H53.4092V0.0696983H46.9098V7.4303ZM62.7427 0.0696983H56.2086V19.966H62.7427V0.0696983ZM145.571 19.966H152V0.0696983H145.571V19.966ZM77.1581 19.966H82.7925L92.7482 0.0696983H85.7664L78.4716 15L71.0048 0.0696983H63.9529L72.6297 17.3972C73.6664 19.2358 75.3259 19.966 77.1581 19.966ZM105.92 2.77797C104.779 0.937605 103.119 0.138554 101.598 0.138554H95.6872L91.4017 8.61187L85.6631 20H92.6119L94.4779 16.355H105.712L107.406 20H114.425L108.79 8.61187L105.92 2.77797ZM96.6554 11.9449L98.2803 8.61187L99.9398 5.24397L101.667 8.61187L103.396 11.9449H96.6554Z" fill="#EE352A"/>
</svg>
