<svg width="200" height="200" viewBox="0 0 200 200" fill="none" xmlns="http://www.w3.org/2000/svg">
<g class="circle">
<path d="M86.8928 182.987L82.1067 181.994C81.0728 181.779 80.1958 181.9 79.4757 182.355C78.7546 182.815 78.2923 183.539 78.0889 184.526C77.9597 185.153 78.0027 185.737 78.2181 186.277C78.4324 186.823 78.8014 187.278 79.3253 187.643C78.8862 187.791 78.5125 188.046 78.204 188.407C77.8954 188.767 77.6879 189.206 77.5813 189.724C77.4736 190.246 77.5015 190.758 77.6648 191.261C77.8218 191.767 78.1119 192.209 78.5353 192.585C78.9535 192.961 79.4994 193.218 80.173 193.358L84.5674 194.27L86.8928 182.987ZM84.1279 189.268L83.4287 192.661L80.46 192.045C79.9325 191.936 79.5361 191.693 79.2706 191.316C78.9999 190.939 78.9146 190.507 79.0148 190.021C79.1235 189.494 79.3856 189.107 79.8012 188.861C80.2104 188.619 80.6631 188.549 81.1592 188.652L84.1279 189.268ZM85.2083 184.027L84.3992 187.952L81.1328 187.274C80.5323 187.15 80.0844 186.852 79.7892 186.383C79.4928 185.918 79.4033 185.401 79.5207 184.832C79.6434 184.236 79.9487 183.812 80.4364 183.559C80.9231 183.312 81.4771 183.252 82.0985 183.381L85.2083 184.027Z" fill="currentColor"/>
<path d="M64.3077 185.327L65.3985 185.744L71.8648 181.495L69.6348 187.366L70.9199 187.858L73.988 179.781L72.8897 179.36L66.3996 183.695L68.6608 177.742L67.3757 177.25L64.3077 185.327Z" fill="currentColor"/>
<path d="M63.2591 173.196L62.0831 172.512L61.1243 174.176L55.8672 171.121L56.826 169.458L55.6501 168.775L54.104 171.457L54.8303 171.879L51.1027 178.346L56.2491 181.336C56.9105 180.295 57.4829 179.425 57.9664 178.725C58.4425 178.027 58.9054 177.411 59.3551 176.877C59.8307 176.308 60.2406 175.938 60.5849 175.768C60.9219 175.6 61.2979 175.637 61.7129 175.878L63.2591 173.196ZM59.8176 174.777C59.5584 174.842 59.3203 174.972 59.1034 175.167C58.8819 175.359 58.6399 175.613 58.3776 175.929C58.1193 176.217 57.8379 176.572 57.5334 176.993C57.2263 177.419 56.9168 177.865 56.6048 178.332C56.2902 178.803 55.9962 179.249 55.7228 179.67L52.9213 178.042L56.0615 172.594L59.8176 174.777Z" fill="currentColor"/>
<path d="M47.7632 164.842C47.1158 164.311 46.401 163.994 45.6189 163.89C44.8334 163.791 44.0681 163.929 43.3228 164.304L44.0827 165.538C45.1057 165.066 46.0646 165.197 46.9594 165.931C47.5739 166.435 47.9032 167.019 47.9474 167.683C47.9841 168.348 47.7424 169.046 47.2223 169.779L42.1007 165.578C41.4215 166.345 40.9675 167.114 40.7389 167.886C40.506 168.653 40.5005 169.387 40.7223 170.086C40.9399 170.782 41.3848 171.406 42.057 171.957C42.7044 172.488 43.3888 172.805 44.1103 172.907C44.8284 173.013 45.5402 172.907 46.2458 172.589C46.9439 172.272 47.5909 171.747 48.1866 171.015C48.7555 170.315 49.1196 169.593 49.279 168.848C49.431 168.103 49.3811 167.383 49.1293 166.687C48.8742 165.995 48.4189 165.38 47.7632 164.842ZM42.8277 170.934C41.6937 170.004 41.5922 168.827 42.5231 167.404L46.4818 170.651C45.8851 171.224 45.2772 171.536 44.6582 171.587C44.0358 171.642 43.4256 171.424 42.8277 170.934Z" fill="currentColor"/>
<path d="M38.2896 155.639C37.7212 154.996 37.0888 154.57 36.3925 154.361C35.6927 154.149 34.9746 154.146 34.2384 154.352C33.4987 154.553 32.7922 154.954 32.1191 155.553C31.4539 156.146 30.9777 156.795 30.6903 157.5C30.3953 158.206 30.311 158.92 30.4373 159.643C30.5596 160.37 30.9067 161.057 31.4787 161.705C32.0365 162.336 32.6653 162.758 33.3651 162.97C34.061 163.186 34.7768 163.195 35.5126 162.997C36.2483 162.799 36.9548 162.398 37.6319 161.795C38.297 161.203 38.7771 160.554 39.072 159.849C39.3634 159.139 39.4479 158.421 39.3256 157.695C39.2033 156.968 38.858 156.283 38.2896 155.639ZM37.2799 156.539C37.8553 157.19 38.0743 157.877 37.9367 158.6C37.7951 159.325 37.3599 160.013 36.631 160.662C35.926 161.29 35.2095 161.639 34.4814 161.709C33.7494 161.782 33.085 161.481 32.4884 160.805C31.9023 160.142 31.6798 159.451 31.8209 158.732C31.9621 158.014 32.3951 157.332 33.12 156.687C33.8289 156.055 34.553 155.707 35.2921 155.641C36.0277 155.572 36.6903 155.871 37.2799 156.539Z" fill="currentColor"/>
<path d="M26.4529 138.037C26.0662 137.27 25.5624 136.698 24.9415 136.32C24.3182 135.937 23.6243 135.751 22.8598 135.763C22.0928 135.77 21.3077 135.978 20.5044 136.387C19.7106 136.791 19.0851 137.298 18.628 137.907C18.1638 138.515 17.901 139.184 17.8398 139.915C17.7739 140.649 17.9355 141.401 18.3246 142.173C18.7042 142.925 19.2056 143.493 19.8288 143.876C20.4474 144.261 21.1377 144.451 21.8999 144.447C22.6621 144.442 23.4472 144.234 24.2553 143.823C25.0491 143.419 25.6781 142.913 26.1424 142.306C26.6042 141.694 26.8681 141.021 26.9341 140.287C27 139.554 26.8396 138.804 26.4529 138.037ZM25.2479 138.65C25.6395 139.426 25.6771 140.146 25.3607 140.81C25.0396 141.476 24.4441 142.03 23.5743 142.473C22.7329 142.901 21.9511 143.056 21.229 142.939C20.502 142.824 19.9356 142.364 19.5296 141.56C19.1309 140.769 19.0909 140.045 19.4096 139.386C19.7284 138.727 20.3203 138.177 21.1854 137.737C22.0315 137.307 22.8204 137.153 23.5522 137.278C24.2815 137.397 24.8468 137.855 25.2479 138.65Z" fill="currentColor"/>
<path d="M19.9861 121.654L19.6872 120.262L12.5645 121.805L11.6764 117.668L18.7992 116.124L18.5003 114.732L10.0563 116.562L11.542 123.484L19.9861 121.654Z" fill="currentColor"/>
<path d="M21.5238 108.307L21.4498 106.877L16.8162 107.12C17.1251 106.794 17.3618 106.416 17.5265 105.986C17.6855 105.55 17.7511 105.063 17.7232 104.525C17.6816 103.721 17.4461 103.042 17.0169 102.487C16.5821 101.928 16.0131 101.512 15.3101 101.239C14.607 100.966 13.8241 100.852 12.9613 100.898C12.0985 100.943 11.3315 101.138 10.6605 101.483C9.9894 101.828 9.47183 102.301 9.10777 102.902C8.7381 103.498 8.57394 104.196 8.6153 104.995C8.64564 105.581 8.77904 106.094 9.01552 106.536C9.252 106.977 9.56745 107.345 9.96187 107.64L8.99519 107.691L9.06096 108.961L21.5238 108.307ZM16.4301 104.769C16.475 105.637 16.2019 106.293 15.6106 106.735C15.0191 107.172 14.2493 107.415 13.3013 107.465C12.3479 107.515 11.5598 107.353 10.937 106.98C10.3086 106.602 9.97267 105.992 9.9291 105.15C9.89876 104.564 10.0176 104.075 10.2856 103.681C10.5534 103.283 10.9276 102.98 11.4082 102.773C11.8885 102.561 12.4323 102.439 13.0395 102.408C13.6519 102.375 14.2107 102.44 14.7157 102.6C15.2153 102.761 15.6186 103.02 15.9255 103.378C16.2324 103.736 16.4006 104.199 16.4301 104.769Z" fill="currentColor"/>
<path d="M18.1506 91.4566C18.2408 90.6241 18.1154 89.8513 17.7743 89.1382C17.4279 88.4244 16.894 87.8566 16.1726 87.4346L15.5559 88.7435C16.5098 89.3464 16.9244 90.2231 16.7996 91.3737C16.714 92.1637 16.4055 92.7578 15.8741 93.1559C15.338 93.5481 14.6215 93.7249 13.7244 93.6861L14.4385 87.1007C13.4251 86.9473 12.5333 86.9842 11.763 87.2114C10.9932 87.4333 10.3765 87.8275 9.91273 88.3939C9.44954 88.955 9.17108 89.6677 9.07737 90.532C8.9871 91.3644 9.09655 92.1113 9.40572 92.7727C9.70958 93.4336 10.1875 93.9739 10.8393 94.3936C11.4865 94.8075 12.2793 95.0656 13.2177 95.1679C14.1138 95.2656 14.9171 95.1788 15.6278 94.9075C16.3338 94.6304 16.9093 94.1969 17.3541 93.6069C17.7937 93.0164 18.0591 92.2996 18.1506 91.4566ZM10.355 90.6229C10.5131 89.1648 11.442 88.4399 13.1417 88.4481L12.5897 93.5383C11.7842 93.3485 11.1908 93.0076 10.8096 92.5154C10.4232 92.0226 10.2716 91.3918 10.355 90.6229Z" fill="currentColor"/>
<path d="M21.132 83.0742L21.4918 81.7627L19.6411 81.2515L21.2498 75.3882L23.1005 75.8994L23.4604 74.5878L20.4761 73.7636L20.2539 74.5736L13.0593 72.5864L11.4844 78.3263C12.6578 78.7057 13.6441 79.0417 14.4431 79.3344C15.2384 79.6205 15.9515 79.9142 16.5822 80.2157C17.2526 80.5337 17.7138 80.8381 17.9658 81.129C18.2141 81.4134 18.2747 81.787 18.1477 82.2499L21.132 83.0742ZM18.7277 80.1361C18.5986 79.9012 18.4123 79.7031 18.169 79.5419C17.9271 79.3754 17.62 79.2048 17.2476 79.0301C16.9038 78.8521 16.4896 78.6685 16.005 78.4794C15.5153 78.2888 15.0055 78.1009 14.4756 77.9158C13.9406 77.7293 13.435 77.5565 12.9588 77.3973L13.816 74.2727L19.8771 75.9469L18.7277 80.1361Z" fill="currentColor"/>
<path d="M23.4593 69.2261L24.0497 67.9303L17.4265 64.8892L19.1811 61.0381L25.8043 64.0791L26.3947 62.7833L18.5429 59.1781L15.6074 65.6208L23.4593 69.2261Z" fill="currentColor"/>
<path d="M32.6296 59.4411L33.4233 58.2492L29.5708 55.6631C30.0124 55.587 30.4274 55.4256 30.8159 55.1789C31.203 54.9248 31.5458 54.5736 31.8443 54.1253C32.2907 53.455 32.5075 52.7686 32.4946 52.0663C32.4803 51.3565 32.2732 50.6811 31.8734 50.0402C31.4736 49.3993 30.915 48.8381 30.1977 48.3566C29.4803 47.875 28.7503 47.5713 28.0076 47.4453C27.2649 47.3193 26.5686 47.3883 25.9187 47.6522C25.2673 47.9087 24.7199 48.3699 24.2765 49.0358C23.9514 49.5241 23.7517 50.0163 23.6776 50.5126C23.6034 51.0088 23.6364 51.4934 23.7764 51.9663L22.9726 51.4268L22.2676 52.4856L32.6296 59.4411ZM30.6641 53.545C30.1823 54.2686 29.5729 54.6304 28.836 54.6304C28.1021 54.6259 27.3411 54.3591 26.5529 53.83C25.7602 53.298 25.226 52.6953 24.9503 52.022C24.6731 51.3414 24.768 50.6503 25.2351 49.949C25.5602 49.4607 25.9473 49.1392 26.3963 48.9845C26.8483 48.8254 27.3282 48.8071 27.8361 48.9296C28.347 49.0477 28.8548 49.2762 29.3596 49.6151C29.8689 49.9569 30.2777 50.3437 30.586 50.7755C30.89 51.2043 31.058 51.6544 31.0902 52.1256C31.1224 52.5969 30.9804 53.07 30.6641 53.545Z" fill="currentColor"/>
<path d="M35.7453 35.3934L34.9512 36.2499L36.4549 43.8647L31.8672 39.5762L30.9316 40.5852L37.2434 46.4853L38.0429 45.623L36.4695 37.9539L41.1215 42.3025L42.0571 41.2935L35.7453 35.3934Z" fill="currentColor"/>
<path d="M46.2938 37.3472L47.5045 36.402L47.1992 32.662C47.2992 32.5908 47.3975 32.5174 47.4942 32.4419L48.9635 31.2949L50.8783 33.7684L52.0071 32.8872L46.7119 26.0601L44.057 28.1325C43.9015 28.254 43.7198 28.4026 43.5119 28.5784C43.304 28.7542 43.1129 28.9473 42.9386 29.1578C42.5494 29.6308 42.3359 30.1696 42.2981 30.7742C42.257 31.3746 42.4634 31.9679 42.9172 32.5541C43.3449 33.1066 43.8285 33.4395 44.3681 33.5528C44.9086 33.6586 45.4423 33.6073 45.969 33.3991L46.2938 37.3472ZM46.6923 31.576C46.5914 31.6548 46.4684 31.7441 46.3231 31.8439C46.182 31.9405 46.0312 32.0245 45.8705 32.0957C45.5619 32.2284 45.2441 32.2667 44.9174 32.2106C44.5916 32.1469 44.3063 31.9569 44.0614 31.6406C43.8067 31.3117 43.6926 30.9813 43.719 30.6494C43.7463 30.3101 43.8381 30.0322 43.9941 29.8156C44.1044 29.6618 44.2341 29.52 44.3831 29.3902C44.5363 29.257 44.6613 29.1527 44.758 29.0772L46.3093 27.8662L48.2436 30.365L46.6923 31.576Z" fill="currentColor"/>
<path d="M59.4954 28.1517L60.7399 27.4595L57.1933 21.0286L59.8221 19.5664L59.1962 18.4316L52.6943 22.0481L53.3202 23.183L55.9489 21.7208L59.4954 28.1517Z" fill="currentColor"/>
<path d="M72.2381 13.0709L71.1418 13.4738L69.0339 20.9393L66.8843 15.0387L65.5928 15.5134L68.5502 23.6315L69.654 23.2258L71.7243 15.6803L73.904 21.6637L75.1956 21.1889L72.2381 13.0709Z" fill="currentColor"/>
<path d="M86.5309 9.68524L85.3842 9.90737L82.1143 16.9376L80.931 10.77L79.5801 11.0317L81.2081 19.517L82.3626 19.2933L85.6081 12.1782L86.808 18.4322L88.1589 18.1705L86.5309 9.68524Z" fill="currentColor"/>
<path d="M118.193 19.2241L122.917 20.4779C123.938 20.7487 124.82 20.6766 125.564 20.2615C126.309 19.8412 126.81 19.1436 127.067 18.1689C127.23 17.55 127.218 16.9649 127.033 16.4135C126.848 15.8569 126.505 15.3822 126.002 14.9893C126.448 14.865 126.835 14.6311 127.163 14.2877C127.49 13.9442 127.721 13.5172 127.856 13.0066C127.992 12.4909 127.992 11.9778 127.856 11.4672C127.727 10.9528 127.461 10.4961 127.059 10.0969C126.662 9.69904 126.131 9.41189 125.466 9.23542L121.128 8.08423L118.193 19.2241ZM121.295 13.1029L122.177 9.75324L125.108 10.531C125.629 10.6691 126.011 10.9335 126.256 11.3239C126.505 11.7158 126.567 12.1515 126.441 12.6311C126.304 13.152 126.021 13.5239 125.593 13.7469C125.171 13.966 124.715 14.0106 124.225 13.8807L121.295 13.1029ZM119.931 18.2783L120.952 14.4026L124.177 15.2583C124.77 15.4156 125.201 15.7369 125.47 16.2222C125.74 16.7023 125.802 17.2235 125.654 17.7856C125.499 18.3736 125.171 18.7804 124.67 19.0062C124.171 19.2269 123.614 19.2558 123.001 19.093L119.931 18.2783Z" fill="currentColor"/>
<path d="M140.87 18.1239L139.804 17.6473L133.117 21.5373L135.663 15.7965L134.406 15.2351L130.904 23.1333L131.977 23.6131L138.693 19.6394L136.111 25.4606L137.367 26.0221L140.87 18.1239Z" fill="currentColor"/>
<path d="M141.258 30.297L142.394 31.0435L143.442 29.4347L148.525 32.7719L147.477 34.3806L148.614 35.1271L150.303 32.533L149.601 32.0719L153.675 25.8178L148.7 22.5509C147.983 23.5539 147.364 24.3917 146.843 25.0641C146.33 25.7351 145.834 26.3251 145.356 26.8343C144.85 27.3763 144.421 27.7228 144.068 27.8738C143.722 28.0233 143.349 27.9663 142.947 27.7028L141.258 30.297ZM144.78 28.906C145.042 28.855 145.287 28.7381 145.514 28.5555C145.746 28.3758 146.001 28.1352 146.28 27.8336C146.554 27.5603 146.854 27.2215 147.181 26.8173C147.511 26.4086 147.844 25.9799 148.181 25.5312C148.521 25.078 148.839 24.6486 149.135 24.2432L151.843 26.0216L148.411 31.2903L144.78 28.906Z" fill="currentColor"/>
<path d="M156.276 39.4861C156.894 40.0517 157.59 40.4074 158.365 40.5534C159.144 40.6955 159.916 40.5995 160.68 40.2656L159.989 38.9922C158.942 39.4072 157.991 39.2239 157.138 38.4422C156.552 37.9054 156.255 37.3043 156.247 36.6389C156.247 35.9731 156.526 35.2889 157.085 34.586L161.97 39.0602C162.69 38.3311 163.185 37.5877 163.456 36.8301C163.73 36.0761 163.776 35.3439 163.592 34.6336C163.413 33.9268 163.003 33.2799 162.362 32.6927C161.744 32.1271 161.078 31.7737 160.363 31.6325C159.652 31.4873 158.936 31.5543 158.214 31.8333C157.499 32.112 156.825 32.6007 156.19 33.2994C155.584 33.9665 155.181 34.6678 154.981 35.4033C154.789 36.1384 154.799 36.8605 155.013 37.5694C155.23 38.2744 155.651 38.9133 156.276 39.4861ZM161.536 33.6725C162.618 34.6631 162.655 35.8436 161.648 37.2138L157.872 33.7555C158.499 33.2161 159.123 32.9378 159.744 32.9206C160.369 32.8995 160.966 33.1501 161.536 33.6725Z" fill="currentColor"/>
<path d="M165.234 49.1934C165.767 49.8671 166.375 50.3269 167.059 50.5729C167.746 50.8231 168.463 50.8656 169.209 50.7003C169.959 50.5393 170.686 50.1778 171.391 49.616C172.087 49.0609 172.598 48.4388 172.924 47.7497C173.257 47.0614 173.38 46.3529 173.293 45.624C173.211 44.8918 172.902 44.1868 172.366 43.5089C171.843 42.8479 171.238 42.3922 170.551 42.142C169.868 41.8885 169.154 41.8406 168.408 41.9983C167.663 42.1561 166.936 42.5175 166.227 43.0826C165.53 43.6378 165.015 44.2595 164.682 44.9477C164.353 45.6401 164.229 46.3525 164.312 47.0847C164.394 47.8169 164.702 48.5198 165.234 49.1934ZM166.291 48.3507C165.752 47.6687 165.571 46.9708 165.748 46.257C165.929 45.5399 166.401 44.8771 167.164 44.2688C167.902 43.6804 168.637 43.3712 169.368 43.3411C170.103 43.3077 170.75 43.6445 171.309 44.3516C171.858 45.0462 172.042 45.7483 171.862 46.4579C171.682 47.1675 171.212 47.8248 170.453 48.4299C169.711 49.0216 168.969 49.33 168.227 49.355C167.489 49.3842 166.844 49.0495 166.291 48.3507Z" fill="currentColor"/>
<path d="M176.098 67.4171C176.442 68.2036 176.914 68.8027 177.514 69.2142C178.115 69.6306 178.798 69.8537 179.562 69.8835C180.329 69.9181 181.124 69.7534 181.948 69.3891C182.763 69.0292 183.415 68.5575 183.905 67.9738C184.402 67.3929 184.7 66.7391 184.801 66.0123C184.907 65.2834 184.787 64.5232 184.44 63.7318C184.102 62.9599 183.632 62.3657 183.031 61.9493C182.434 61.5307 181.755 61.303 180.994 61.2662C180.232 61.2294 179.437 61.3942 178.608 61.7606C177.793 62.1205 177.137 62.5909 176.641 63.1718C176.146 63.7576 175.846 64.4149 175.74 65.1439C175.634 65.8728 175.754 66.6305 176.098 67.4171ZM177.335 66.8707C176.986 66.0744 176.988 65.3536 177.34 64.7083C177.697 64.0609 178.321 63.54 179.214 63.1456C180.078 62.7641 180.867 62.6516 181.582 62.8081C182.301 62.9625 182.842 63.4525 183.204 64.2781C183.559 65.0891 183.559 65.8148 183.205 66.4552C182.851 67.0956 182.23 67.6119 181.342 68.0041C180.473 68.3877 179.677 68.4975 178.953 68.3334C178.232 68.1742 177.692 67.6866 177.335 66.8707Z" fill="currentColor"/>
<path d="M181.667 84.1294L181.889 85.5359L189.086 84.3849L189.748 88.5648L182.551 89.7158L182.774 91.1223L191.306 89.7578L190.198 82.7649L181.667 84.1294Z" fill="currentColor"/>
<path d="M179.407 97.3729L179.403 98.8049L184.043 98.816C183.717 99.1246 183.46 99.4893 183.272 99.9102C183.09 100.336 182.998 100.819 182.996 101.358C182.994 102.163 183.192 102.854 183.591 103.431C183.995 104.013 184.54 104.46 185.227 104.771C185.915 105.082 186.69 105.238 187.554 105.24C188.418 105.242 189.195 105.09 189.883 104.782C190.572 104.474 191.115 104.03 191.511 103.45C191.912 102.875 192.114 102.187 192.116 101.387C192.118 100.801 192.013 100.28 191.801 99.8265C191.588 99.3727 191.293 98.988 190.916 98.6724L191.884 98.6747L191.887 97.4027L179.407 97.3729ZM184.301 101.185C184.303 100.315 184.612 99.676 185.226 99.2668C185.84 98.863 186.622 98.6622 187.572 98.6644C188.526 98.6667 189.304 98.8712 189.906 99.278C190.513 99.6901 190.815 100.318 190.813 101.16C190.811 101.747 190.666 102.229 190.377 102.607C190.088 102.99 189.698 103.272 189.207 103.452C188.716 103.638 188.166 103.73 187.558 103.728C186.945 103.727 186.39 103.632 185.895 103.444C185.405 103.257 185.016 102.976 184.729 102.602C184.442 102.228 184.299 101.755 184.301 101.185Z" fill="currentColor"/>
<path d="M181.862 114.383C181.726 115.209 181.81 115.988 182.111 116.719C182.419 117.45 182.921 118.047 183.618 118.508L184.305 117.234C183.385 116.58 183.019 115.682 183.206 114.54C183.335 113.756 183.675 113.179 184.227 112.811C184.783 112.448 185.509 112.311 186.402 112.399L185.331 118.936C186.335 119.145 187.227 119.157 188.009 118.972C188.789 118.793 189.427 118.433 189.92 117.893C190.413 117.358 190.73 116.661 190.871 115.803C191.006 114.977 190.937 114.225 190.664 113.548C190.397 112.871 189.949 112.306 189.321 111.851C188.697 111.402 187.92 111.101 186.988 110.947C186.099 110.801 185.292 110.843 184.568 111.075C183.848 111.313 183.25 111.715 182.774 112.279C182.303 112.845 181.999 113.546 181.862 114.383ZM189.6 115.642C189.363 117.09 188.396 117.763 186.699 117.662L187.527 112.609C188.321 112.842 188.895 113.215 189.249 113.728C189.608 114.241 189.725 114.879 189.6 115.642Z" fill="currentColor"/>
<path d="M178.432 122.589L178.001 123.879L179.821 124.491L177.897 130.259L176.077 129.647L175.646 130.937L178.581 131.923L178.847 131.127L185.922 133.505L187.806 127.859C186.655 127.416 185.689 127.027 184.907 126.691C184.128 126.361 183.432 126.029 182.819 125.693C182.167 125.339 181.723 125.01 181.487 124.705C181.255 124.408 181.215 124.031 181.367 123.576L178.432 122.589ZM180.673 125.655C180.789 125.897 180.964 126.105 181.198 126.279C181.431 126.459 181.728 126.646 182.09 126.841C182.424 127.037 182.827 127.243 183.301 127.459C183.779 127.676 184.278 127.892 184.797 128.105C185.321 128.321 185.817 128.521 186.283 128.706L185.258 131.78L179.298 129.776L180.673 125.655Z" fill="currentColor"/>
<path d="M175.355 136.292L174.695 137.553L181.142 140.952L179.181 144.702L172.734 141.303L172.074 142.565L179.717 146.594L182.998 140.321L175.355 136.292Z" fill="currentColor"/>
<path d="M165.667 145.561L164.81 146.708L168.515 149.501C168.07 149.553 167.647 149.691 167.245 149.916C166.845 150.149 166.484 150.481 166.161 150.912C165.679 151.557 165.425 152.231 165.4 152.933C165.375 153.643 165.545 154.328 165.91 154.99C166.274 155.652 166.801 156.243 167.491 156.763C168.181 157.283 168.893 157.626 169.628 157.792C170.362 157.959 171.061 157.928 171.725 157.7C172.389 157.479 172.961 157.048 173.44 156.408C173.791 155.938 174.017 155.457 174.118 154.966C174.219 154.474 174.213 153.988 174.099 153.509L174.872 154.091L175.634 153.072L165.667 145.561ZM167.308 151.556C167.829 150.86 168.457 150.532 169.192 150.572C169.925 150.617 170.67 150.925 171.428 151.496C172.191 152.07 172.691 152.701 172.93 153.389C173.169 154.084 173.037 154.769 172.532 155.443C172.181 155.913 171.777 156.213 171.32 156.343C170.861 156.477 170.38 156.469 169.88 156.319C169.376 156.174 168.882 155.918 168.396 155.552C167.906 155.183 167.519 154.774 167.235 154.326C166.955 153.881 166.812 153.423 166.805 152.95C166.799 152.478 166.966 152.013 167.308 151.556Z" fill="currentColor"/>
<path d="M161.247 169.403L162.087 168.591L161.001 160.905L165.348 165.438L166.337 164.481L160.356 158.245L159.511 159.063L160.664 166.807L156.256 162.211L155.267 163.167L161.247 169.403Z" fill="currentColor"/>
<path d="M150.823 166.875L149.562 167.752L149.663 171.503C149.559 171.569 149.457 171.637 149.357 171.707L147.827 172.772L146.05 170.198L144.874 171.016L149.79 178.121L152.554 176.197C152.716 176.084 152.905 175.946 153.122 175.782C153.34 175.617 153.541 175.435 153.726 175.234C154.141 174.783 154.384 174.257 154.454 173.655C154.528 173.058 154.354 172.454 153.933 171.844C153.536 171.269 153.071 170.911 152.539 170.768C152.005 170.633 151.469 170.655 150.932 170.834L150.823 166.875ZM150.11 172.615C150.215 172.542 150.343 172.46 150.493 172.368C150.639 172.279 150.795 172.203 150.959 172.141C151.274 172.025 151.594 172.004 151.917 172.078C152.239 172.16 152.513 172.365 152.741 172.694C152.977 173.036 153.073 173.373 153.029 173.702C152.983 174.04 152.876 174.312 152.708 174.52C152.59 174.668 152.453 174.802 152.297 174.924C152.136 175.048 152.006 175.145 151.905 175.216L150.29 176.34L148.495 173.74L150.11 172.615Z" fill="currentColor"/>
<path d="M137.141 175.334L135.86 175.957L139.051 182.571L136.347 183.888L136.91 185.055L143.6 181.799L143.036 180.632L140.332 181.948L137.141 175.334Z" fill="currentColor"/>
<path d="M123.596 189.693L124.713 189.35L127.224 182.012L129.05 188.021L130.365 187.617L127.854 179.35L126.729 179.695L124.251 187.115L122.4 181.022L121.085 181.426L123.596 189.693Z" fill="currentColor"/>
<path d="M109.141 192.29L110.298 192.131L113.946 185.29L114.792 191.513L116.155 191.326L114.991 182.765L113.826 182.925L110.198 189.851L109.34 183.541L107.977 183.728L109.141 192.29Z" fill="currentColor"/>
</g>
</svg>
