<svg width="104px" height="104px" viewBox="0 0 104 104" version="1.1" xmlns="http://www.w3.org/2000/svg" xmlns:xlink="http://www.w3.org/1999/xlink">
    <g id="Artboard" stroke="none" stroke-width="1" fill="none" fill-rule="evenodd" stroke-linecap="round" stroke-linejoin="round">
        <g id="Group" transform="translate(6.000000, 12.000000)" stroke-width="2">
            <path d="M31.0746487,24.197514 C36.1205381,24.197514 38.6501329,22.1738382 44.5354692,22.1738382 C50.4208055,22.1738382 61.6722589,28.9773995 61.1474128,42.745659 C60.6225666,56.5139186 52.4368081,70.6469105 45.8772542,74.564841 C39.3177004,78.4827715 35.2156133,74.943385 31.0746487,74.943385 C26.9336842,74.943385 27.1423949,76.3296746 20.2104356,76.1214754 C13.2784762,75.9132762 -0.385427982,58.3063757 0.86990581,41.3143534 C2.1252396,24.3223312 14.1849357,22.4751387 18.595485,22.2183427 C23.0060343,21.9615466 26.0287593,24.197514 31.0746487,24.197514 Z" id="Path-2" stroke="#00D372" fill-rule="nonzero"></path>
            <path d="M31.0695333,24.1540326 C31.0695333,20.2826527 29.4995987,8.16924434 42.0391249,0.450527313" id="Path-3" stroke="#00D372" fill-rule="nonzero"></path>
            <path d="M9.2904639,5.71945073 C10.2588204,8.84908893 12.563335,13.6852445 18.2358681,15.6132612 C23.8053195,17.5062418 28.0048614,15.2976373 31.861918,13.8729818 C29.9768711,10.4589241 28.462695,6.64330274 22.6586945,3.96331344 C18.0120058,1.81771125 11.901906,4.29326058 9.2904639,5.71945073 Z" id="Path-5" stroke="#00D372" fill-rule="nonzero"></path>
            <path d="M9.1502,48.2672 C7.01986,38.895 10.5287,32.5929 14.8968,29.5227" id="Shape" stroke="#000000"></path>
        </g>
    </g>
</svg>