<svg width="104" height="104" viewBox="0 0 104 104" fill="none" xmlns="http://www.w3.org/2000/svg">
<path d="M43.3499 63.9123L55.8126 76.375L68.2753 63.9123" stroke="black" stroke-width="2" stroke-linecap="round" stroke-linejoin="round"/>
<path d="M55.8125 47V76.375" stroke="black" stroke-width="2" stroke-linecap="round" stroke-linejoin="round"/>
<path d="M35.25 76.375H26.4375C23.5214 76.3722 20.6393 75.7491 17.9825 74.5472C15.3256 73.3453 12.9548 71.5921 11.0273 69.4039C9.09986 67.2156 7.65988 64.6425 6.80294 61.8552C5.946 59.0679 5.69171 56.1301 6.05695 53.237C6.42218 50.3439 7.39859 47.5616 8.92137 45.0747C10.4441 42.5878 12.4785 40.4533 14.8893 38.8127C17.3001 37.1722 20.0323 36.0632 22.9045 35.5593C25.7767 35.0554 28.7232 35.1682 31.5485 35.8902" stroke="currentColor" stroke-width="2" stroke-linecap="round" stroke-linejoin="round"/>
<path d="M29.375 47C29.3755 42.3457 30.4819 37.758 32.6031 33.6152C34.7243 29.4723 37.7996 25.8928 41.5756 23.1716C45.3515 20.4504 49.7201 18.6654 54.3212 17.9636C58.9224 17.2619 63.6244 17.6636 68.0399 19.1355C72.4553 20.6075 76.4578 23.1075 79.7175 26.4298C82.9773 29.752 85.4009 33.8012 86.7887 38.2438C88.1766 42.6864 88.4889 47.3953 87.6999 51.9822C86.9109 56.5692 85.0433 60.9031 82.2509 64.6267" stroke="currentColor" stroke-width="2" stroke-linecap="round" stroke-linejoin="round"/>
</svg>
