<svg width="104" height="104" viewBox="0 0 104 104" fill="none" xmlns="http://www.w3.org/2000/svg">
<path d="M46.6061 34.0606H27.0607V53.6061H46.6061V34.0606Z" stroke="black" stroke-width="2" stroke-linecap="round" stroke-linejoin="round"/>
<path d="M27.0606 8V17.7727M46.6061 8V17.7727M27.0606 69.894V79.6667M46.6061 69.894V79.6667M62.8939 34.0606H72.6667M62.8939 50.3485H72.6667M1 34.0606H10.7727M1 50.3485H10.7727M17.2879 17.7727H56.3788C59.977 17.7727 62.8939 20.6897 62.8939 24.2879V63.3788C62.8939 66.977 59.977 69.8939 56.3788 69.8939H17.2879C13.6897 69.8939 10.7727 66.977 10.7727 63.3788V24.2879C10.7727 20.6897 13.6897 17.7727 17.2879 17.7727Z" stroke="currentColor" stroke-width="2" stroke-linecap="round" stroke-linejoin="round"/>
</svg>
