<svg width="104" height="104" viewBox="0 0 104 104" fill="none" xmlns="http://www.w3.org/2000/svg">
<path d="M59 64H13.0656C8.06736 64 4 59.9731 4 55.0227V9" stroke="currentColor" stroke-width="2" stroke-miterlimit="10"/>
<path d="M4 9C1.79474 9 0 7.20526 0 5C0 2.79474 1.79474 1 4 1C6.20526 1 8 2.79474 8 5C8 7.20526 6.20526 9 4 9Z" stroke="currentColor" stroke-width="2" stroke-miterlimit="10"/>
<path d="M63 68C60.7947 68 59 66.2053 59 64C59 61.7947 60.7947 60 63 60C65.2053 60 67 61.7947 67 64C67 66.2053 65.2053 68 63 68Z" stroke="currentColor" stroke-width="2" stroke-miterlimit="10"/>
<path d="M51.2393 15C51.2393 25.1324 47.2619 34.6577 40.0398 41.8236C32.8176 48.9881 23.214 52.9336 13 52.9336" stroke="black" stroke-width="2" stroke-miterlimit="10"/>
<path d="M44 19.5558L51.5948 14L57.1953 21.5356" stroke="black" stroke-width="2" stroke-miterlimit="10"/>
</svg>
