<svg width="104" height="104" viewBox="0 0 104 104" fill="none" xmlns="http://www.w3.org/2000/svg">
<path d="M87.75 40.4959L97.7915 35.4751C98.1776 35.2821 98.5213 35.0141 98.8027 34.6868C99.084 34.3595 99.2974 33.9794 99.4302 33.5688C99.5631 33.1582 99.6129 32.7252 99.5766 32.2951C99.5403 31.865 99.4188 31.4465 99.219 31.0639L89.2281 11.9307C88.8337 11.1754 88.1585 10.6052 87.3478 10.3429C86.5371 10.0806 85.6559 10.1471 84.8938 10.5282L74.75 15.6M87.75 40.4959L74.75 15.6M87.75 40.4959L81.25 48.1M74.75 15.6L58.2212 15.6C57.7944 15.6 57.3718 15.6841 56.9775 15.8474C56.5832 16.0108 56.2249 16.2501 55.9231 16.5519L40.0248 32.4503C39.6955 32.7796 39.4409 33.1757 39.278 33.612C39.1152 34.0482 39.048 34.5143 39.0811 34.9788C39.1141 35.4433 39.2465 35.8952 39.4694 36.304C39.6922 36.7129 40.0004 37.069 40.3729 37.3484L42.5751 39C44.8253 40.6877 47.5622 41.6 50.375 41.6C53.1879 41.6 55.9248 40.6877 58.175 39L63.375 35.1L81.25 48.1M16.2501 40.0604L6.20854 35.0397C5.8225 34.8467 5.47878 34.5787 5.19743 34.2514C4.91607 33.9241 4.70273 33.544 4.56985 33.1334C4.43697 32.7228 4.38721 32.2898 4.42348 31.8597C4.45975 31.4296 4.58133 31.0111 4.7811 30.6285L14.772 11.4953C15.1664 10.74 15.8416 10.1698 16.6523 9.90749C17.4629 9.64516 18.3442 9.71168 19.1063 10.0927L29.2501 15.1646L16.2501 40.0604ZM16.2501 40.0604L38.4561 57.4247C38.8147 57.7051 39.2282 57.9071 39.6698 58.0175L63.2148 63.9037C63.7593 64.0399 64.3297 64.0327 64.8706 63.8828C65.4115 63.733 65.9043 63.4457 66.3012 63.0489L81.25 48.1M29.4833 15.1646L50.3321 9.08649C51.0768 8.86937 51.8747 8.92581 52.5815 9.24562L66.625 15.6" class="path" stroke="currentColor" stroke-width="2" stroke-linecap="round" stroke-linejoin="round"/>
<path d="M45.5 72.475L33.2559 69.414C32.759 69.2898 32.2985 69.0499 31.912 68.7139L22.75 60.75" class="path" stroke="black" stroke-width="2" stroke-linecap="round" stroke-linejoin="round"/>
</svg>
