<svg width="104" height="104" viewBox="0 0 104 104" fill="none" xmlns="http://www.w3.org/2000/svg">
<path d="M12.9835 56C6.19734 58.0142 2 60.7967 2 63.87C2 70.0169 18.7893 75 39.5 75C60.2107 75 77 70.0169 77 63.87C77 60.7967 72.8026 58.0142 66.0164 56" stroke="currentColor" stroke-width="2" stroke-linecap="round" stroke-linejoin="round"/>
<path d="M39.5 60C39.5 60 64 44.1043 64 25.7272C64 12.6231 53.031 2 39.5 2C25.969 2 15 12.6231 15 25.7272C15 44.1043 39.5 60 39.5 60Z" stroke="currentColor" stroke-width="2" stroke-linejoin="round"/>
<path d="M39.5 36C44.7467 36 49 31.7467 49 26.5C49 21.2533 44.7467 17 39.5 17C34.2533 17 30 21.2533 30 26.5C30 31.7467 34.2533 36 39.5 36Z" stroke="black" stroke-width="2" stroke-linejoin="round"/>
</svg>
