<svg width="104" height="104" viewBox="0 0 104 104" fill="none" xmlns="http://www.w3.org/2000/svg">
<path d="M60.5088 44.2V52.216C60.5088 54.872 58.4662 57 55.7964 57H5.93763C3.28385 57 1 54.872 1 52.216V21.816C1 19.176 3.28385 17 5.93763 17H12.2584" stroke="currentColor" stroke-width="2" stroke-miterlimit="10"/>
<path d="M75.5088 31H16" stroke="black" stroke-width="2" stroke-miterlimit="10"/>
<path d="M75.5088 22H16" stroke="currentColor" stroke-width="2" stroke-miterlimit="10"/>
<path d="M74.9839 5.816C74.9839 3.16 72.877 1 70.2715 1H20.1876C17.582 1 15.4751 3.16 15.4751 5.816V36.168C15.4751 38.824 17.582 40.984 20.1876 40.984H70.2876C72.8931 40.984 75 38.824 75 36.168V5.816H74.9839Z" stroke="currentColor" stroke-width="2" stroke-miterlimit="10"/>
</svg>
