<svg width="104" height="41" viewBox="0 0 104 41" fill="none" xmlns="http://www.w3.org/2000/svg">
<clipPath id="svgPath">
<path fill-rule="evenodd" clip-rule="evenodd" d="M25.155 34.9957V25.2148C25.155 19.8608 20.7581 15.434 15.3742 15.434C9.99022 15.434 5.59333 19.8608 5.59333 25.2148C5.59333 30.5689 9.99022 34.9957 15.3742 34.9957H25.155ZM90.4504 22.4032C89.224 18.3054 85.3955 15.434 81.0883 15.434C76.7811 15.434 72.9525 18.3353 71.7262 22.4032H90.4504ZM30.7483 40.589H15.3443C6.87949 40.589 0 33.6497 0 25.2148C0 16.7501 6.90941 9.84067 15.3742 9.84067C23.8389 9.84067 30.7483 16.7501 30.7483 25.2148V40.589ZM68.0771 33.4104C66.5217 30.9577 65.6842 28.1461 65.6842 25.2148C65.6842 16.7501 72.5936 9.84067 81.0584 9.84067C90.5102 9.84067 97.7785 18.3952 96.2232 27.7273L96.1634 28.0265H71.6963C72.9226 32.1242 76.7512 34.9957 81.0584 34.9957H98.4067V0H104V40.589H80.9986C77.7084 40.589 74.5677 39.5122 71.9356 37.5381C69.3034 39.4823 66.1329 40.589 62.8726 40.589H62.7529C54.3181 40.589 47.4087 33.6497 47.4087 25.2148V15.434C42.2042 15.6135 37.9868 19.9505 37.9868 25.2148V40.589H32.3934V25.2148C32.3934 16.8697 39.1234 10.0201 47.4087 9.84067V0H53.002V9.84067H61.2873V15.434H53.002V25.2148C53.002 30.5689 57.3989 34.9957 62.7829 34.9957C64.6672 34.9957 66.4918 34.4274 68.0771 33.4104Z" fill="white" fill-opacity="0.3"/>
</clipPath>
</svg>