<svg width="104" height="104" viewBox="0 0 104 104" fill="none" xmlns="http://www.w3.org/2000/svg">
<path d="M15 85C15 84.4477 14.5523 84 14 84C13.4477 84 13 84.4477 13 85H15ZM13 89.0311C13 89.5834 13.4477 90.0311 14 90.0311C14.5523 90.0311 15 89.5834 15 89.0311H13ZM13 85V89.0311H15V85H13Z" fill="currentColor"/>
<path d="M32 71C32 70.4477 31.5523 70 31 70C30.4477 70 30 70.4477 30 71H32ZM30 89C30 89.5523 30.4477 90 31 90C31.5523 90 32 89.5523 32 89H30ZM30 71V89H32V71H30Z" fill="currentColor"/>
<path d="M45 9C44.4477 9 44 9.44772 44 10C44 10.5523 44.4477 11 45 11V9ZM68 11C68.5523 11 69 10.5523 69 10C69 9.44772 68.5523 9 68 9V11ZM45 11L68 11V9L45 9V11Z" fill="black"/>
<path d="M49 56C49 55.4477 48.5523 55 48 55C47.4477 55 47 55.4477 47 56H49ZM47 89C47 89.5523 47.4477 90 48 90C48.5523 90 49 89.5523 49 89H47ZM47 56V89H49V56H47Z" fill="currentColor"/>
<path d="M66 38C66 37.4477 65.5523 37 65 37C64.4477 37 64 37.4477 64 38H66ZM64 89C64 89.5523 64.4477 90 65 90C65.5523 90 66 89.5523 66 89H64ZM64 38V89H66V38H64Z" fill="currentColor"/>
<path d="M83 21C83 20.4477 82.5523 20 82 20C81.4477 20 81 20.4477 81 21H83ZM81 89C81 89.5523 81.4477 90 82 90C82.5523 90 83 89.5523 83 89H81ZM81 21V89H83V21H81Z" fill="currentColor"/>
<path d="M68.7071 10.7071C69.0976 10.3166 69.0976 9.68342 68.7071 9.29289C68.3166 8.90237 67.6834 8.90237 67.2929 9.29289L68.7071 10.7071ZM8.29289 68.2929C7.90237 68.6834 7.90237 69.3166 8.29289 69.7071C8.68341 70.0976 9.31658 70.0976 9.7071 69.7071L8.29289 68.2929ZM67.2929 9.29289L8.29289 68.2929L9.7071 69.7071L68.7071 10.7071L67.2929 9.29289Z" fill="black"/>
</svg>
