<svg xmlns="http://www.w3.org/2000/svg" width="104" height="104" fill="none" viewBox="0 0 104 104">
  <path stroke="currentColor" stroke-linecap="round" stroke-linejoin="round" stroke-width="2" d="M20.714 51.545V32.872H12v18.673h8.714z"/>
  <path stroke="currentColor" stroke-linecap="round" stroke-linejoin="round" stroke-width="2" d="M41.464 51.805c3.2 0 4.311-2.167 4.52-3.332V34.58a7.31 7.31 0 00-7.31-7.31h-8.049a7.31 7.31 0 00-4.823 1.816l-5.088 4.467v18.25h20.75z"/>
  <path stroke="#000" stroke-linecap="round" stroke-linejoin="round" stroke-width="2" d="M28.907 24l-1.968-7h14.938l-2.187 7"/>
  <path stroke="#000" stroke-linecap="round" stroke-width="2" d="M22.332 56c-3.275 4.848-5.975 9.993-5.975 13.782 0 9.626 7.803 17.429 17.428 17.429 9.626 0 17.429-7.803 17.429-17.429 0-3.788-2.7-8.934-5.976-13.782"/>
  <path stroke="currentColor" stroke-linecap="round" stroke-linejoin="round" stroke-width="2" d="M92.398 66V40h-11v26h11zM81.398 66V41.5L69.139 19.657A5.203 5.203 0 0064.601 17v0a5.203 5.203 0 00-5.203 5.203V58a8 8 0 008 8h14z"/>
  <path stroke="currentColor" stroke-linecap="round" stroke-linejoin="round" stroke-width="2" d="M70.398 53v-4.5a5.5 5.5 0 00-5.5-5.5v0a5.5 5.5 0 00-5.5 5.5V53"/>
</svg>
