<svg width="104" height="104" viewBox="0 0 104 104" fill="none" xmlns="http://www.w3.org/2000/svg">
<path d="M19.176 19.1761C24.1952 19.1761 28.264 15.1073 28.264 10.0881C28.264 5.06886 24.1952 1 19.176 1C14.1568 1 10.0879 5.06886 10.0879 10.0881C10.0879 15.1073 14.1568 19.1761 19.176 19.1761Z" stroke="black" stroke-width="2" stroke-linecap="round" stroke-linejoin="round"/>
<path d="M55.5285 19.1761C60.5477 19.1761 64.6166 15.1073 64.6166 10.0881C64.6166 5.06886 60.5477 1 55.5285 1C50.5093 1 46.4404 5.06886 46.4404 10.0881C46.4404 15.1073 50.5093 19.1761 55.5285 19.1761Z" stroke="black" stroke-width="2" stroke-linecap="round" stroke-linejoin="round"/>
<path d="M1 42.8724C1 32.8341 9.13772 24.6963 19.1761 24.6963C26.3706 24.6963 32.5888 28.8763 35.5346 34.9402" stroke="currentColor" stroke-width="2" stroke-linecap="round" stroke-linejoin="round"/>
<path d="M73.7046 42.8724C73.7046 32.8341 65.5667 24.6963 55.5284 24.6963C48.334 24.6963 42.1158 28.8763 39.1699 34.9402" stroke="currentColor" stroke-width="2" stroke-linecap="round" stroke-linejoin="round"/>
<path d="M37.3522 53.7781C42.3714 53.7781 46.4403 49.7092 46.4403 44.69C46.4403 39.6708 42.3714 35.602 37.3522 35.602C32.333 35.602 28.2642 39.6708 28.2642 44.69C28.2642 49.7092 32.333 53.7781 37.3522 53.7781Z" stroke="currentColor" stroke-width="2" stroke-linecap="round" stroke-linejoin="round"/>
<path d="M55.5285 72.0888C55.5285 62.0505 47.3907 53.9127 37.3524 53.9127C27.3141 53.9127 19.1763 62.0505 19.1763 72.0888" stroke="currentColor" stroke-width="2" stroke-linecap="round" stroke-linejoin="round"/>
</svg>
