<svg width="104" height="104" viewBox="0 0 104 104" fill="none" xmlns="http://www.w3.org/2000/svg">
<path d="M43.2477 41.3542L35.2388 34.9921V19.0866" stroke="black" stroke-width="2" stroke-miterlimit="10"/>
<path d="M35.2389 11.1338C21.9762 11.1338 11.2122 21.8223 11.2122 34.992C11.2122 48.1618 21.9762 58.8503 35.2389 58.8503C41.6461 59.1684 48.79 56.8144 53.7715 51.8678C63.158 42.5472 63.3822 27.4369 54.0118 18.1322L50.0073 14.1559L46.6276 17.496H44.8496V1.59055H60.8674V3.18109L56.6707 7.42786L60.6432 11.3724C73.7778 24.4149 73.6016 45.5692 60.467 58.6117C53.5953 65.4192 44.8496 68.7117 35.2389 68.3936C17.6194 68.3936 1.60156 53.4424 1.60156 34.992" stroke="currentColor" stroke-width="2" stroke-miterlimit="10"/>
</svg>
