<svg width="104" height="104" viewBox="0 0 104 104" fill="none" xmlns="http://www.w3.org/2000/svg">
<path d="M64 32C67.866 32 71 28.866 71 25C71 21.134 67.866 18 64 18C60.134 18 57 21.134 57 25C57 28.866 60.134 32 64 32Z" stroke="black" stroke-width="2" stroke-linejoin="round"/>
<path d="M69.7267 4.22073L51.1497 22.5792L53.6541 34.9536L66.1758 37.4285L84.7528 19.0701L84.7546 19.0693C87.054 24.4332 87.6039 30.3722 86.3279 36.0594C85.0518 41.7467 82.0132 46.8992 77.6351 50.8C73.257 54.7007 67.7572 57.1554 61.9013 57.8225C56.0453 58.4896 50.1246 57.3358 44.9632 54.5218L44.9638 54.5208L20.1339 82.9288C18.1409 84.8961 15.4389 86.0008 12.622 86C9.80515 85.9992 7.10386 84.893 5.11201 82.9246C3.12017 80.9562 2.0008 78.2867 2 75.5029C1.9992 72.7192 3.11703 70.049 5.10774 68.0795L33.8536 43.5419L33.853 43.5422C31.0054 38.4416 29.8379 32.5906 30.5129 26.8035C31.188 21.0164 33.6719 15.5813 37.6191 11.2547C41.5662 6.9281 46.7802 3.92527 52.5351 2.66421C58.2901 1.40316 64.2997 1.94662 69.7275 4.21895L69.7267 4.22073Z" stroke="currentColor" stroke-width="2" stroke-linecap="round" stroke-linejoin="round"/>
</svg>
