<svg width="105" height="104" viewBox="0 0 105 104" fill="none" xmlns="http://www.w3.org/2000/svg">
<path d="M37 52C44.732 52 51 45.732 51 38C51 30.268 44.732 24 37 24C29.268 24 23 30.268 23 38C23 45.732 29.268 52 37 52Z" stroke="black" stroke-width="2" stroke-linecap="round" stroke-linejoin="round"/>
<path d="M8.47485 79.7499C9.94935 73.2874 13.5746 67.517 18.7569 63.3839C23.9392 59.2509 30.3714 57 37 57C43.6287 57 50.0608 59.2509 55.2431 63.3839C60.4254 67.517 64.0507 73.2874 65.5252 79.7499M4.5 8.25H69.5C71.2949 8.25 72.75 9.70507 72.75 11.5V76.5C72.75 78.2949 71.2949 79.75 69.5 79.75H4.5C2.70507 79.75 1.25 78.2949 1.25 76.5V11.5C1.25 9.70507 2.70507 8.25 4.5 8.25Z" stroke="currentColor" stroke-width="2" stroke-linecap="round" stroke-linejoin="round"/>
</svg>
