<svg width="64" height="64" viewBox="0 0 64 64" fill="none" xmlns="http://www.w3.org/2000/svg">
<path fill-rule="evenodd" clip-rule="evenodd" d="M23.2 9.9C23.5314 9.45817 24.1582 9.36863 24.6 9.7L26.4385 11.0788L30.2425 12.0299C30.7604 12.1593 31.0853 12.6727 30.9806 13.1961L30.4806 15.6961C30.4014 16.092 30.092 16.4014 29.6961 16.4806L27.6757 16.8847L25.8944 20.4472C25.8043 20.6275 25.6618 20.7763 25.4857 20.8742L20.9857 23.3742C20.8639 23.4418 20.7293 23.4833 20.5905 23.4959L15.8342 23.9283L15.6119 25.0394L16.5547 25.6679C16.9989 25.964 17.1321 26.5568 16.8575 27.0145L15.3575 29.5145C15.0734 29.9881 14.4591 30.1416 13.9855 29.8575L11.4855 28.3575C11.3053 28.2493 11.1637 28.0871 11.0809 27.8939L9.58087 24.3939C9.36331 23.8863 9.59846 23.2984 10.1061 23.0809C10.6137 22.8633 11.2016 23.0984 11.4192 23.6061L12.7918 26.8089L14.157 27.628L14.6519 26.8031L13.9453 26.332C13.6081 26.1073 13.44 25.7012 13.5194 25.3039L14.0194 22.8039C14.1063 22.3696 14.4684 22.0442 14.9095 22.0041L20.1991 21.5232L24.2439 19.2761L26.1056 15.5528C26.2436 15.2768 26.5013 15.0799 26.8039 15.0194L28.6502 14.6502L28.8324 13.7389L25.7575 12.9701C25.6282 12.9378 25.5066 12.88 25.4 12.8L23.4 11.3C22.9582 10.9686 22.8686 10.3418 23.2 9.9ZM40.3896 17.5061C40.7782 17.4629 41.1563 17.6502 41.3575 17.9855L42.5662 20H46.2639L50.0528 18.1056C50.5468 17.8586 51.1474 18.0588 51.3944 18.5528C51.6414 19.0468 51.4412 19.6474 50.9472 19.8944L46.9472 21.8944C46.8084 21.9639 46.6553 22 46.5 22H42C41.6487 22 41.3232 21.8157 41.1425 21.5145L39.9727 19.5647L36.5105 19.9494L34.5744 22.2728L35.3801 26.3016L40.2166 28.5H43.5C43.6974 28.5 43.8904 28.5584 44.0547 28.6679L45.5547 29.6679C45.7693 29.811 45.9203 30.0314 45.9762 30.2831L46.9456 34.6452L49.8779 40.0211C49.958 40.168 50 40.3327 50 40.5V42.6667L51.3 44.4C51.6314 44.8418 51.5418 45.4686 51.1 45.8C50.6582 46.1314 50.0314 46.0418 49.7 45.6L48.2 43.6C48.0702 43.4269 48 43.2164 48 43V40.755L45.1221 35.4788C45.0772 35.3966 45.0442 35.3084 45.0238 35.2169L44.111 31.1092L43.1972 30.5H40C39.8573 30.5 39.7162 30.4694 39.5862 30.4104L34.0862 27.9104C33.7934 27.7773 33.5825 27.5115 33.5194 27.1961L32.5194 22.1961C32.4601 21.8996 32.5382 21.5921 32.7318 21.3598L35.2318 18.3598C35.3971 18.1614 35.6329 18.0346 35.8896 18.0061L40.3896 17.5061ZM23.5532 27.0014C23.857 27.0176 24.1369 27.1712 24.3137 27.4188L26.4673 30.4338L29.876 30.0077C30.2321 29.9632 30.5847 30.1129 30.8 30.4L33.5596 34.0795L36.1644 34.5136C36.4529 34.5617 36.7059 34.7336 36.8567 34.9842C37.0076 35.2347 37.0412 35.5388 36.9487 35.8162L35.9487 38.8162C35.9147 38.9182 35.8645 39.014 35.8 39.1L33 42.8333V44.5C33 44.7968 32.8682 45.0782 32.6402 45.2682L29.9545 47.5063C29.9521 47.5251 29.9495 47.5442 29.9469 47.5638C29.9078 47.8504 29.8377 48.2479 29.7123 48.6496C29.5926 49.0327 29.3929 49.5189 29.0413 49.9009C28.6465 50.3297 28.046 50.629 27.3039 50.4806C26.6979 50.3594 26.2098 49.9778 25.862 49.6315C25.4975 49.2687 25.1812 48.8371 24.9287 48.4469C24.6731 48.0518 24.4644 47.67 24.3203 47.3892C24.2478 47.2479 24.1906 47.1301 24.1509 47.0463C24.1311 47.0043 24.1155 46.9707 24.1046 46.9468L24.0916 46.9182L24.0878 46.9097L24.0861 46.9059C24.086 46.9057 24.0858 46.9051 25 46.5L24.0861 46.9059C24.0381 46.7975 24.0094 46.6807 24.002 46.5624L23.546 39.2674L20.7253 38.4615C20.5323 38.4064 20.3603 38.2944 20.2318 38.1402L17.7318 35.1402C17.4774 34.835 17.4279 34.4081 17.6056 34.0528L18.6056 32.0528C18.6448 31.9743 18.6943 31.9013 18.7526 31.8356L22.7526 27.3356C22.9547 27.1082 23.2494 26.9852 23.5532 27.0014ZM25.9862 46.2483C26.0159 46.3097 26.054 46.387 26.0997 46.4761C26.2237 46.7176 26.3991 47.0377 26.608 47.3605C26.8199 47.6881 27.0483 47.9905 27.2731 48.2142C27.4278 48.3683 27.5431 48.4473 27.6155 48.486C27.6693 48.4039 27.7376 48.2635 27.8032 48.0534C27.8835 47.7963 27.9346 47.518 27.9652 47.2936C27.9802 47.1839 27.9895 47.0927 27.995 47.0306C27.9977 46.9997 27.9994 46.9764 28.0004 46.962L28.0014 46.9473M28.0014 46.9473C28.0162 46.6695 28.1461 46.4099 28.3598 46.2318L31 44.0316V42.5C31 42.2836 31.0702 42.0731 31.2 41.9L34.1026 38.0298L34.6813 36.294L32.8356 35.9864C32.5819 35.9441 32.3543 35.8057 32.2 35.6L29.5482 32.0643L26.124 32.4923C25.7597 32.5378 25.3997 32.38 25.1863 32.0812L23.4148 29.6011L20.3353 33.0655L19.6869 34.3622L21.571 36.6231L24.7747 37.5385C25.1819 37.6548 25.4717 38.015 25.4981 38.4376L25.9862 46.2483" fill="#00D372"/>
<path fill-rule="evenodd" clip-rule="evenodd" d="M23.5532 27.0014C23.857 27.0176 24.1369 27.1712 24.3137 27.4188L26.4673 30.4338L29.876 30.0077C30.2321 29.9632 30.5847 30.1129 30.8 30.4L33.5596 34.0795L36.1644 34.5136C36.4529 34.5617 36.7059 34.7336 36.8567 34.9842C37.0076 35.2347 37.0412 35.5388 36.9487 35.8162L35.9487 38.8162C35.9147 38.9182 35.8645 39.014 35.8 39.1L33 42.8333V44.5C33 44.7968 32.8682 45.0782 32.6402 45.2682L29.9545 47.5063C29.9521 47.5251 29.9495 47.5442 29.9469 47.5638C29.9078 47.8504 29.8377 48.2479 29.7123 48.6497C29.5926 49.0327 29.3929 49.5189 29.0413 49.9009C28.6465 50.3297 28.046 50.629 27.3039 50.4806C26.6979 50.3594 26.2098 49.9778 25.862 49.6315C25.4975 49.2687 25.1812 48.8371 24.9287 48.4469C24.6731 48.0518 24.4644 47.67 24.3203 47.3892C24.2478 47.2479 24.1906 47.1301 24.1509 47.0463C24.131 47.0043 24.1155 46.9707 24.1046 46.9468L24.0916 46.9183L24.0878 46.9097L24.0865 46.9069L24.0861 46.9059C24.0861 46.9059 24.0858 46.9051 25 46.5L24.0861 46.9059C24.0381 46.7975 24.0094 46.6807 24.002 46.5624L23.546 39.2675L20.7253 38.4615C20.5323 38.4064 20.3603 38.2944 20.2318 38.1402L17.7318 35.1402C17.4774 34.835 17.4279 34.4081 17.6056 34.0528L18.6056 32.0528C18.6448 31.9743 18.6943 31.9013 18.7526 31.8356L22.7526 27.3356C22.9547 27.1082 23.2494 26.9852 23.5532 27.0014ZM25.9862 46.2483C26.0159 46.3097 26.054 46.387 26.0997 46.4761C26.2237 46.7176 26.3991 47.0377 26.608 47.3605C26.8199 47.6881 27.0483 47.9905 27.2731 48.2142C27.4278 48.3683 27.5431 48.4473 27.6155 48.486C27.6693 48.4039 27.7376 48.2635 27.8032 48.0534C27.8835 47.7963 27.9346 47.5181 27.9652 47.2936C27.9802 47.1839 27.9895 47.0927 27.995 47.0306C27.9977 46.9997 27.9994 46.9764 28.0004 46.962L28.0014 46.9473M28.0014 46.9473C28.0162 46.6695 28.1461 46.4099 28.3598 46.2318L31 44.0316V42.5C31 42.2836 31.0702 42.0731 31.2 41.9L34.1026 38.0298L34.6813 36.294L32.8356 35.9864C32.5819 35.9441 32.3543 35.8057 32.2 35.6L29.5482 32.0643L26.124 32.4923C25.7597 32.5378 25.3997 32.38 25.1863 32.0812L23.4148 29.6011L20.3353 33.0655L19.6869 34.3622L21.571 36.6231L24.7747 37.5385C25.1819 37.6548 25.4716 38.015 25.4981 38.4376L25.9862 46.2483" fill="black"/>
<path fill-rule="evenodd" clip-rule="evenodd" d="M32 10C19.8497 10 10 19.8497 10 32C10 44.1503 19.8497 54 32 54C44.1503 54 54 44.1503 54 32C54 19.8497 44.1503 10 32 10ZM8 32C8 18.7452 18.7452 8 32 8C45.2548 8 56 18.7452 56 32C56 45.2548 45.2548 56 32 56C18.7452 56 8 45.2548 8 32Z" fill="#00D372"/>
</svg>
