<svg width="64" height="64" viewBox="0 0 64 64" fill="none" xmlns="http://www.w3.org/2000/svg">
<path d="M54.4707 26C55.7098 22.032 54.7629 17.5269 51.63 14.38C47.14 9.88 39.86 9.88 35.37 14.38L32 17.96L28.63 14.38C24.14 9.88 16.86 9.88 12.37 14.38C7.88 18.89 7.88 26.19 12.37 30.7L29.95 50.06C31.08 51.32 32.92 51.32 34.05 50.06" stroke="black" stroke-width="2" stroke-miterlimit="10" stroke-linecap="round" stroke-linejoin="round"/>
<path fill-rule="evenodd" clip-rule="evenodd" d="M52.7338 31.5666C50.6555 29.4843 47.2873 29.4845 45.2092 31.5672C44.8191 31.9581 44.186 31.9588 43.795 31.5687C43.404 31.1786 43.4033 30.5455 43.7934 30.1545C46.6531 27.2885 51.2905 27.2885 54.1502 30.1545L54.151 30.1553C57.0083 33.0254 57.0083 37.6702 54.151 40.5403C53.7613 40.9317 53.1281 40.9331 52.7368 40.5435C52.3454 40.1538 52.344 39.5206 52.7336 39.1293C54.814 37.0396 54.8141 33.6564 52.7338 31.5666Z" fill="#00D372"/>
<path fill-rule="evenodd" clip-rule="evenodd" d="M45.1868 30.1327C45.5889 30.5112 45.608 31.1441 45.2295 31.5463L43.3764 33.5148C42.9978 33.917 42.365 33.9361 41.9628 33.5575C41.5607 33.179 41.5416 32.5461 41.9201 32.144L43.7732 30.1754C44.1517 29.7733 44.7846 29.7541 45.1868 30.1327Z" fill="#00D372"/>
<path fill-rule="evenodd" clip-rule="evenodd" d="M31.1463 30.1545C34.006 27.2885 38.6434 27.2885 41.5031 30.1545C41.8932 30.5455 41.8924 31.1786 41.5015 31.5687C41.1105 31.9588 40.4774 31.9581 40.0873 31.5672C38.0092 29.4844 34.6409 29.4843 32.5626 31.5667C30.4824 33.6565 30.4825 37.0396 32.5629 39.1293C32.9525 39.5206 32.9511 40.1538 32.5597 40.5435C32.1683 40.9331 31.5352 40.9317 31.1455 40.5403C28.2882 37.6702 28.2882 33.0254 31.1455 30.1553L31.1463 30.1545Z" fill="#00D372"/>
<path fill-rule="evenodd" clip-rule="evenodd" d="M40.1097 30.1327C40.5119 29.7541 41.1448 29.7733 41.5233 30.1754L43.3764 32.144C43.7549 32.5461 43.7358 33.179 43.3337 33.5575C42.9315 33.9361 42.2987 33.917 41.9201 33.5148L40.067 31.5463C39.6885 31.1441 39.7076 30.5112 40.1097 30.1327Z" fill="#00D372"/>
<path fill-rule="evenodd" clip-rule="evenodd" d="M31.1819 39.0945C31.5908 38.7232 32.2232 38.7537 32.5945 39.1625L42.2655 49.8127C42.4894 50.0624 42.8071 50.0624 43.031 49.8127L43.0352 49.8081L52.702 39.1625C53.0732 38.7537 53.7057 38.7232 54.1145 39.0945C54.5234 39.4657 54.5539 40.0982 54.1826 40.507L44.52 51.148L44.5177 51.1506C43.4994 52.2831 41.7971 52.2831 40.7788 51.1506L31.1139 40.507C30.7426 40.0982 30.7731 39.4657 31.1819 39.0945Z" fill="#00D372"/>
</svg>
