<svg width="87" height="87" viewBox="0 0 87 87" fill="none" xmlns="http://www.w3.org/2000/svg">
<path d="M43.3441 86.6774C67.2764 86.6774 86.6774 67.2764 86.6774 43.3441C86.6774 19.4117 67.2764 0.0107422 43.3441 0.0107422C19.4117 0.0107422 0.0107422 19.4117 0.0107422 43.3441C0.0107422 67.2764 19.4117 86.6774 43.3441 86.6774Z" fill="currentColor"/>
<path d="M37.344 34.3441L51.344 43.3441L37.344 52.3441V34.3441Z" fill="white"/>
<path fill-rule="evenodd" clip-rule="evenodd" d="M36.8648 33.4664C37.1859 33.2911 37.5771 33.3051 37.8848 33.5029L51.8848 42.5029C52.171 42.6869 52.344 43.0038 52.344 43.3441C52.344 43.6843 52.171 44.0013 51.8848 44.1853L37.8848 53.1853C37.5771 53.3831 37.1859 53.3971 36.8648 53.2218C36.5437 53.0465 36.344 52.7099 36.344 52.3441V34.3441C36.344 33.9783 36.5437 33.6417 36.8648 33.4664ZM38.344 36.1757V50.5124L49.4948 43.3441L38.344 36.1757Z" fill="white"/>
</svg>
