<svg width="90" height="85" viewBox="0 0 90 85" fill="none" xmlns="http://www.w3.org/2000/svg">
<path fill-rule="evenodd" clip-rule="evenodd" d="M18.0003 1.66663C18.0003 1.11434 18.448 0.666626 19.0003 0.666626H71.0003C71.5526 0.666626 72.0003 1.11434 72.0003 1.66663V15.8333H88.3337C88.8859 15.8333 89.3337 16.281 89.3337 16.8333C89.3337 31.7283 80.3158 39.5 71.0003 39.5C70.9281 39.5 70.8577 39.4923 70.7899 39.4778C67.3784 50.7738 57.1394 59 45.0003 59C32.8612 59 22.6222 50.7738 19.2108 39.4778C19.1429 39.4923 19.0725 39.5 19.0003 39.5C9.68487 39.5 0.666992 31.7283 0.666992 16.8333C0.666992 16.281 1.11471 15.8333 1.66699 15.8333H18.0003V1.66663ZM20.0003 31.2353C20.0003 45.4922 31.2203 57 45.0003 57C58.7803 57 70.0003 45.4922 70.0003 31.2353V2.66663H20.0003V31.2353ZM18.0003 17.8333H2.68139C3.05157 30.5786 10.4997 36.9464 18.0003 37.4654V17.8333ZM72.0003 37.4654C79.501 36.9464 86.9491 30.5786 87.3193 17.8333H72.0003V37.4654ZM47.4182 14.0914C47.773 14.2546 48.0003 14.6094 48.0003 15V42C48.0003 42.5522 47.5526 43 47.0003 43C46.448 43 46.0003 42.5522 46.0003 42V17.1742L38.6511 23.4735C38.2318 23.8329 37.6005 23.7844 37.2411 23.365C36.8816 22.9457 36.9302 22.3144 37.3495 21.955L46.3495 14.2407C46.646 13.9865 47.0634 13.9283 47.4182 14.0914ZM45.0003 61.3333C45.5526 61.3333 46.0003 61.781 46.0003 62.3333V70H55.9258C56.2619 70 56.5755 70.1688 56.7606 70.4494L65.3351 83.4494C65.5377 83.7565 65.5552 84.15 65.3808 84.474C65.2064 84.7979 64.8682 85 64.5003 85H25.5003C25.1381 85 24.8042 84.8041 24.6274 84.4879C24.4507 84.1717 24.4588 83.7847 24.6485 83.4761L32.6436 70.4761C32.8256 70.1802 33.148 70 33.4954 70H44.0003V62.3333C44.0003 61.781 44.448 61.3333 45.0003 61.3333ZM34.0544 72L27.2893 83H62.6428L55.3874 72H34.0544Z" fill="currentColor"/>
</svg>
