<svg width="32" height="32" viewBox="0 0 32 32" fill="currentColor" xmlns="http://www.w3.org/2000/svg">
<path fill-rule="evenodd" clip-rule="evenodd" d="M27.922 11.0476C27.9748 11.9644 28 13.6156 28 16C28 18.3856 27.9748 20.0368 27.922 20.9536C27.8176 23.1208 27.172 24.7972 25.9852 25.9852C24.7972 27.1732 23.1208 27.8188 20.9536 27.9232C20.0368 27.9736 18.3868 28.0012 16 28.0012C13.6156 28.0012 11.9644 27.9736 11.0476 27.9232C8.8804 27.8188 7.204 27.1732 6.016 25.9852C4.828 24.7972 4.1824 23.1208 4.078 20.9536C4.0264 20.0368 4 18.3856 4 16C4 13.6156 4.0264 11.9644 4.078 11.0476C4.1824 8.8804 4.828 7.204 6.016 6.016C7.204 4.828 8.8804 4.1824 11.0476 4.078C11.9644 4.0264 13.6156 4 16 4C18.3868 4 20.0368 4.0264 20.9536 4.078C23.1208 4.1824 24.7972 4.828 25.9852 6.016C27.172 7.204 27.8176 8.8804 27.922 11.0476ZM23.422 8.57727C23.7028 8.85927 23.8444 9.19767 23.8444 9.59367C23.8444 9.98967 23.7028 10.3281 23.422 10.6089C23.1412 10.8909 22.8016 11.0313 22.4068 11.0313C22.0108 11.0313 21.6724 10.8909 21.3916 10.6089C21.1096 10.3281 20.9692 9.98967 20.9692 9.59367C20.9692 9.19767 21.1096 8.85927 21.3916 8.57727C21.6724 8.29647 22.0108 8.15607 22.4068 8.15607C22.8016 8.15607 23.1412 8.29647 23.422 8.57727ZM20.3596 11.6412C21.5572 12.8388 22.156 14.292 22.156 15.9996C22.156 17.7084 21.5572 19.1616 20.3596 20.3604C19.162 21.558 17.7088 22.1568 16 22.1568C14.2924 22.1568 12.8392 21.558 11.6416 20.3604C10.444 19.1616 9.84398 17.7084 9.84398 15.9996C9.84398 14.292 10.444 12.8388 11.6416 11.6412C12.8392 10.4436 14.2924 9.84357 16 9.84357C17.7088 9.84357 19.162 10.4436 20.3596 11.6412ZM18.8284 18.8279C19.6096 18.0467 19.9996 17.1035 19.9996 15.9995C19.9996 14.8967 19.6096 13.9535 18.8284 13.1723C18.0472 12.3911 17.104 11.9999 16 11.9999C14.8972 11.9999 13.954 12.3911 13.1716 13.1723C12.3916 13.9535 12.0004 14.8967 12.0004 15.9995C12.0004 17.1035 12.3916 18.0467 13.1716 18.8279C13.954 19.6103 14.8972 20.0003 16 20.0003C17.104 20.0003 18.0472 19.6103 18.8284 18.8279Z"/>
</svg>
