<svg width="32" height="32" viewBox="0 0 32 32" fill="currentColor" xmlns="http://www.w3.org/2000/svg">
<path d="M24.0062 25.2718C23.9374 25.4433 23.8327 25.5982 23.6991 25.726C23.5656 25.8538 23.4063 25.9515 23.2319 26.0127C23.0574 26.0739 22.8719 26.0971 22.6878 26.0807C22.5037 26.0644 22.3252 26.0089 22.1643 25.9179L17.1743 22.0405L13.9716 24.9952C13.8973 25.0501 13.8103 25.0854 13.7188 25.0979C13.6272 25.1104 13.534 25.0997 13.4477 25.0667L14.0617 19.5734L14.0813 19.589L14.0939 19.4806C14.0939 19.4806 23.0734 11.3052 23.4392 10.9569C23.8095 10.6095 23.6873 10.5342 23.6873 10.5342C23.7084 10.1104 23.0228 10.5342 23.0228 10.5342L11.1251 18.1884L6.17034 16.5009C6.17034 16.5009 5.40933 16.228 5.33765 15.6278C5.26228 15.0322 6.19514 14.7087 6.19514 14.7087L25.8949 6.88266C25.8949 6.88266 27.5143 6.16114 27.5143 7.35601L24.0062 25.2718Z"/>
</svg>
