<svg width="40" height="40" viewBox="0 0 40 40" fill="currentColor" xmlns="http://www.w3.org/2000/svg">
<path d="M31.292 10.2789C32.491 12.1317 33.2265 14.2458 33.4362 16.4427C33.6343 18.4641 33.3801 20.5043 32.6918 22.4152C32.0036 24.3261 30.8986 26.0598 29.457 27.4906L20.9163 36.0798C20.7659 36.2314 20.587 36.3518 20.3899 36.4339C20.1928 36.516 19.9814 36.5583 19.7679 36.5583C19.5543 36.5583 19.3429 36.516 19.1458 36.4339C18.9487 36.3518 18.7698 36.2314 18.6194 36.0798L10.0464 27.4906C8.48277 25.9332 7.31703 24.0223 6.64767 21.9194C5.97831 19.8164 5.825 17.5833 6.20069 15.4086C6.57639 13.2339 7.47004 11.1816 8.80615 9.42513C10.1422 7.66865 11.8815 6.2596 13.877 5.31706C15.8725 4.37451 18.0656 3.92616 20.2709 4.0099C22.4762 4.09364 24.6289 4.707 26.5472 5.79816C28.4655 6.88932 30.0929 8.4262 31.292 10.2789ZM19.7371 24H26.7507V17C26.7507 13.1459 23.6048 10 19.7507 10C15.8966 10 12.7507 13.1459 12.7507 17C12.7507 20.8405 15.883 24 19.7371 24ZM24.204 21.4533V17C24.204 14.5623 22.2021 12.5467 19.7507 12.5467C17.2994 12.5467 15.2974 14.5623 15.2974 17C15.2974 19.4377 17.2994 21.4533 19.7507 21.4533H24.204Z"/>
</svg>
